GarimaCharSet.ufo
<glyph name="uni1200" format="2">
  <advance width="711"/>
  <unicode hex="1200"/>
  <outline>
    <contour>
      <point x="427" y="94" type="curve" smooth="yes"/>
      <point x="466" y="94"/>
      <point x="481" y="112"/>
      <point x="487" y="134" type="curve" smooth="yes"/>
      <point x="521" y="268"/>
      <point x="634" y="463"/>
      <point x="634" y="556" type="curve" smooth="yes"/>
      <point x="634" y="584"/>
      <point x="608" y="595"/>
      <point x="585" y="595" type="curve" smooth="yes"/>
      <point x="547" y="595"/>
      <point x="523" y="575"/>
      <point x="518" y="547" type="curve"/>
      <point x="530" y="541"/>
      <point x="536" y="534"/>
      <point x="536" y="518" type="curve" smooth="yes"/>
      <point x="536" y="388"/>
      <point x="410" y="158"/>
      <point x="375" y="111" type="curve"/>
      <point x="379" y="101"/>
      <point x="399" y="94"/>
    </contour>
    <contour>
      <point x="251" y="512" type="line"/>
      <point x="271" y="523"/>
      <point x="288" y="535"/>
      <point x="288" y="551" type="curve" smooth="yes"/>
      <point x="288" y="578"/>
      <point x="224" y="609"/>
      <point x="177" y="609" type="curve" smooth="yes"/>
      <point x="149" y="609"/>
      <point x="137" y="585"/>
      <point x="143" y="567" type="curve"/>
      <point x="167" y="559"/>
      <point x="179" y="550"/>
      <point x="179" y="531" type="curve"/>
      <point x="179" y="464"/>
      <point x="113" y="205"/>
      <point x="113" y="102" type="curve" smooth="yes"/>
      <point x="113" y="62"/>
      <point x="131" y="30"/>
      <point x="194" y="30" type="curve" smooth="yes"/>
      <point x="304" y="30"/>
      <point x="414" y="75"/>
      <point x="491" y="185" type="curve"/>
      <point x="466" y="228" type="line"/>
      <point x="389" y="114"/>
      <point x="321" y="99"/>
      <point x="264" y="99" type="curve" smooth="yes"/>
      <point x="219" y="99"/>
      <point x="198" y="117"/>
      <point x="198" y="157" type="curve" smooth="yes"/>
      <point x="198" y="237"/>
      <point x="227" y="414"/>
      <point x="261" y="538" type="curve"/>
    </contour>
  </outline>
</glyph>
<glyph name="uni1201" format="2">
  <advance width="852"/>
  <unicode hex="1201"/>
  <outline>
    <contour>
      <point x="758" y="368" type="curve"/>
      <point x="679" y="378" type="line"/>
      <point x="677" y="364"/>
      <point x="675" y="344"/>
      <point x="675" y="318" type="curve" smooth="yes"/>
      <point x="675" y="289"/>
      <point x="689" y="273"/>
      <point x="726" y="273" type="curve" smooth="yes"/>
      <point x="748" y="273"/>
      <point x="769" y="277"/>
      <point x="787" y="290" type="curve"/>
      <point x="776" y="306"/>
      <point x="770" y="329"/>
      <point x="769" y="355" type="curve" smooth="yes"/>
      <point x="768" y="379"/>
      <point x="770" y="408"/>
      <point x="778" y="430" type="curve"/>
      <point x="757" y="439"/>
      <point x="741" y="444"/>
      <point x="720" y="444" type="curve" smooth="yes"/>
      <point x="698" y="444"/>
      <point x="688" y="433"/>
      <point x="683" y="414" type="curve"/>
      <point x="645" y="403"/>
      <point x="610" y="394"/>
      <point x="549" y="381" type="curve"/>
      <point x="543" y="326" type="line"/>
      <point x="604" y="341"/>
      <point x="684" y="362"/>
    </contour>
    <contour>
      <point x="427" y="94" type="curve" smooth="yes"/>
      <point x="466" y="94"/>
      <point x="481" y="112"/>
      <point x="487" y="134" type="curve" smooth="yes"/>
      <point x="521" y="268"/>
      <point x="634" y="463"/>
      <point x="634" y="556" type="curve" smooth="yes"/>
      <point x="634" y="584"/>
      <point x="608" y="595"/>
      <point x="585" y="595" type="curve" smooth="yes"/>
      <point x="547" y="595"/>
      <point x="523" y="575"/>
      <point x="518" y="547" type="curve"/>
      <point x="530" y="541"/>
      <point x="536" y="534"/>
      <point x="536" y="518" type="curve" smooth="yes"/>
      <point x="536" y="388"/>
      <point x="410" y="158"/>
      <point x="375" y="111" type="curve"/>
      <point x="379" y="101"/>
      <point x="399" y="94"/>
    </contour>
    <contour>
      <point x="251" y="512" type="line"/>
      <point x="271" y="523"/>
      <point x="288" y="535"/>
      <point x="288" y="551" type="curve" smooth="yes"/>
      <point x="288" y="578"/>
      <point x="224" y="609"/>
      <point x="177" y="609" type="curve" smooth="yes"/>
      <point x="149" y="609"/>
      <point x="137" y="585"/>
      <point x="143" y="567" type="curve"/>
      <point x="167" y="559"/>
      <point x="179" y="550"/>
      <point x="179" y="531" type="curve"/>
      <point x="179" y="464"/>
      <point x="113" y="205"/>
      <point x="113" y="102" type="curve" smooth="yes"/>
      <point x="113" y="62"/>
      <point x="131" y="30"/>
      <point x="194" y="30" type="curve" smooth="yes"/>
      <point x="304" y="30"/>
      <point x="414" y="75"/>
      <point x="491" y="185" type="curve"/>
      <point x="466" y="228" type="line"/>
      <point x="389" y="114"/>
      <point x="321" y="99"/>
      <point x="264" y="99" type="curve" smooth="yes"/>
      <point x="219" y="99"/>
      <point x="198" y="117"/>
      <point x="198" y="157" type="curve" smooth="yes"/>
      <point x="198" y="237"/>
      <point x="227" y="414"/>
      <point x="261" y="538" type="curve"/>
    </contour>
  </outline>
</glyph>
<glyph name="uni1202" format="2">
  <advance width="619"/>
  <unicode hex="1202"/>
  <outline>
    <contour>
      <point x="163" y="532" type="line"/>
      <point x="183" y="543"/>
      <point x="200" y="555"/>
      <point x="200" y="571" type="curve" smooth="yes"/>
      <point x="200" y="598"/>
      <point x="134" y="629"/>
      <point x="85" y="629" type="curve" smooth="yes"/>
      <point x="57" y="629"/>
      <point x="45" y="605"/>
      <point x="51" y="587" type="curve"/>
      <point x="75" y="579"/>
      <point x="87" y="570"/>
      <point x="87" y="551" type="curve"/>
      <point x="87" y="513"/>
      <point x="64" y="389"/>
      <point x="64" y="332" type="curve" smooth="yes"/>
      <point x="64" y="294"/>
      <point x="82" y="263"/>
      <point x="152" y="263" type="curve" smooth="yes"/>
      <point x="262" y="263"/>
      <point x="385" y="334"/>
      <point x="461" y="443" type="curve"/>
      <point x="434" y="473" type="line"/>
      <point x="362" y="366"/>
      <point x="276" y="329"/>
      <point x="213" y="329" type="curve" smooth="yes"/>
      <point x="171" y="329"/>
      <point x="151" y="341"/>
      <point x="151" y="368" type="curve" smooth="yes"/>
      <point x="151" y="448"/>
      <point x="163" y="498"/>
      <point x="173" y="558" type="curve"/>
    </contour>
    <contour>
      <point x="240" y="48" type="curve" smooth="yes"/>
      <point x="240" y="14"/>
      <point x="264" y="-8"/>
      <point x="304" y="-8" type="curve" smooth="yes"/>
      <point x="337" y="-8"/>
      <point x="414" y="11"/>
      <point x="475" y="21" type="curve"/>
      <point x="477" y="-38"/>
      <point x="509" y="-64"/>
      <point x="617" y="-45" type="curve"/>
      <point x="611" y="-17"/>
      <point x="609" y="22"/>
      <point x="606" y="42" type="curve" smooth="yes"/>
      <point x="604" y="56"/>
      <point x="599" y="60"/>
      <point x="587" y="63" type="curve" smooth="yes"/>
      <point x="567" y="68"/>
      <point x="547" y="72"/>
      <point x="530" y="75" type="curve" smooth="yes"/>
      <point x="511" y="79"/>
      <point x="502" y="77"/>
      <point x="481" y="73" type="curve" smooth="yes"/>
      <point x="453" y="67"/>
      <point x="384" y="53"/>
      <point x="364" y="53" type="curve" smooth="yes"/>
      <point x="342" y="53"/>
      <point x="333" y="61"/>
      <point x="333" y="87" type="curve" smooth="yes"/>
      <point x="333" y="196"/>
      <point x="528" y="543"/>
      <point x="528" y="596" type="curve" smooth="yes"/>
      <point x="528" y="624"/>
      <point x="502" y="635"/>
      <point x="479" y="635" type="curve" smooth="yes"/>
      <point x="441" y="635"/>
      <point x="417" y="615"/>
      <point x="412" y="587" type="curve"/>
      <point x="424" y="581"/>
      <point x="430" y="574"/>
      <point x="430" y="558" type="curve" smooth="yes"/>
      <point x="430" y="467"/>
      <point x="240" y="135"/>
    </contour>
  </outline>
</glyph>
<glyph name="uni1203" format="2">
  <advance width="551"/>
  <unicode hex="1203"/>
  <outline>
    <contour>
      <point x="340.5093902942882" y="-2" type="curve" smooth="yes"/>
      <point x="379.5093902942882" y="-2"/>
      <point x="400.5093902942882" y="16"/>
      <point x="400.5093902942882" y="38" type="curve" smooth="yes"/>
      <point x="400.5093902942882" y="216"/>
      <point x="509.5093902942882" y="538"/>
      <point x="509.5093902942882" y="596" type="curve" smooth="yes"/>
      <point x="509.5093902942882" y="624"/>
      <point x="483.5093902942882" y="635"/>
      <point x="460.5093902942882" y="635" type="curve" smooth="yes"/>
      <point x="422.5093902942882" y="635"/>
      <point x="398.5093902942882" y="615"/>
      <point x="393.5093902942882" y="587" type="curve"/>
      <point x="405.5093902942882" y="581"/>
      <point x="411.5093902942882" y="574"/>
      <point x="411.5093902942882" y="558" type="curve" smooth="yes"/>
      <point x="411.5093902942882" y="461"/>
      <point x="319.5093902942882" y="66"/>
      <point x="288.5093902942882" y="15" type="curve"/>
      <point x="292.5093902942882" y="5"/>
      <point x="312.5093902942882" y="-2"/>
    </contour>
    <contour>
      <point x="144.5093902942882" y="532" type="line"/>
      <point x="164.5093902942882" y="543"/>
      <point x="181.5093902942882" y="555"/>
      <point x="181.5093902942882" y="571" type="curve" smooth="yes"/>
      <point x="181.5093902942882" y="598"/>
      <point x="115.50939029428821" y="629"/>
      <point x="66.50939029428821" y="629" type="curve" smooth="yes"/>
      <point x="38.50939029428822" y="629"/>
      <point x="26.509390294288217" y="605"/>
      <point x="32.50939029428822" y="587" type="curve"/>
      <point x="56.50939029428822" y="579"/>
      <point x="68.50939029428821" y="570"/>
      <point x="68.50939029428821" y="551" type="curve"/>
      <point x="68.50939029428821" y="513"/>
      <point x="45.50939029428822" y="389"/>
      <point x="45.50939029428822" y="332" type="curve" smooth="yes"/>
      <point x="45.50939029428822" y="294"/>
      <point x="63.50939029428822" y="263"/>
      <point x="133.5093902942882" y="263" type="curve" smooth="yes"/>
      <point x="245.5093902942882" y="263"/>
      <point x="371.5093902942882" y="334"/>
      <point x="447.5093902942882" y="443" type="curve"/>
      <point x="420.5093902942882" y="473" type="line"/>
      <point x="347.5093902942882" y="365"/>
      <point x="258.5093902942882" y="329"/>
      <point x="194.5093902942882" y="329" type="curve" smooth="yes"/>
      <point x="152.5093902942882" y="329"/>
      <point x="132.5093902942882" y="341"/>
      <point x="132.5093902942882" y="368" type="curve" smooth="yes"/>
      <point x="132.5093902942882" y="448"/>
      <point x="144.5093902942882" y="498"/>
      <point x="154.5093902942882" y="558" type="curve"/>
    </contour>
  </outline>
</glyph>
<glyph name="uni1204" format="2">
  <advance width="677"/>
  <unicode hex="1204"/>
  <outline>
    <contour>
      <point x="202" y="532" type="line"/>
      <point x="222" y="543"/>
      <point x="239" y="555"/>
      <point x="239" y="571" type="curve" smooth="yes"/>
      <point x="239" y="598"/>
      <point x="173" y="629"/>
      <point x="124" y="629" type="curve" smooth="yes"/>
      <point x="96" y="629"/>
      <point x="84" y="605"/>
      <point x="90" y="587" type="curve"/>
      <point x="114" y="579"/>
      <point x="126" y="570"/>
      <point x="126" y="551" type="curve"/>
      <point x="126" y="513"/>
      <point x="103" y="389"/>
      <point x="103" y="332" type="curve" smooth="yes"/>
      <point x="103" y="294"/>
      <point x="121" y="263"/>
      <point x="191" y="263" type="curve" smooth="yes"/>
      <point x="301" y="263"/>
      <point x="424" y="334"/>
      <point x="500" y="443" type="curve"/>
      <point x="473" y="473" type="line"/>
      <point x="401" y="366"/>
      <point x="315" y="329"/>
      <point x="252" y="329" type="curve" smooth="yes"/>
      <point x="210" y="329"/>
      <point x="190" y="341"/>
      <point x="190" y="368" type="curve" smooth="yes"/>
      <point x="190" y="448"/>
      <point x="202" y="498"/>
      <point x="212" y="558" type="curve"/>
    </contour>
    <contour>
      <point x="280" y="105" type="curve" smooth="yes"/>
      <point x="280" y="14"/>
      <point x="363" y="-11"/>
      <point x="432" y="-11" type="curve" smooth="yes"/>
      <point x="532" y="-11"/>
      <point x="596" y="47"/>
      <point x="596" y="113" type="curve" smooth="yes"/>
      <point x="596" y="175"/>
      <point x="493" y="213"/>
      <point x="352" y="214" type="curve"/>
      <point x="342" y="165" type="line"/>
      <point x="459" y="170"/>
      <point x="510" y="144"/>
      <point x="510" y="104" type="curve" smooth="yes"/>
      <point x="510" y="76"/>
      <point x="484" y="43"/>
      <point x="434" y="43" type="curve" smooth="yes"/>
      <point x="392" y="43"/>
      <point x="369" y="63"/>
      <point x="369" y="112" type="curve" smooth="yes"/>
      <point x="369" y="217"/>
      <point x="567" y="545"/>
      <point x="567" y="596" type="curve" smooth="yes"/>
      <point x="567" y="624"/>
      <point x="541" y="635"/>
      <point x="518" y="635" type="curve" smooth="yes"/>
      <point x="480" y="635"/>
      <point x="456" y="615"/>
      <point x="451" y="587" type="curve"/>
      <point x="463" y="581"/>
      <point x="469" y="574"/>
      <point x="469" y="558" type="curve" smooth="yes"/>
      <point x="469" y="478"/>
      <point x="280" y="182"/>
    </contour>
  </outline>
</glyph>
<glyph name="uni1205" format="2">
  <advance width="756"/>
  <unicode hex="1205"/>
  <outline>
    <contour>
      <point x="481" y="95" type="curve" smooth="yes"/>
      <point x="520" y="95"/>
      <point x="535" y="113"/>
      <point x="541" y="135" type="curve" smooth="yes"/>
      <point x="573" y="268"/>
      <point x="678" y="462"/>
      <point x="678" y="556" type="curve" smooth="yes"/>
      <point x="678" y="584"/>
      <point x="652" y="595"/>
      <point x="629" y="595" type="curve" smooth="yes"/>
      <point x="591" y="595"/>
      <point x="567" y="575"/>
      <point x="562" y="547" type="curve"/>
      <point x="574" y="541"/>
      <point x="580" y="534"/>
      <point x="580" y="518" type="curve" smooth="yes"/>
      <point x="580" y="389"/>
      <point x="462" y="157"/>
      <point x="429" y="112" type="curve"/>
      <point x="433" y="102"/>
      <point x="453" y="95"/>
    </contour>
    <contour>
      <point x="91" y="352" type="curve" smooth="yes"/>
      <point x="91" y="332"/>
      <point x="105" y="315"/>
      <point x="136" y="315" type="curve" smooth="yes"/>
      <point x="200" y="315"/>
      <point x="209" y="310"/>
      <point x="209" y="291" type="curve" smooth="yes"/>
      <point x="209" y="259"/>
      <point x="167" y="152"/>
      <point x="167" y="103" type="curve" smooth="yes"/>
      <point x="167" y="63"/>
      <point x="185" y="31"/>
      <point x="248" y="31" type="curve" smooth="yes"/>
      <point x="358" y="31"/>
      <point x="468" y="76"/>
      <point x="545" y="186" type="curve"/>
      <point x="520" y="246" type="line"/>
      <point x="435" y="121"/>
      <point x="375" y="100"/>
      <point x="318" y="100" type="curve" smooth="yes"/>
      <point x="273" y="100"/>
      <point x="252" y="112"/>
      <point x="252" y="139" type="curve" smooth="yes"/>
      <point x="252" y="186"/>
      <point x="294" y="281"/>
      <point x="294" y="325" type="curve" smooth="yes"/>
      <point x="294" y="345"/>
      <point x="283" y="356"/>
      <point x="250" y="356" type="curve" smooth="yes"/>
      <point x="194" y="356"/>
      <point x="175" y="361"/>
      <point x="175" y="388" type="curve" smooth="yes"/>
      <point x="175" y="414"/>
      <point x="182" y="448"/>
      <point x="191" y="472" type="curve"/>
      <point x="211" y="483"/>
      <point x="228" y="495"/>
      <point x="228" y="511" type="curve" smooth="yes"/>
      <point x="228" y="538"/>
      <point x="164" y="569"/>
      <point x="117" y="569" type="curve" smooth="yes"/>
      <point x="89" y="569"/>
      <point x="77" y="545"/>
      <point x="83" y="527" type="curve"/>
      <point x="107" y="519"/>
      <point x="119" y="510"/>
      <point x="119" y="491" type="curve" smooth="yes"/>
      <point x="119" y="449"/>
      <point x="91" y="399"/>
    </contour>
  </outline>
</glyph>
<glyph name="uni1206" format="2">
  <advance width="933"/>
  <unicode hex="1206"/>
  <outline>
    <contour>
      <point x="428" y="94" type="curve" smooth="yes"/>
      <point x="448" y="94"/>
      <point x="460" y="102"/>
      <point x="480" y="153" type="curve" smooth="yes"/>
      <point x="533" y="286"/>
      <point x="591" y="467"/>
      <point x="595" y="527" type="curve"/>
      <point x="574" y="509" type="line"/>
      <point x="619" y="443"/>
      <point x="690" y="411"/>
      <point x="724" y="411" type="curve" smooth="yes"/>
      <point x="803" y="411"/>
      <point x="868" y="468"/>
      <point x="868" y="523" type="curve" smooth="yes"/>
      <point x="868" y="570"/>
      <point x="811" y="640"/>
      <point x="731" y="640" type="curve" smooth="yes"/>
      <point x="670" y="640"/>
      <point x="622" y="623"/>
      <point x="580" y="599" type="curve"/>
      <point x="599" y="574" type="line"/>
      <point x="599" y="609"/>
      <point x="571" y="635"/>
      <point x="541" y="635" type="curve" smooth="yes"/>
      <point x="517" y="635"/>
      <point x="503" y="616"/>
      <point x="503" y="599" type="curve"/>
      <point x="519" y="571"/>
      <point x="538" y="546"/>
      <point x="558" y="526" type="curve"/>
      <point x="530" y="590" type="line"/>
      <point x="530" y="483"/>
      <point x="444" y="216"/>
      <point x="388" y="160" type="curve" smooth="yes"/>
      <point x="349" y="121"/>
      <point x="308" y="99"/>
      <point x="258" y="99" type="curve" smooth="yes"/>
      <point x="215" y="99"/>
      <point x="190" y="117"/>
      <point x="190" y="164" type="curve" smooth="yes"/>
      <point x="190" y="232"/>
      <point x="219" y="392"/>
      <point x="251" y="514" type="curve"/>
      <point x="267" y="520"/>
      <point x="276" y="530"/>
      <point x="276" y="547" type="curve" smooth="yes"/>
      <point x="276" y="578"/>
      <point x="217" y="609"/>
      <point x="173" y="609" type="curve" smooth="yes"/>
      <point x="145" y="609"/>
      <point x="133" y="584"/>
      <point x="139" y="565" type="curve"/>
      <point x="163" y="557"/>
      <point x="175" y="547"/>
      <point x="175" y="522" type="curve" smooth="yes"/>
      <point x="175" y="464"/>
      <point x="114" y="235"/>
      <point x="114" y="144" type="curve" smooth="yes"/>
      <point x="114" y="62"/>
      <point x="168" y="32"/>
      <point x="224" y="32" type="curve" smooth="yes"/>
      <point x="280" y="32"/>
      <point x="343" y="56"/>
      <point x="399" y="103" type="curve"/>
      <point x="406" y="98"/>
      <point x="417" y="94"/>
    </contour>
    <contour>
      <point x="710" y="591" type="curve" smooth="yes"/>
      <point x="762" y="591"/>
      <point x="790" y="560"/>
      <point x="790" y="519" type="curve" smooth="yes"/>
      <point x="790" y="495"/>
      <point x="770" y="470"/>
      <point x="742" y="470" type="curve" smooth="yes"/>
      <point x="691" y="470"/>
      <point x="611" y="526"/>
      <point x="611" y="549" type="curve" smooth="yes"/>
      <point x="611" y="566"/>
      <point x="651" y="591"/>
    </contour>
  </outline>
</glyph>
<glyph name="uni1208" format="2">
  <advance width="594"/>
  <unicode hex="1208"/>
  <outline>
    <contour>
      <point x="306" y="561" type="line"/>
      <point x="108" y="445"/>
      <point x="14" y="238"/>
      <point x="14.0" y="33" type="curve" smooth="yes"/>
      <point x="14" y="7"/>
      <point x="30.923076923076916" y="-5.0"/>
      <point x="58" y="-5" type="curve" smooth="yes"/>
      <point x="78.70588235294116" y="-5.0"/>
      <point x="89.48914056520843" y="-1.4759704073245397"/>
      <point x="106" y="2" type="curve"/>
      <point x="104" y="12"/>
      <point x="102" y="21"/>
      <point x="102" y="37" type="curve" smooth="yes"/>
      <point x="102" y="262.0"/>
      <point x="225" y="467"/>
      <point x="368" y="533" type="curve"/>
    </contour>
    <contour>
      <point x="302" y="649" type="curve" smooth="yes"/>
      <point x="275.0" y="649.0"/>
      <point x="240" y="626"/>
      <point x="240" y="590" type="curve"/>
      <point x="267" y="578"/>
      <point x="290" y="554"/>
      <point x="300" y="529" type="curve"/>
      <point x="379" y="486"/>
      <point x="418" y="409"/>
      <point x="418" y="320" type="curve" smooth="yes"/>
      <point x="418" y="208"/>
      <point x="390" y="134"/>
      <point x="390" y="49" type="curve" smooth="yes"/>
      <point x="390" y="14"/>
      <point x="408" y="-7"/>
      <point x="437" y="-7" type="curve" smooth="yes"/>
      <point x="453" y="-7"/>
      <point x="475" y="-2"/>
      <point x="487" y="13" type="curve"/>
      <point x="463" y="102"/>
      <point x="505" y="274"/>
      <point x="505" y="349" type="curve" smooth="yes"/>
      <point x="505" y="450"/>
      <point x="448" y="527"/>
      <point x="366" y="584" type="curve"/>
      <point x="346" y="621"/>
      <point x="323" y="649"/>
    </contour>
  </outline>
</glyph>
<glyph name="uni1209" format="2">
  <advance width="766"/>
  <unicode hex="1209"/>
  <outline>
    <contour>
      <point x="306" y="561" type="line"/>
      <point x="108" y="445"/>
      <point x="14" y="238"/>
      <point x="14" y="33" type="curve" smooth="yes"/>
      <point x="14" y="7"/>
      <point x="31" y="-5"/>
      <point x="58" y="-5" type="curve" smooth="yes"/>
      <point x="79" y="-5"/>
      <point x="89" y="-1"/>
      <point x="106" y="2" type="curve"/>
      <point x="104" y="12"/>
      <point x="102" y="21"/>
      <point x="102" y="37" type="curve" smooth="yes"/>
      <point x="102" y="262"/>
      <point x="225" y="467"/>
      <point x="368" y="533" type="curve"/>
    </contour>
    <contour>
      <point x="302" y="649" type="curve" smooth="yes"/>
      <point x="275" y="649"/>
      <point x="240" y="626"/>
      <point x="240" y="590" type="curve"/>
      <point x="267" y="578"/>
      <point x="290" y="554"/>
      <point x="300" y="529" type="curve"/>
      <point x="379" y="486"/>
      <point x="418" y="409"/>
      <point x="418" y="320" type="curve" smooth="yes"/>
      <point x="418" y="208"/>
      <point x="390" y="134"/>
      <point x="390" y="49" type="curve" smooth="yes"/>
      <point x="390" y="14"/>
      <point x="408" y="-7"/>
      <point x="437" y="-7" type="curve" smooth="yes"/>
      <point x="453" y="-7"/>
      <point x="475" y="-2"/>
      <point x="487" y="13" type="curve"/>
      <point x="463" y="102"/>
      <point x="505" y="274"/>
      <point x="505" y="349" type="curve" smooth="yes"/>
      <point x="505" y="450"/>
      <point x="448" y="527"/>
      <point x="366" y="584" type="curve"/>
      <point x="346" y="621"/>
      <point x="323" y="649"/>
    </contour>
    <contour>
      <point x="474" y="421" type="curve"/>
      <point x="468" y="363" type="line"/>
      <point x="529" y="378"/>
      <point x="609" y="399"/>
      <point x="683" y="405" type="curve"/>
      <point x="612" y="425" type="line"/>
      <point x="611" y="355"/>
      <point x="637" y="327"/>
      <point x="744" y="345" type="curve"/>
      <point x="738" y="374"/>
      <point x="736" y="402"/>
      <point x="733" y="423" type="curve" smooth="yes"/>
      <point x="731" y="437"/>
      <point x="726" y="441"/>
      <point x="714" y="444" type="curve" smooth="yes"/>
      <point x="694" y="449"/>
      <point x="674" y="453"/>
      <point x="657" y="456" type="curve" smooth="yes"/>
      <point x="638" y="460"/>
      <point x="629" y="460"/>
      <point x="608" y="454" type="curve" smooth="yes"/>
      <point x="570" y="443"/>
      <point x="535" y="434"/>
    </contour>
  </outline>
</glyph>
<glyph name="uni120A" format="2">
  <advance width="925"/>
  <unicode hex="120A"/>
  <outline>
    <contour>
      <point x="634" y="78" type="curve" smooth="yes"/>
      <point x="634.0" y="177.0"/>
      <point x="658" y="275"/>
      <point x="658" y="379" type="curve" smooth="yes"/>
      <point x="658" y="539"/>
      <point x="488" y="619"/>
      <point x="371" y="619" type="curve" smooth="yes"/>
      <point x="328" y="619"/>
      <point x="314" y="601"/>
      <point x="314" y="575" type="curve" smooth="yes"/>
      <point x="314" y="565"/>
      <point x="318" y="551"/>
      <point x="326" y="543" type="curve"/>
      <point x="351" y="552"/>
      <point x="404" y="552"/>
      <point x="454" y="533" type="curve"/>
      <point x="422" y="559" type="line"/>
      <point x="230" y="469"/>
      <point x="86" y="283"/>
      <point x="86" y="48" type="curve" smooth="yes"/>
      <point x="86" y="10"/>
      <point x="109" y="-5"/>
      <point x="135" y="-5" type="curve" smooth="yes"/>
      <point x="151" y="-5"/>
      <point x="168" y="0"/>
      <point x="178" y="8" type="curve"/>
      <point x="174" y="18"/>
      <point x="170" y="43"/>
      <point x="170" y="62" type="curve" smooth="yes"/>
      <point x="170" y="353"/>
      <point x="398" y="524"/>
      <point x="465" y="524" type="curve" smooth="yes"/>
      <point x="506" y="524"/>
      <point x="580" y="464"/>
      <point x="580" y="369" type="curve" smooth="yes"/>
      <point x="580" y="276"/>
      <point x="549" y="141"/>
      <point x="549" y="51" type="curve" smooth="yes"/>
      <point x="549.0" y="14.0"/>
      <point x="574" y="-8"/>
      <point x="616" y="-8" type="curve" smooth="yes"/>
      <point x="646.0" y="-8.0"/>
      <point x="723.0" y="8.0"/>
      <point x="814" y="28" type="curve"/>
      <point x="808" y="51" type="line"/>
      <point x="807" y="-25"/>
      <point x="827" y="-49"/>
      <point x="882" y="-49" type="curve" smooth="yes"/>
      <point x="895" y="-49"/>
      <point x="913" y="-47"/>
      <point x="925" y="-43" type="curve"/>
      <point x="916" y="-19"/>
      <point x="912" y="24"/>
      <point x="915" y="51" type="curve"/>
      <point x="882" y="63"/>
      <point x="837" y="74"/>
      <point x="827" y="74" type="curve" smooth="yes"/>
      <point x="797.0" y="74.0"/>
      <point x="706.0" y="47.0"/>
      <point x="673" y="47" type="curve" smooth="yes"/>
      <point x="647" y="47"/>
      <point x="634" y="54"/>
    </contour>
  </outline>
</glyph>
<glyph name="uni120B" format="2">
  <advance width="758"/>
  <unicode hex="120B"/>
  <outline>
    <contour>
      <point x="422" y="561" type="line"/>
      <point x="187" y="546"/>
      <point x="72" y="360"/>
      <point x="72" y="233" type="curve" smooth="yes"/>
      <point x="72" y="207"/>
      <point x="89" y="195"/>
      <point x="116" y="195" type="curve" smooth="yes"/>
      <point x="137" y="195"/>
      <point x="147" y="199"/>
      <point x="164" y="202" type="curve"/>
      <point x="162" y="212"/>
      <point x="160" y="221"/>
      <point x="160" y="237" type="curve" smooth="yes"/>
      <point x="160" y="380"/>
      <point x="292" y="525"/>
      <point x="465" y="514" type="curve"/>
    </contour>
    <contour>
      <point x="405" y="514" type="curve"/>
      <point x="512" y="514"/>
      <point x="556" y="482"/>
      <point x="556" y="384" type="curve" smooth="yes"/>
      <point x="556" y="334"/>
      <point x="528" y="162"/>
      <point x="528" y="49" type="curve" smooth="yes"/>
      <point x="528" y="14"/>
      <point x="546" y="-7"/>
      <point x="575" y="-7" type="curve" smooth="yes"/>
      <point x="591" y="-7"/>
      <point x="613" y="-2"/>
      <point x="625" y="13" type="curve"/>
      <point x="595" y="122"/>
      <point x="634" y="275"/>
      <point x="634" y="410" type="curve" smooth="yes"/>
      <point x="634" y="512"/>
      <point x="568" y="580"/>
      <point x="452" y="580" type="curve" smooth="yes"/>
      <point x="398" y="580"/>
      <point x="394" y="540"/>
    </contour>
  </outline>
</glyph>
<glyph name="uni120C" format="2">
  <advance width="717"/>
  <unicode hex="120C"/>
  <outline>
    <contour>
      <point x="298" y="551" type="line"/>
      <point x="118" y="442"/>
      <point x="27" y="234"/>
      <point x="27" y="33" type="curve" smooth="yes"/>
      <point x="27" y="7"/>
      <point x="44" y="-5"/>
      <point x="71" y="-5" type="curve" smooth="yes"/>
      <point x="92" y="-5"/>
      <point x="102" y="-1"/>
      <point x="119" y="2" type="curve"/>
      <point x="117" y="12"/>
      <point x="115" y="21"/>
      <point x="115" y="37" type="curve" smooth="yes"/>
      <point x="115" y="262"/>
      <point x="221" y="460"/>
      <point x="360" y="523" type="curve"/>
    </contour>
    <contour>
      <point x="465" y="112" type="curve" smooth="yes"/>
      <point x="465" y="176"/>
      <point x="487" y="281"/>
      <point x="487" y="349" type="curve" smooth="yes"/>
      <point x="487" y="446"/>
      <point x="435" y="521"/>
      <point x="358" y="574" type="curve"/>
      <point x="335" y="617"/>
      <point x="308" y="649"/>
      <point x="284" y="649" type="curve" smooth="yes"/>
      <point x="257" y="649"/>
      <point x="222" y="626"/>
      <point x="222" y="590" type="curve"/>
      <point x="253" y="576"/>
      <point x="280" y="548"/>
      <point x="292" y="519" type="curve"/>
      <point x="365" y="479"/>
      <point x="400" y="405"/>
      <point x="400" y="320" type="curve" smooth="yes"/>
      <point x="400" y="232"/>
      <point x="376" y="171"/>
      <point x="376" y="105" type="curve" smooth="yes"/>
      <point x="376" y="14"/>
      <point x="459" y="-11"/>
      <point x="528" y="-11" type="curve" smooth="yes"/>
      <point x="628" y="-11"/>
      <point x="692" y="47"/>
      <point x="692" y="113" type="curve" smooth="yes"/>
      <point x="692" y="175"/>
      <point x="589" y="213"/>
      <point x="448" y="214" type="curve"/>
      <point x="438" y="165" type="line"/>
      <point x="555" y="170"/>
      <point x="606" y="144"/>
      <point x="606" y="104" type="curve" smooth="yes"/>
      <point x="606" y="76"/>
      <point x="580" y="43"/>
      <point x="530" y="43" type="curve" smooth="yes"/>
      <point x="488" y="43"/>
      <point x="465" y="63"/>
    </contour>
  </outline>
</glyph>
<glyph name="uni120D" format="2">
  <advance width="784"/>
  <unicode hex="120D"/>
  <outline>
    <contour>
      <point x="90" y="115" type="curve" smooth="yes"/>
      <point x="90" y="14"/>
      <point x="169" y="-11"/>
      <point x="235" y="-11" type="curve" smooth="yes"/>
      <point x="335" y="-11"/>
      <point x="399" y="47"/>
      <point x="399" y="113" type="curve" smooth="yes"/>
      <point x="399" y="175"/>
      <point x="296" y="213"/>
      <point x="155" y="214" type="curve"/>
      <point x="145" y="165" type="line"/>
      <point x="262" y="170"/>
      <point x="313" y="144"/>
      <point x="313" y="104" type="curve" smooth="yes"/>
      <point x="313" y="76"/>
      <point x="287" y="43"/>
      <point x="237" y="43" type="curve" smooth="yes"/>
      <point x="195" y="43"/>
      <point x="172" y="63"/>
      <point x="172" y="112" type="curve" smooth="yes"/>
      <point x="172" y="323"/>
      <point x="314" y="492"/>
      <point x="496" y="522" type="curve"/>
      <point x="448" y="561" type="line"/>
      <point x="207" y="505"/>
      <point x="90" y="289"/>
    </contour>
    <contour>
      <point x="431" y="514" type="curve"/>
      <point x="538" y="514"/>
      <point x="582" y="482"/>
      <point x="582" y="384" type="curve" smooth="yes"/>
      <point x="582" y="334"/>
      <point x="554" y="162"/>
      <point x="554" y="49" type="curve" smooth="yes"/>
      <point x="554" y="14"/>
      <point x="572" y="-7"/>
      <point x="601" y="-7" type="curve" smooth="yes"/>
      <point x="617" y="-7"/>
      <point x="639" y="-2"/>
      <point x="651" y="13" type="curve"/>
      <point x="621" y="122"/>
      <point x="660" y="275"/>
      <point x="660" y="410" type="curve" smooth="yes"/>
      <point x="660" y="512"/>
      <point x="594" y="580"/>
      <point x="478" y="580" type="curve" smooth="yes"/>
      <point x="424" y="580"/>
      <point x="420" y="540"/>
    </contour>
  </outline>
</glyph>
<glyph name="uni120E" format="2">
  <advance width="836"/>
  <unicode hex="120E"/>
  <outline>
    <contour>
      <point x="306" y="561" type="line"/>
      <point x="108" y="445"/>
      <point x="14" y="238"/>
      <point x="14" y="33" type="curve" smooth="yes"/>
      <point x="14" y="7"/>
      <point x="31" y="-5"/>
      <point x="58" y="-5" type="curve" smooth="yes"/>
      <point x="79" y="-5"/>
      <point x="89" y="-1"/>
      <point x="106" y="2" type="curve"/>
      <point x="104" y="12"/>
      <point x="102" y="21"/>
      <point x="102" y="37" type="curve" smooth="yes"/>
      <point x="102" y="262"/>
      <point x="225" y="467"/>
      <point x="368" y="533" type="curve"/>
    </contour>
    <contour>
      <point x="302" y="649" type="curve" smooth="yes"/>
      <point x="275" y="649"/>
      <point x="240" y="626"/>
      <point x="240" y="590" type="curve"/>
      <point x="267" y="578"/>
      <point x="290" y="554"/>
      <point x="300" y="529" type="curve"/>
      <point x="379" y="486"/>
      <point x="418" y="409"/>
      <point x="418" y="320" type="curve" smooth="yes"/>
      <point x="418" y="208"/>
      <point x="390" y="134"/>
      <point x="390" y="49" type="curve" smooth="yes"/>
      <point x="390" y="14"/>
      <point x="408" y="-7"/>
      <point x="437" y="-7" type="curve" smooth="yes"/>
      <point x="453" y="-7"/>
      <point x="475" y="-2"/>
      <point x="487" y="13" type="curve"/>
      <point x="463" y="102"/>
      <point x="505" y="274"/>
      <point x="505" y="349" type="curve" smooth="yes"/>
      <point x="505" y="450"/>
      <point x="448" y="527"/>
      <point x="366" y="584" type="curve"/>
      <point x="346" y="621"/>
      <point x="323" y="649"/>
    </contour>
    <contour>
      <point x="457" y="299" type="line"/>
      <point x="525" y="245"/>
      <point x="604" y="189"/>
      <point x="656" y="189" type="curve" smooth="yes"/>
      <point x="745" y="189"/>
      <point x="820" y="252"/>
      <point x="820" y="313" type="curve" smooth="yes"/>
      <point x="820" y="360"/>
      <point x="745" y="430"/>
      <point x="657" y="430" type="curve" smooth="yes"/>
      <point x="594" y="430"/>
      <point x="524" y="391"/>
      <point x="463" y="373" type="curve"/>
      <point x="478" y="326" type="line"/>
      <point x="533" y="351"/>
      <point x="592" y="374"/>
      <point x="647" y="374" type="curve" smooth="yes"/>
      <point x="701.0" y="374.0"/>
      <point x="734.0" y="339.69444444444446"/>
      <point x="734" y="309" type="curve" smooth="yes"/>
      <point x="734" y="281"/>
      <point x="711" y="253"/>
      <point x="668" y="253" type="curve" smooth="yes"/>
      <point x="624" y="253"/>
      <point x="593" y="264"/>
      <point x="470" y="346" type="curve"/>
    </contour>
  </outline>
</glyph>
<glyph name="uni120F" format="2">
  <advance width="774"/>
  <unicode hex="120F"/>
  <outline>
    <contour>
      <point x="216" y="543" type="curve"/>
      <point x="241" y="552"/>
      <point x="294" y="552"/>
      <point x="344" y="533" type="curve"/>
      <point x="312" y="559" type="line"/>
      <point x="177" y="513"/>
      <point x="76" y="391"/>
      <point x="76" y="248" type="curve" smooth="yes"/>
      <point x="76" y="210"/>
      <point x="99" y="195"/>
      <point x="125" y="195" type="curve" smooth="yes"/>
      <point x="141" y="195"/>
      <point x="158" y="200"/>
      <point x="168" y="208" type="curve"/>
      <point x="164" y="218"/>
      <point x="160" y="243"/>
      <point x="160" y="262" type="curve" smooth="yes"/>
      <point x="160" y="409"/>
      <point x="280" y="524"/>
      <point x="355" y="524" type="curve" smooth="yes"/>
      <point x="396" y="524"/>
      <point x="470" y="464"/>
      <point x="470" y="369" type="curve" smooth="yes"/>
      <point x="470" y="276"/>
      <point x="439" y="136"/>
      <point x="439" y="46" type="curve" smooth="yes"/>
      <point x="439" y="19"/>
      <point x="457" y="5"/>
      <point x="486" y="5" type="curve" smooth="yes"/>
      <point x="508" y="5"/>
      <point x="524" y="7"/>
      <point x="536" y="13" type="curve"/>
      <point x="502" y="95"/>
      <point x="548" y="275"/>
      <point x="548" y="379" type="curve" smooth="yes"/>
      <point x="548" y="539"/>
      <point x="378" y="619"/>
      <point x="261" y="619" type="curve" smooth="yes"/>
      <point x="218" y="619"/>
      <point x="204" y="601"/>
      <point x="204" y="575" type="curve" smooth="yes"/>
      <point x="204" y="565"/>
      <point x="208" y="551"/>
    </contour>
    <contour>
      <point x="338" y="-16" type="curve"/>
      <point x="382" y="-12"/>
      <point x="556" y="3"/>
      <point x="628" y="8" type="curve"/>
      <point x="622" y="31" type="line"/>
      <point x="621" y="-45"/>
      <point x="641" y="-69"/>
      <point x="696" y="-69" type="curve" smooth="yes"/>
      <point x="709" y="-69"/>
      <point x="727" y="-67"/>
      <point x="739" y="-63" type="curve"/>
      <point x="730" y="-39"/>
      <point x="726" y="4"/>
      <point x="729" y="31" type="curve"/>
      <point x="696" y="43"/>
      <point x="651" y="54"/>
      <point x="641" y="54" type="curve" smooth="yes"/>
      <point x="614" y="54"/>
      <point x="393" y="36"/>
      <point x="325" y="30" type="curve"/>
      <point x="260" y="38"/>
      <point x="224" y="1"/>
      <point x="224" y="-48" type="curve" smooth="yes"/>
      <point x="224" y="-78"/>
      <point x="245" y="-99"/>
      <point x="283" y="-99" type="curve" smooth="yes"/>
      <point x="294" y="-99"/>
      <point x="307" y="-97"/>
      <point x="321" y="-93" type="curve"/>
      <point x="317" y="-65"/>
      <point x="324" y="-30"/>
    </contour>
  </outline>
</glyph>
<glyph name="uni1210" format="2">
  <advance width="730"/>
  <unicode hex="1210"/>
  <outline>
    <contour>
      <point x="187" y="414"/>
      <point x="176" y="412"/>
      <point x="166" y="401" type="curve"/>
      <point x="97.65578420395082" y="294.6867754283679"/>
      <point x="24.0" y="121.66004962779157"/>
      <point x="24" y="27" type="curve" smooth="yes"/>
      <point x="24" y="8"/>
      <point x="37" y="-5"/>
      <point x="63" y="-5" type="curve" smooth="yes"/>
      <point x="86.72549019607843" y="-5.0"/>
      <point x="99.7341929124109" y="-2.297836961785669"/>
      <point x="118" y="2" type="curve"/>
      <point x="116" y="12"/>
      <point x="114" y="22"/>
      <point x="114" y="37" type="curve" smooth="yes"/>
      <point x="114.0" y="234"/>
      <point x="243.0" y="358"/>
      <point x="243" y="385" type="curve" smooth="yes"/>
      <point x="243.0" y="405.0"/>
      <point x="232.66666666666666" y="414.0"/>
      <point x="212" y="414" type="curve" smooth="yes"/>
    </contour>
    <contour>
      <point x="663" y="433" type="curve" smooth="yes"/>
      <point x="637" y="433"/>
      <point x="351" y="414"/>
      <point x="212" y="414" type="curve"/>
      <point x="196" y="343" type="line"/>
      <point x="271.6592618735053" y="367.53813898600174"/>
      <point x="565.9356435643565" y="379.0"/>
      <point x="610" y="379" type="curve" smooth="yes"/>
      <point x="621" y="379"/>
      <point x="628" y="375"/>
      <point x="628" y="360" type="curve" smooth="yes"/>
      <point x="628" y="245"/>
      <point x="554.0" y="81.33333333333334"/>
      <point x="554" y="41" type="curve" smooth="yes"/>
      <point x="554" y="27"/>
      <point x="558" y="15"/>
      <point x="585" y="15" type="curve" smooth="yes"/>
      <point x="608" y="15"/>
      <point x="629" y="20"/>
      <point x="641" y="35" type="curve"/>
      <point x="628.9398210014643" y="100.86713145354098"/>
      <point x="710.0" y="322.75515463917526"/>
      <point x="710" y="394" type="curve" smooth="yes"/>
      <point x="710" y="420"/>
      <point x="693" y="433"/>
    </contour>
    <contour>
      <point x="254" y="12" type="curve"/>
      <point x="309" y="15"/>
      <point x="360" y="15"/>
      <point x="389" y="8" type="curve"/>
      <point x="404" y="35"/>
      <point x="403" y="68"/>
      <point x="341" y="68" type="curve" smooth="yes"/>
      <point x="319" y="68"/>
      <point x="282" y="65"/>
      <point x="265" y="60" type="curve" smooth="yes"/>
      <point x="246" y="55"/>
      <point x="237" y="32"/>
    </contour>
    <contour>
      <point x="386" y="52" type="line"/>
      <point x="401" y="220"/>
      <point x="452" y="391"/>
      <point x="519" y="536" type="curve"/>
      <point x="539" y="547"/>
      <point x="551" y="553"/>
      <point x="551" y="569" type="curve" smooth="yes"/>
      <point x="551" y="596"/>
      <point x="485" y="627"/>
      <point x="436" y="627" type="curve" smooth="yes"/>
      <point x="408" y="627"/>
      <point x="396" y="603"/>
      <point x="402" y="585" type="curve"/>
      <point x="426" y="577"/>
      <point x="438" y="568"/>
      <point x="438" y="549" type="curve" smooth="yes"/>
      <point x="438" y="497"/>
      <point x="290" y="124"/>
      <point x="290" y="39" type="curve"/>
    </contour>
  </outline>
</glyph>
<glyph name="uni1211" format="2">
  <advance width="1083"/>
  <unicode hex="1211"/>
  <outline>
    <contour>
      <point x="354" y="12" type="curve"/>
      <point x="399" y="16"/>
      <point x="460" y="15"/>
      <point x="489" y="8" type="curve"/>
      <point x="507" y="31"/>
      <point x="503" y="68"/>
      <point x="456" y="68" type="curve" smooth="yes"/>
      <point x="418" y="68"/>
      <point x="379" y="65"/>
      <point x="360" y="60" type="curve"/>
      <point x="349" y="50"/>
      <point x="347" y="23"/>
    </contour>
    <contour>
      <point x="477" y="49" type="line"/>
      <point x="493" y="230"/>
      <point x="593" y="484"/>
      <point x="613" y="536" type="curve"/>
      <point x="632" y="541"/>
      <point x="646" y="547"/>
      <point x="646" y="562" type="curve" smooth="yes"/>
      <point x="646" y="592"/>
      <point x="583" y="627"/>
      <point x="539" y="627" type="curve" smooth="yes"/>
      <point x="508" y="627"/>
      <point x="496" y="605"/>
      <point x="502" y="585" type="curve"/>
      <point x="528" y="577"/>
      <point x="538" y="568"/>
      <point x="538" y="549" type="curve" smooth="yes"/>
      <point x="538" y="473"/>
      <point x="396" y="124"/>
      <point x="390" y="39" type="curve"/>
    </contour>
    <contour>
      <point x="237" y="410"/>
      <point x="74" y="167"/>
      <point x="74" y="37" type="curve" smooth="yes"/>
      <point x="74" y="10"/>
      <point x="89" y="-5"/>
      <point x="118" y="-5" type="curve" smooth="yes"/>
      <point x="137" y="-5"/>
      <point x="152" y="-2"/>
      <point x="166" y="3" type="curve"/>
      <point x="165" y="13"/>
      <point x="164" y="22"/>
      <point x="164" y="37" type="curve" smooth="yes"/>
      <point x="164" y="189"/>
      <point x="261" y="324"/>
      <point x="305" y="346" type="curve" smooth="yes"/>
      <point x="358" y="371"/>
      <point x="577" y="379"/>
      <point x="696" y="379" type="curve" smooth="yes"/>
      <point x="723" y="379"/>
      <point x="734" y="366"/>
      <point x="734" y="335" type="curve" smooth="yes"/>
      <point x="734" y="245"/>
      <point x="696" y="82"/>
      <point x="696" y="42" type="curve" smooth="yes"/>
      <point x="696" y="20"/>
      <point x="708" y="7"/>
      <point x="733" y="7" type="curve" smooth="yes"/>
      <point x="753" y="7"/>
      <point x="770" y="15"/>
      <point x="781" y="27" type="curve"/>
      <point x="764" y="114"/>
      <point x="810" y="294"/>
      <point x="810" y="369" type="curve" smooth="yes"/>
      <point x="810" y="416"/>
      <point x="785" y="433"/>
      <point x="744" y="433" type="curve" smooth="yes"/>
      <point x="702" y="433"/>
      <point x="456" y="417"/>
      <point x="317" y="400" type="curve"/>
      <point x="309" y="406"/>
      <point x="301" y="410"/>
      <point x="289" y="410" type="curve" smooth="yes"/>
    </contour>
    <contour>
      <point x="965" y="362" type="curve"/>
      <point x="918" y="381" type="line"/>
      <point x="918.0" y="312.0"/>
      <point x="928.5882352941177" y="276.0"/>
      <point x="972" y="276" type="curve" smooth="yes"/>
      <point x="987.5531914893617" y="276.0"/>
      <point x="1006" y="281"/>
      <point x="1015" y="294" type="curve"/>
      <point x="999.4109750457915" y="323.09951324785584"/>
      <point x="993.1650044996496" y="387.57751574877364"/>
      <point x="1007" y="436" type="curve"/>
      <point x="995.4539912695609" y="442.73517175942277"/>
      <point x="981.0" y="447.0"/>
      <point x="966" y="447" type="curve" smooth="yes"/>
      <point x="943.0222222222222" y="447.0"/>
      <point x="921.0007577114501" y="431.0162907961764"/>
      <point x="919" y="388" type="curve"/>
      <point x="958" y="415" type="line"/>
      <point x="887" y="395"/>
      <point x="850" y="385"/>
      <point x="785" y="371" type="curve"/>
      <point x="779" y="324" type="line"/>
      <point x="832" y="338"/>
      <point x="901" y="354"/>
    </contour>
  </outline>
</glyph>
<glyph name="uni1212" format="2">
  <advance width="1014"/>
  <unicode hex="1212"/>
  <outline>
    <contour>
      <point x="240" y="414"/>
      <point x="229" y="412"/>
      <point x="219" y="401" type="curve"/>
      <point x="151" y="295"/>
      <point x="77" y="122"/>
      <point x="77" y="27" type="curve" smooth="yes"/>
      <point x="77" y="8"/>
      <point x="90" y="-5"/>
      <point x="116" y="-5" type="curve" smooth="yes"/>
      <point x="140" y="-5"/>
      <point x="153" y="-2"/>
      <point x="171" y="2" type="curve"/>
      <point x="169" y="12"/>
      <point x="167" y="22"/>
      <point x="167" y="37" type="curve" smooth="yes"/>
      <point x="167" y="234"/>
      <point x="296" y="358"/>
      <point x="296" y="385" type="curve" smooth="yes"/>
      <point x="296" y="405"/>
      <point x="286" y="414"/>
      <point x="265" y="414" type="curve" smooth="yes"/>
    </contour>
    <contour>
      <point x="307" y="12" type="curve"/>
      <point x="362" y="15"/>
      <point x="413" y="15"/>
      <point x="442" y="8" type="curve"/>
      <point x="457" y="35"/>
      <point x="456" y="68"/>
      <point x="394" y="68" type="curve" smooth="yes"/>
      <point x="372" y="68"/>
      <point x="335" y="65"/>
      <point x="318" y="60" type="curve" smooth="yes"/>
      <point x="299" y="55"/>
      <point x="290" y="32"/>
    </contour>
    <contour>
      <point x="439" y="52" type="line"/>
      <point x="454" y="220"/>
      <point x="505" y="391"/>
      <point x="572" y="536" type="curve"/>
      <point x="592" y="547"/>
      <point x="604" y="553"/>
      <point x="604" y="569" type="curve" smooth="yes"/>
      <point x="604" y="596"/>
      <point x="538" y="627"/>
      <point x="489" y="627" type="curve" smooth="yes"/>
      <point x="461" y="627"/>
      <point x="449" y="603"/>
      <point x="455" y="585" type="curve"/>
      <point x="479" y="577"/>
      <point x="491" y="568"/>
      <point x="491" y="549" type="curve" smooth="yes"/>
      <point x="491" y="497"/>
      <point x="343" y="124"/>
      <point x="343" y="39" type="curve"/>
    </contour>
    <contour>
      <point x="593" y="48" type="curve" smooth="yes"/>
      <point x="593" y="14"/>
      <point x="617" y="-8"/>
      <point x="657" y="-8" type="curve" smooth="yes"/>
      <point x="690" y="-8"/>
      <point x="767" y="11"/>
      <point x="828" y="21" type="curve"/>
      <point x="830" y="-38"/>
      <point x="862" y="-64"/>
      <point x="970" y="-45" type="curve"/>
      <point x="964" y="-17"/>
      <point x="962" y="22"/>
      <point x="959" y="42" type="curve" smooth="yes"/>
      <point x="957" y="56"/>
      <point x="952" y="60"/>
      <point x="940" y="63" type="curve" smooth="yes"/>
      <point x="920" y="68"/>
      <point x="900" y="72"/>
      <point x="883" y="75" type="curve" smooth="yes"/>
      <point x="864" y="79"/>
      <point x="855" y="77"/>
      <point x="834" y="73" type="curve" smooth="yes"/>
      <point x="806" y="67"/>
      <point x="737" y="53"/>
      <point x="717" y="53" type="curve" smooth="yes"/>
      <point x="695" y="53"/>
      <point x="686" y="61"/>
      <point x="686" y="87" type="curve" smooth="yes"/>
      <point x="686" y="154"/>
      <point x="763" y="323"/>
      <point x="763" y="394" type="curve" smooth="yes"/>
      <point x="763" y="420"/>
      <point x="746" y="433"/>
      <point x="716" y="433" type="curve" smooth="yes"/>
      <point x="690" y="433"/>
      <point x="404" y="414"/>
      <point x="265" y="414" type="curve"/>
      <point x="249" y="343" type="line"/>
      <point x="325" y="368"/>
      <point x="619" y="379"/>
      <point x="663" y="379" type="curve" smooth="yes"/>
      <point x="674" y="379"/>
      <point x="681" y="375"/>
      <point x="681" y="360" type="curve" smooth="yes"/>
      <point x="681" y="268"/>
      <point x="593" y="109"/>
    </contour>
  </outline>
</glyph>
<glyph name="uni1213" format="2">
  <advance width="818"/>
  <unicode hex="1213"/>
  <outline>
    <contour>
      <point x="207" y="414"/>
      <point x="196" y="412"/>
      <point x="186" y="401" type="curve"/>
      <point x="129" y="326"/>
      <point x="69" y="204"/>
      <point x="69" y="157" type="curve" smooth="yes"/>
      <point x="69" y="138"/>
      <point x="82" y="125"/>
      <point x="108" y="125" type="curve" smooth="yes"/>
      <point x="132" y="125"/>
      <point x="145" y="128"/>
      <point x="163" y="134" type="curve"/>
      <point x="163" y="242"/>
      <point x="263" y="365"/>
      <point x="263" y="385" type="curve" smooth="yes"/>
      <point x="263" y="405"/>
      <point x="253" y="414"/>
      <point x="232" y="414" type="curve" smooth="yes"/>
    </contour>
    <contour>
      <point x="683" y="433" type="curve" smooth="yes"/>
      <point x="657" y="433"/>
      <point x="371" y="414"/>
      <point x="232" y="414" type="curve"/>
      <point x="216" y="343" type="line"/>
      <point x="292" y="368"/>
      <point x="586" y="379"/>
      <point x="630" y="379" type="curve" smooth="yes"/>
      <point x="641" y="379"/>
      <point x="648" y="375"/>
      <point x="648" y="360" type="curve" smooth="yes"/>
      <point x="648" y="245"/>
      <point x="574" y="81"/>
      <point x="574" y="41" type="curve" smooth="yes"/>
      <point x="574" y="27"/>
      <point x="578" y="15"/>
      <point x="605" y="15" type="curve" smooth="yes"/>
      <point x="628" y="15"/>
      <point x="649" y="20"/>
      <point x="661" y="35" type="curve"/>
      <point x="649" y="101"/>
      <point x="730" y="323"/>
      <point x="730" y="394" type="curve" smooth="yes"/>
      <point x="730" y="420"/>
      <point x="713" y="433"/>
    </contour>
    <contour>
      <point x="425" y="146" type="curve"/>
      <point x="421" y="245"/>
      <point x="485" y="419"/>
      <point x="539" y="536" type="curve"/>
      <point x="559" y="547"/>
      <point x="571" y="553"/>
      <point x="571" y="569" type="curve" smooth="yes"/>
      <point x="571" y="596"/>
      <point x="505" y="627"/>
      <point x="456" y="627" type="curve" smooth="yes"/>
      <point x="428" y="627"/>
      <point x="416" y="603"/>
      <point x="422" y="585" type="curve"/>
      <point x="446" y="577"/>
      <point x="458" y="568"/>
      <point x="458" y="549" type="curve" smooth="yes"/>
      <point x="458" y="507"/>
      <point x="329" y="231"/>
      <point x="329" y="149" type="curve" smooth="yes"/>
      <point x="329" y="127"/>
      <point x="346" y="116"/>
      <point x="367" y="117" type="curve" smooth="yes"/>
      <point x="388" y="118"/>
      <point x="412" y="128"/>
    </contour>
  </outline>
</glyph>
<glyph name="uni1214" format="2">
  <advance width="1193"/>
  <unicode hex="1214"/>
  <outline>
    <contour>
      <point x="240" y="414"/>
      <point x="229" y="412"/>
      <point x="219" y="401" type="curve"/>
      <point x="151" y="295"/>
      <point x="77" y="122"/>
      <point x="77" y="27" type="curve" smooth="yes"/>
      <point x="77" y="8"/>
      <point x="90" y="-5"/>
      <point x="116" y="-5" type="curve" smooth="yes"/>
      <point x="140" y="-5"/>
      <point x="153" y="-2"/>
      <point x="171" y="2" type="curve"/>
      <point x="169" y="12"/>
      <point x="167" y="22"/>
      <point x="167" y="37" type="curve" smooth="yes"/>
      <point x="167" y="234"/>
      <point x="296" y="358"/>
      <point x="296" y="385" type="curve" smooth="yes"/>
      <point x="296" y="405"/>
      <point x="286" y="414"/>
      <point x="265" y="414" type="curve" smooth="yes"/>
    </contour>
    <contour>
      <point x="716" y="433" type="curve" smooth="yes"/>
      <point x="690" y="433"/>
      <point x="404" y="414"/>
      <point x="265" y="414" type="curve"/>
      <point x="249" y="343" type="line"/>
      <point x="325" y="368"/>
      <point x="619" y="379"/>
      <point x="663" y="379" type="curve" smooth="yes"/>
      <point x="674" y="379"/>
      <point x="681" y="375"/>
      <point x="681" y="360" type="curve" smooth="yes"/>
      <point x="681" y="245"/>
      <point x="607" y="81"/>
      <point x="607" y="41" type="curve" smooth="yes"/>
      <point x="607" y="27"/>
      <point x="611" y="15"/>
      <point x="638" y="15" type="curve" smooth="yes"/>
      <point x="661" y="15"/>
      <point x="682" y="20"/>
      <point x="694" y="35" type="curve"/>
      <point x="682" y="101"/>
      <point x="763" y="323"/>
      <point x="763" y="394" type="curve" smooth="yes"/>
      <point x="763" y="420"/>
      <point x="746" y="433"/>
    </contour>
    <contour>
      <point x="307" y="12" type="curve"/>
      <point x="362" y="15"/>
      <point x="413" y="15"/>
      <point x="442" y="8" type="curve"/>
      <point x="457" y="35"/>
      <point x="456" y="68"/>
      <point x="394" y="68" type="curve" smooth="yes"/>
      <point x="372" y="68"/>
      <point x="335" y="65"/>
      <point x="318" y="60" type="curve" smooth="yes"/>
      <point x="299" y="55"/>
      <point x="290" y="32"/>
    </contour>
    <contour>
      <point x="439" y="52" type="line"/>
      <point x="454" y="220"/>
      <point x="505" y="391"/>
      <point x="572" y="536" type="curve"/>
      <point x="592" y="547"/>
      <point x="604" y="553"/>
      <point x="604" y="569" type="curve" smooth="yes"/>
      <point x="604" y="596"/>
      <point x="538" y="627"/>
      <point x="489" y="627" type="curve" smooth="yes"/>
      <point x="461" y="627"/>
      <point x="449" y="603"/>
      <point x="455" y="585" type="curve"/>
      <point x="479" y="577"/>
      <point x="491" y="568"/>
      <point x="491" y="549" type="curve" smooth="yes"/>
      <point x="491" y="497"/>
      <point x="343" y="124"/>
      <point x="343" y="39" type="curve"/>
    </contour>
    <contour>
      <point x="788" y="327" type="line"/>
      <point x="861" y="235"/>
      <point x="919" y="189"/>
      <point x="965" y="189" type="curve" smooth="yes"/>
      <point x="1054" y="189"/>
      <point x="1129" y="252"/>
      <point x="1129" y="313" type="curve" smooth="yes"/>
      <point x="1129" y="360"/>
      <point x="1054" y="430"/>
      <point x="966" y="430" type="curve" smooth="yes"/>
      <point x="882" y="430"/>
      <point x="790" y="383"/>
      <point x="708" y="346" type="curve"/>
      <point x="723" y="291" type="line"/>
      <point x="803" y="327"/>
      <point x="880" y="374"/>
      <point x="956" y="374" type="curve" smooth="yes"/>
      <point x="1010" y="374"/>
      <point x="1043" y="340"/>
      <point x="1043" y="309" type="curve" smooth="yes"/>
      <point x="1043" y="281"/>
      <point x="1020" y="253"/>
      <point x="977" y="253" type="curve" smooth="yes"/>
      <point x="949" y="253"/>
      <point x="914" y="281"/>
      <point x="853" y="363" type="curve"/>
    </contour>
  </outline>
</glyph>
<glyph name="uni1215" format="2">
  <advance width="837"/>
  <unicode hex="1215"/>
  <outline>
    <contour>
      <point x="228" y="372"/>
      <point x="217" y="370"/>
      <point x="207" y="359" type="curve"/>
      <point x="145" y="263"/>
      <point x="74" y="111"/>
      <point x="74" y="27" type="curve" smooth="yes"/>
      <point x="74" y="8"/>
      <point x="87" y="-5"/>
      <point x="113" y="-5" type="curve" smooth="yes"/>
      <point x="137" y="-5"/>
      <point x="150" y="-2"/>
      <point x="168" y="2" type="curve"/>
      <point x="166" y="12"/>
      <point x="164" y="22"/>
      <point x="164" y="37" type="curve" smooth="yes"/>
      <point x="164" y="210"/>
      <point x="284" y="319"/>
      <point x="284" y="343" type="curve" smooth="yes"/>
      <point x="284" y="363"/>
      <point x="274" y="372"/>
      <point x="253" y="372" type="curve" smooth="yes"/>
    </contour>
    <contour>
      <point x="704" y="391" type="curve" smooth="yes"/>
      <point x="678" y="391"/>
      <point x="392" y="372"/>
      <point x="253" y="372" type="curve"/>
      <point x="237" y="301" type="line"/>
      <point x="313" y="326"/>
      <point x="607" y="337"/>
      <point x="651" y="337" type="curve" smooth="yes"/>
      <point x="662" y="337"/>
      <point x="669" y="333"/>
      <point x="669" y="318" type="curve" smooth="yes"/>
      <point x="669" y="218"/>
      <point x="604" y="76"/>
      <point x="604" y="41" type="curve" smooth="yes"/>
      <point x="604" y="27"/>
      <point x="608" y="15"/>
      <point x="635" y="15" type="curve" smooth="yes"/>
      <point x="658" y="15"/>
      <point x="679" y="20"/>
      <point x="691" y="35" type="curve"/>
      <point x="680" y="93"/>
      <point x="751" y="289"/>
      <point x="751" y="352" type="curve" smooth="yes"/>
      <point x="751" y="378"/>
      <point x="734" y="391"/>
    </contour>
    <contour>
      <point x="304" y="12" type="curve"/>
      <point x="359" y="15"/>
      <point x="410" y="15"/>
      <point x="439" y="8" type="curve"/>
      <point x="454" y="35"/>
      <point x="453" y="68"/>
      <point x="391" y="68" type="curve" smooth="yes"/>
      <point x="369" y="68"/>
      <point x="332" y="65"/>
      <point x="315" y="60" type="curve" smooth="yes"/>
      <point x="296" y="55"/>
      <point x="287" y="32"/>
    </contour>
    <contour>
      <point x="447" y="411" type="curve" smooth="yes"/>
      <point x="447" y="373"/>
      <point x="340" y="101"/>
      <point x="340" y="39" type="curve"/>
      <point x="436" y="52" type="line"/>
      <point x="448" y="185"/>
      <point x="532" y="403"/>
      <point x="532" y="445" type="curve" smooth="yes"/>
      <point x="532" y="465"/>
      <point x="521" y="476"/>
      <point x="488" y="476" type="curve" smooth="yes"/>
      <point x="442" y="476"/>
      <point x="427" y="481"/>
      <point x="427" y="508" type="curve" smooth="yes"/>
      <point x="427" y="525"/>
      <point x="432" y="547"/>
      <point x="438" y="563" type="curve"/>
      <point x="458" y="574"/>
      <point x="475" y="586"/>
      <point x="475" y="602" type="curve" smooth="yes"/>
      <point x="475" y="629"/>
      <point x="411" y="660"/>
      <point x="364" y="660" type="curve" smooth="yes"/>
      <point x="336" y="660"/>
      <point x="324" y="636"/>
      <point x="330" y="618" type="curve"/>
      <point x="354" y="610"/>
      <point x="366" y="601"/>
      <point x="366" y="582" type="curve" smooth="yes"/>
      <point x="366" y="549"/>
      <point x="343" y="509"/>
      <point x="343" y="472" type="curve" smooth="yes"/>
      <point x="343" y="452"/>
      <point x="357" y="435"/>
      <point x="388" y="435" type="curve" smooth="yes"/>
      <point x="440" y="435"/>
      <point x="447" y="430"/>
    </contour>
  </outline>
</glyph>
<glyph name="uni1216" format="2">
  <advance width="840"/>
  <unicode hex="1216"/>
  <outline>
    <contour>
      <point x="248" y="404"/>
      <point x="237" y="402"/>
      <point x="227" y="391" type="curve"/>
      <point x="154" y="286"/>
      <point x="75" y="119"/>
      <point x="75" y="27" type="curve" smooth="yes"/>
      <point x="75" y="8"/>
      <point x="88" y="-5"/>
      <point x="114" y="-5" type="curve" smooth="yes"/>
      <point x="138" y="-5"/>
      <point x="151" y="-2"/>
      <point x="169" y="2" type="curve"/>
      <point x="167" y="12"/>
      <point x="165" y="22"/>
      <point x="165" y="37" type="curve" smooth="yes"/>
      <point x="165" y="228"/>
      <point x="304" y="349"/>
      <point x="304" y="375" type="curve" smooth="yes"/>
      <point x="304" y="395"/>
      <point x="294" y="404"/>
      <point x="273" y="404" type="curve" smooth="yes"/>
    </contour>
    <contour>
      <point x="714" y="433" type="curve" smooth="yes"/>
      <point x="689" y="433"/>
      <point x="409" y="404"/>
      <point x="273" y="404" type="curve"/>
      <point x="257" y="333" type="line"/>
      <point x="333" y="358"/>
      <point x="618" y="379"/>
      <point x="661" y="379" type="curve" smooth="yes"/>
      <point x="672" y="379"/>
      <point x="679" y="375"/>
      <point x="679" y="360" type="curve" smooth="yes"/>
      <point x="679" y="309"/>
      <point x="633" y="215"/>
      <point x="633" y="180" type="curve" smooth="yes"/>
      <point x="633" y="161"/>
      <point x="645" y="149"/>
      <point x="664" y="149" type="curve" smooth="yes"/>
      <point x="687" y="149"/>
      <point x="710" y="156"/>
      <point x="722" y="169" type="curve"/>
      <point x="715" y="225"/>
      <point x="761" y="341"/>
      <point x="761" y="394" type="curve" smooth="yes"/>
      <point x="761" y="420"/>
      <point x="744" y="433"/>
    </contour>
    <contour>
      <point x="467" y="163" type="curve"/>
      <point x="439" y="208"/>
      <point x="506" y="388"/>
      <point x="570" y="536" type="curve"/>
      <point x="590" y="547"/>
      <point x="602" y="553"/>
      <point x="602" y="569" type="curve" smooth="yes"/>
      <point x="602" y="596"/>
      <point x="536" y="627"/>
      <point x="487" y="627" type="curve" smooth="yes"/>
      <point x="459" y="627"/>
      <point x="447" y="603"/>
      <point x="453" y="585" type="curve"/>
      <point x="477" y="577"/>
      <point x="489" y="568"/>
      <point x="489" y="549" type="curve" smooth="yes"/>
      <point x="489" y="497"/>
      <point x="371" y="235"/>
      <point x="371" y="177" type="curve" smooth="yes"/>
      <point x="371" y="144"/>
      <point x="388" y="133"/>
      <point x="412" y="133" type="curve" smooth="yes"/>
      <point x="433" y="133"/>
      <point x="457" y="146"/>
    </contour>
  </outline>
</glyph>
<glyph name="uni1217" format="2">
  <advance width="907"/>
  <unicode hex="1217"/>
  <outline>
    <contour>
      <point x="207" y="414"/>
      <point x="196" y="412"/>
      <point x="186" y="401" type="curve"/>
      <point x="129" y="326"/>
      <point x="69" y="204"/>
      <point x="69" y="157" type="curve" smooth="yes"/>
      <point x="69" y="138"/>
      <point x="82" y="125"/>
      <point x="108" y="125" type="curve" smooth="yes"/>
      <point x="132" y="125"/>
      <point x="145" y="128"/>
      <point x="163" y="134" type="curve"/>
      <point x="163" y="242"/>
      <point x="253" y="365"/>
      <point x="253" y="385" type="curve" smooth="yes"/>
      <point x="253" y="405"/>
      <point x="253" y="414"/>
      <point x="232" y="414" type="curve" smooth="yes"/>
    </contour>
    <contour>
      <point x="683" y="433" type="curve" smooth="yes"/>
      <point x="657" y="433"/>
      <point x="371" y="414"/>
      <point x="232" y="414" type="curve"/>
      <point x="216" y="343" type="line"/>
      <point x="292" y="368"/>
      <point x="586" y="379"/>
      <point x="630" y="379" type="curve" smooth="yes"/>
      <point x="641" y="379"/>
      <point x="648" y="375"/>
      <point x="648" y="360" type="curve" smooth="yes"/>
      <point x="648" y="245"/>
      <point x="574" y="81"/>
      <point x="574" y="41" type="curve" smooth="yes"/>
      <point x="574" y="27"/>
      <point x="578" y="15"/>
      <point x="605" y="15" type="curve" smooth="yes"/>
      <point x="628" y="15"/>
      <point x="649" y="20"/>
      <point x="661" y="35" type="curve"/>
      <point x="649" y="101"/>
      <point x="730" y="323"/>
      <point x="730" y="394" type="curve" smooth="yes"/>
      <point x="730" y="420"/>
      <point x="713" y="433"/>
    </contour>
    <contour>
      <point x="425" y="146" type="curve"/>
      <point x="421" y="245"/>
      <point x="485" y="419"/>
      <point x="539" y="536" type="curve"/>
      <point x="559" y="547"/>
      <point x="571" y="553"/>
      <point x="571" y="569" type="curve" smooth="yes"/>
      <point x="571" y="596"/>
      <point x="505" y="627"/>
      <point x="456" y="627" type="curve" smooth="yes"/>
      <point x="428" y="627"/>
      <point x="416" y="603"/>
      <point x="422" y="585" type="curve"/>
      <point x="446" y="577"/>
      <point x="458" y="568"/>
      <point x="458" y="549" type="curve" smooth="yes"/>
      <point x="458" y="507"/>
      <point x="329" y="231"/>
      <point x="329" y="149" type="curve" smooth="yes"/>
      <point x="329" y="127"/>
      <point x="346" y="116"/>
      <point x="367" y="117" type="curve" smooth="yes"/>
      <point x="388" y="118"/>
      <point x="412" y="128"/>
    </contour>
    <contour>
      <point x="570" y="2"/>
      <point x="704" y="11"/>
      <point x="801" y="15" type="curve"/>
      <point x="735" y="26" type="line"/>
      <point x="734" y="-44"/>
      <point x="760" y="-72"/>
      <point x="867" y="-54" type="curve"/>
      <point x="861" y="-26"/>
      <point x="859" y="11"/>
      <point x="856" y="31" type="curve" smooth="yes"/>
      <point x="854" y="45"/>
      <point x="849" y="49"/>
      <point x="837" y="52" type="curve" smooth="yes"/>
      <point x="817" y="57"/>
      <point x="797" y="61"/>
      <point x="780" y="64" type="curve" smooth="yes"/>
      <point x="761" y="68"/>
      <point x="752" y="65"/>
      <point x="731" y="62" type="curve" smooth="yes"/>
      <point x="674" y="53"/>
      <point x="509" y="47"/>
      <point x="401" y="41" type="curve" smooth="yes"/>
      <point x="372" y="39"/>
      <point x="343" y="-17"/>
      <point x="343" y="-63" type="curve" smooth="yes"/>
      <point x="343" y="-87"/>
      <point x="381" y="-104"/>
      <point x="451" y="-93" type="curve"/>
      <point x="452" y="-61"/>
      <point x="463" y="-21"/>
      <point x="476" y="-1" type="curve"/>
    </contour>
  </outline>
</glyph>
<glyph name="uni1218" format="2">
  <advance width="747"/>
  <unicode hex="1218"/>
  <image fileName="A_000000000000001.png" xScale="2.835084645830554" yScale="2.8350846458305563" xOffset="1745.0" yOffset="-1"/>
  <outline>
    <contour>
      <point x="463" y="525" type="curve" smooth="yes"/>
      <point x="323" y="525"/>
      <point x="128" y="440"/>
      <point x="91" y="397" type="curve" smooth="yes"/>
      <point x="60" y="361"/>
      <point x="42" y="304"/>
      <point x="42" y="271" type="curve" smooth="yes"/>
      <point x="42" y="236"/>
      <point x="51" y="211"/>
      <point x="103" y="178" type="curve" smooth="yes"/>
      <point x="146" y="151"/>
      <point x="226" y="110"/>
      <point x="260" y="110" type="curve" smooth="yes"/>
      <point x="282" y="110"/>
      <point x="298" y="134"/>
      <point x="299" y="166" type="curve"/>
      <point x="276" y="172" type="line"/>
      <point x="333" y="286"/>
      <point x="370" y="357"/>
      <point x="396" y="401" type="curve"/>
      <point x="418" y="372"/>
      <point x="434" y="317"/>
      <point x="441" y="162" type="curve"/>
      <point x="460" y="153"/>
      <point x="493" y="154"/>
      <point x="509" y="168" type="curve" smooth="yes"/>
      <point x="514" y="174"/>
      <point x="512" y="184"/>
      <point x="507" y="204" type="curve"/>
      <point x="637" y="266"/>
      <point x="710" y="346"/>
      <point x="710" y="413" type="curve" smooth="yes"/>
      <point x="710" y="463"/>
      <point x="540" y="525"/>
    </contour>
    <contour>
      <point x="104" y="294" type="curve" smooth="yes"/>
      <point x="104" y="373"/>
      <point x="243" y="452"/>
      <point x="371" y="474" type="curve"/>
      <point x="305" y="315"/>
      <point x="230" y="200"/>
      <point x="206" y="200.0" type="curve" smooth="yes"/>
      <point x="174" y="200.0"/>
      <point x="104.0" y="233"/>
    </contour>
    <contour>
      <point x="453.0" y="449" type="curve" smooth="yes"/>
      <point x="453" y="464"/>
      <point x="460" y="473"/>
      <point x="481" y="473" type="curve" smooth="yes"/>
      <point x="533.0" y="473.0"/>
      <point x="641.0" y="428.0"/>
      <point x="641" y="381" type="curve" smooth="yes"/>
      <point x="641" y="345"/>
      <point x="594" y="301"/>
      <point x="496" y="266" type="curve"/>
      <point x="467" y="363"/>
      <point x="453" y="430"/>
    </contour>
  </outline>
</glyph>
<glyph name="uni1219" format="2">
  <advance width="972"/>
  <unicode hex="1219"/>
  <outline>
    <contour>
      <point x="671" y="411" type="curve"/>
      <point x="665" y="363" type="line"/>
      <point x="726" y="378"/>
      <point x="806" y="399"/>
      <point x="880" y="405" type="curve"/>
      <point x="819" y="425" type="line"/>
      <point x="818" y="355"/>
      <point x="842" y="328"/>
      <point x="941" y="345" type="curve"/>
      <point x="936" y="370"/>
      <point x="933" y="395"/>
      <point x="930" y="413" type="curve" smooth="yes"/>
      <point x="928" y="427"/>
      <point x="923" y="431"/>
      <point x="911" y="434" type="curve" smooth="yes"/>
      <point x="891" y="439"/>
      <point x="871" y="443"/>
      <point x="854" y="446" type="curve" smooth="yes"/>
      <point x="835" y="450"/>
      <point x="826" y="450"/>
      <point x="805" y="444" type="curve" smooth="yes"/>
      <point x="767" y="433"/>
      <point x="732" y="424"/>
    </contour>
    <contour>
      <point x="463" y="525" type="curve" smooth="yes"/>
      <point x="323" y="525"/>
      <point x="128" y="440"/>
      <point x="91" y="397" type="curve" smooth="yes"/>
      <point x="60" y="361"/>
      <point x="42" y="304"/>
      <point x="42" y="271" type="curve" smooth="yes"/>
      <point x="42" y="236"/>
      <point x="51" y="211"/>
      <point x="103" y="178" type="curve" smooth="yes"/>
      <point x="146" y="151"/>
      <point x="226" y="110"/>
      <point x="260" y="110" type="curve" smooth="yes"/>
      <point x="282" y="110"/>
      <point x="298" y="134"/>
      <point x="299" y="166" type="curve"/>
      <point x="276" y="172" type="line"/>
      <point x="333" y="286"/>
      <point x="370" y="357"/>
      <point x="396" y="401" type="curve"/>
      <point x="412" y="382"/>
      <point x="435" y="323"/>
      <point x="441" y="162" type="curve"/>
      <point x="460" y="153"/>
      <point x="493" y="154"/>
      <point x="509" y="168" type="curve" smooth="yes"/>
      <point x="514" y="174"/>
      <point x="512" y="184"/>
      <point x="507" y="204" type="curve"/>
      <point x="637" y="266"/>
      <point x="710" y="346"/>
      <point x="710" y="413" type="curve" smooth="yes"/>
      <point x="710" y="463"/>
      <point x="540" y="525"/>
    </contour>
    <contour>
      <point x="104" y="294" type="curve" smooth="yes"/>
      <point x="104" y="373"/>
      <point x="243" y="452"/>
      <point x="371" y="474" type="curve"/>
      <point x="305" y="315"/>
      <point x="230" y="200"/>
      <point x="206" y="200.0" type="curve" smooth="yes"/>
      <point x="174" y="200.0"/>
      <point x="104.0" y="233"/>
    </contour>
    <contour>
      <point x="453.0" y="449" type="curve" smooth="yes"/>
      <point x="453" y="464"/>
      <point x="460" y="473"/>
      <point x="481" y="473" type="curve" smooth="yes"/>
      <point x="533.0" y="473.0"/>
      <point x="641.0" y="428.0"/>
      <point x="641" y="381" type="curve" smooth="yes"/>
      <point x="641" y="345"/>
      <point x="594" y="301"/>
      <point x="496" y="266" type="curve"/>
      <point x="467" y="363"/>
      <point x="453" y="430"/>
    </contour>
  </outline>
</glyph>
<glyph name="uni121A" format="2">
  <advance width="762"/>
  <unicode hex="121A"/>
  <outline>
    <contour>
      <point x="720" y="509" type="curve" smooth="yes"/>
      <point x="720.0" y="569.84375"/>
      <point x="543.1174089068826" y="627.0"/>
      <point x="463" y="627" type="curve" smooth="yes"/>
      <point x="319.23655913978496" y="627.0"/>
      <point x="116.77554620708467" y="550.5769861325579"/>
      <point x="81" y="509" type="curve" smooth="yes"/>
      <point x="50.0" y="473.0"/>
      <point x="32.0" y="416.0"/>
      <point x="32" y="383" type="curve" smooth="yes"/>
      <point x="32.0" y="347.13186813186815"/>
      <point x="41.1930647058693" y="319.50631234141537"/>
      <point x="93" y="287" type="curve" smooth="yes"/>
      <point x="140.67214958483015" y="257.0663246792927"/>
      <point x="231.6687898089172" y="216.0"/>
      <point x="270" y="216" type="curve" smooth="yes"/>
      <point x="292.0" y="216.0"/>
      <point x="307.9073650213354" y="241.12831566139755"/>
      <point x="309" y="275" type="curve"/>
      <point x="286" y="284" type="line"/>
      <point x="337" y="398"/>
      <point x="375" y="470"/>
      <point x="422" y="539" type="curve"/>
      <point x="367" y="538" type="line"/>
      <point x="409" y="483"/>
      <point x="427" y="419"/>
      <point x="431" y="274" type="curve"/>
      <point x="441.1893190264228" y="268.9053404867886"/>
      <point x="456.3596547663308" y="268.3309404757881"/>
      <point x="471" y="267" type="curve"/>
      <point x="412" y="191"/>
      <point x="360" y="110"/>
      <point x="360" y="48" type="curve" smooth="yes"/>
      <point x="360" y="14"/>
      <point x="384" y="-8"/>
      <point x="424" y="-8" type="curve" smooth="yes"/>
      <point x="457.0662983425414" y="-8.0"/>
      <point x="533.6078517363522" y="10.61055952461345"/>
      <point x="595" y="21" type="curve"/>
      <point x="596.9415924355956" y="-38.218569285664586"/>
      <point x="629.2702845887575" y="-63.53414458688043"/>
      <point x="737" y="-45" type="curve"/>
      <point x="731.3742382772745" y="-16.87119138637255"/>
      <point x="729.3796709793513" y="21.721974123892146"/>
      <point x="726" y="42" type="curve" smooth="yes"/>
      <point x="724" y="56"/>
      <point x="719" y="60"/>
      <point x="707" y="63" type="curve" smooth="yes"/>
      <point x="687" y="68"/>
      <point x="667" y="72"/>
      <point x="650" y="75" type="curve" smooth="yes"/>
      <point x="631" y="79"/>
      <point x="622" y="77"/>
      <point x="601" y="73" type="curve" smooth="yes"/>
      <point x="573.0" y="67.0"/>
      <point x="504.0" y="53.0"/>
      <point x="484" y="53" type="curve" smooth="yes"/>
      <point x="462" y="53"/>
      <point x="453" y="61"/>
      <point x="453" y="87" type="curve" smooth="yes"/>
      <point x="453.0" y="206.17592592592592"/>
      <point x="720.0" y="433.7824074074074"/>
    </contour>
    <contour>
      <point x="452.0" y="543" type="curve" smooth="yes"/>
      <point x="452.0" y="556.0"/>
      <point x="459" y="564"/>
      <point x="475" y="564" type="curve" smooth="yes"/>
      <point x="533.0" y="564.0"/>
      <point x="636.0" y="526.3919469375485"/>
      <point x="636" y="494" type="curve" smooth="yes"/>
      <point x="636" y="465"/>
      <point x="575" y="396"/>
      <point x="510" y="316" type="curve"/>
      <point x="501.7170478526476" y="382.26361717881883"/>
      <point x="452.0" y="523.7004048582996"/>
    </contour>
    <contour>
      <point x="104" y="406" type="curve" smooth="yes"/>
      <point x="104.0" y="476.12359550561797"/>
      <point x="236.98859130438365" y="544.7856049298242"/>
      <point x="359" y="564" type="curve"/>
      <point x="324.5894822695041" y="482.15876864098277"/>
      <point x="227.4848484848485" y="310.0"/>
      <point x="204" y="310" type="curve" smooth="yes"/>
      <point x="161" y="310"/>
      <point x="104.0" y="354.0"/>
    </contour>
  </outline>
</glyph>
<glyph name="uni121B" format="2">
  <advance width="747"/>
  <unicode hex="121B"/>
  <outline>
    <contour>
      <point x="457" y="16" type="curve"/>
      <point x="446" y="27"/>
      <point x="442" y="48"/>
      <point x="442" y="61" type="curve" smooth="yes"/>
      <point x="442" y="211"/>
      <point x="710" y="439"/>
      <point x="710" y="509" type="curve" smooth="yes"/>
      <point x="710" y="575"/>
      <point x="540" y="637"/>
      <point x="463" y="637" type="curve" smooth="yes"/>
      <point x="323" y="637"/>
      <point x="128" y="552"/>
      <point x="91" y="509" type="curve" smooth="yes"/>
      <point x="60" y="473"/>
      <point x="42" y="416"/>
      <point x="42" y="383" type="curve" smooth="yes"/>
      <point x="42" y="349"/>
      <point x="52" y="324"/>
      <point x="103" y="292" type="curve" smooth="yes"/>
      <point x="146" y="265"/>
      <point x="226" y="224"/>
      <point x="260" y="224" type="curve" smooth="yes"/>
      <point x="282" y="224"/>
      <point x="298" y="247"/>
      <point x="299" y="278" type="curve"/>
      <point x="276" y="284" type="line"/>
      <point x="327" y="398"/>
      <point x="369" y="475"/>
      <point x="398" y="519" type="curve"/>
      <point x="424" y="470"/>
      <point x="455.0" y="316.78767284000696"/>
      <point x="455.0" y="271" type="curve" smooth="yes"/>
      <point x="455" y="234"/>
      <point x="360" y="124"/>
      <point x="360" y="48" type="curve" smooth="yes"/>
      <point x="360" y="11"/>
      <point x="377" y="-8"/>
      <point x="414" y="-8" type="curve" smooth="yes"/>
      <point x="432" y="-8"/>
      <point x="448" y="2"/>
    </contour>
    <contour>
      <point x="450.0" y="562" type="curve" smooth="yes"/>
      <point x="450" y="575"/>
      <point x="458.71345521895154" y="585.0"/>
      <point x="475" y="585" type="curve" smooth="yes"/>
      <point x="556.2573961526418" y="585.0"/>
      <point x="641.0" y="536.1093289425718"/>
      <point x="641" y="494" type="curve" smooth="yes"/>
      <point x="641" y="464"/>
      <point x="580" y="400"/>
      <point x="513" y="319" type="curve"/>
      <point x="486" y="392"/>
      <point x="450.0" y="514.0"/>
    </contour>
    <contour>
      <point x="104" y="406" type="curve" smooth="yes"/>
      <point x="104" y="486"/>
      <point x="242" y="564"/>
      <point x="369" y="585" type="curve"/>
      <point x="332" y="496"/>
      <point x="224" y="304"/>
      <point x="196" y="304" type="curve" smooth="yes"/>
      <point x="156" y="304"/>
      <point x="104.0" y="350.0"/>
    </contour>
  </outline>
</glyph>
<glyph name="uni121C" format="2">
  <advance width="763"/>
  <unicode hex="121C"/>
  <outline>
    <contour>
      <point x="709" y="113" type="curve" smooth="yes"/>
      <point x="709.0" y="167.80769230769232"/>
      <point x="672.2015195552681" y="204.37094760818252"/>
      <point x="546" y="263" type="curve"/>
      <point x="624.3525628394402" y="361.7038778626715"/>
      <point x="720.0" y="461.85"/>
      <point x="720" y="509" type="curve" smooth="yes"/>
      <point x="720.0" y="569.84375"/>
      <point x="543.1174089068826" y="627.0"/>
      <point x="463" y="627" type="curve" smooth="yes"/>
      <point x="319.23655913978496" y="627.0"/>
      <point x="116.77554620708463" y="550.5769861325577"/>
      <point x="81" y="509" type="curve" smooth="yes"/>
      <point x="50.0" y="473.0"/>
      <point x="32.0" y="416.0"/>
      <point x="32" y="383" type="curve" smooth="yes"/>
      <point x="32.0" y="347.75"/>
      <point x="40.99416265747325" y="321.63111362668343"/>
      <point x="93" y="289" type="curve" smooth="yes"/>
      <point x="138.52989690849512" y="260.41146008071235"/>
      <point x="223.8343949044586" y="219.0"/>
      <point x="260" y="219" type="curve" smooth="yes"/>
      <point x="287.64102564102564" y="219.0"/>
      <point x="307.8820550949494" y="243.57959775353333"/>
      <point x="309" y="276" type="curve"/>
      <point x="286" y="284" type="line"/>
      <point x="337" y="398"/>
      <point x="380" y="463"/>
      <point x="420" y="531" type="curve"/>
      <point x="372" y="532" type="line"/>
      <point x="403" y="466"/>
      <point x="442" y="374.0"/>
      <point x="431" y="274" type="curve"/>
      <point x="440.5216529198468" y="269.23917354007665"/>
      <point x="459.25714285714287" y="267.0"/>
      <point x="474" y="267" type="curve"/>
      <point x="411.96659822588026" y="199.79714807803703"/>
      <point x="353.0" y="129.0"/>
      <point x="353" y="83" type="curve" smooth="yes"/>
      <point x="353.0" y="14.0"/>
      <point x="439.43624161073825" y="-11.0"/>
      <point x="512" y="-11" type="curve" smooth="yes"/>
      <point x="632.096256684492" y="-11.0"/>
      <point x="709.0" y="47.0"/>
    </contour>
    <contour>
      <point x="453.0" y="546" type="curve" smooth="yes"/>
      <point x="453" y="558"/>
      <point x="463" y="565"/>
      <point x="479" y="565" type="curve" smooth="yes"/>
      <point x="549.2650602409639" y="565.0"/>
      <point x="641.0" y="523.6483516483516"/>
      <point x="641" y="494" type="curve" smooth="yes"/>
      <point x="641" y="464"/>
      <point x="577" y="393"/>
      <point x="510" y="315" type="curve"/>
      <point x="501.7137262514095" y="381.290189988724"/>
      <point x="453.0" y="513.7888446215139"/>
    </contour>
    <contour>
      <point x="104" y="406" type="curve" smooth="yes"/>
      <point x="104.0" y="477.06145251396646"/>
      <point x="240.21739657764292" y="544.3666561270119"/>
      <point x="365" y="565" type="curve"/>
      <point x="330.329308622649" y="481.6029315517775"/>
      <point x="260.1446358205737" y="370.0132651079708"/>
      <point x="210" y="300" type="curve"/>
      <point x="118" y="335"/>
      <point x="104" y="369"/>
    </contour>
    <contour>
      <point x="439" y="89" type="curve" smooth="yes"/>
      <point x="439.0" y="127.0"/>
      <point x="488.63157894736844" y="214.0"/>
      <point x="521" y="214" type="curve" smooth="yes"/>
      <point x="562.5779816513761" y="214.0"/>
      <point x="624.0" y="162.0"/>
      <point x="624" y="118" type="curve" smooth="yes"/>
      <point x="624.0" y="78.72727272727273"/>
      <point x="588.0" y="46.0"/>
      <point x="517" y="46" type="curve" smooth="yes"/>
      <point x="467.0" y="46.0"/>
      <point x="439" y="64"/>
    </contour>
  </outline>
</glyph>
<glyph name="uni121D" format="2">
  <advance width="968"/>
  <unicode hex="121D"/>
  <outline>
    <contour>
      <point x="206" y="268" type="line"/>
      <point x="128" y="183"/>
      <point x="85" y="93"/>
      <point x="85" y="38" type="curve" smooth="yes"/>
      <point x="85" y="-9"/>
      <point x="129" y="-22"/>
      <point x="183" y="9" type="curve"/>
      <point x="180" y="19"/>
      <point x="178" y="30"/>
      <point x="178" y="53" type="curve" smooth="yes"/>
      <point x="178" y="103"/>
      <point x="196" y="175"/>
      <point x="246" y="242" type="curve"/>
    </contour>
    <contour>
      <point x="608" y="615" type="curve" smooth="yes"/>
      <point x="449" y="615"/>
      <point x="225" y="533"/>
      <point x="186" y="487" type="curve" smooth="yes"/>
      <point x="155" y="451"/>
      <point x="137" y="394"/>
      <point x="137" y="361" type="curve" smooth="yes"/>
      <point x="137" y="312"/>
      <point x="154" y="285"/>
      <point x="238" y="233" type="curve" smooth="yes"/>
      <point x="286" y="203"/>
      <point x="377" y="159"/>
      <point x="415" y="159" type="curve" smooth="yes"/>
      <point x="437" y="159"/>
      <point x="453" y="186"/>
      <point x="454" y="223" type="curve"/>
      <point x="431" y="229" type="line"/>
      <point x="492" y="350"/>
      <point x="523" y="430"/>
      <point x="566" y="504" type="curve"/>
      <point x="523" y="505" type="line"/>
      <point x="565" y="449"/>
      <point x="578" y="389"/>
      <point x="586" y="222" type="curve"/>
      <point x="605" y="213"/>
      <point x="638" y="217"/>
      <point x="654" y="228" type="curve" smooth="yes"/>
      <point x="663" y="234"/>
      <point x="668" y="244"/>
      <point x="662" y="264" type="curve"/>
      <point x="815" y="337"/>
      <point x="905" y="420"/>
      <point x="905" y="493" type="curve" smooth="yes"/>
      <point x="905" y="548"/>
      <point x="700" y="615"/>
    </contour>
    <contour>
      <point x="210" y="384" type="curve" smooth="yes"/>
      <point x="210" y="464"/>
      <point x="354" y="530"/>
      <point x="505" y="554" type="curve"/>
      <point x="436" y="386"/>
      <point x="373" y="260"/>
      <point x="351" y="260" type="curve" smooth="yes"/>
      <point x="302" y="260"/>
      <point x="210" y="304"/>
    </contour>
    <contour>
      <point x="610" y="519" type="curve" smooth="yes"/>
      <point x="610" y="540"/>
      <point x="617" y="553"/>
      <point x="638" y="553" type="curve" smooth="yes"/>
      <point x="699" y="553"/>
      <point x="826" y="508"/>
      <point x="826" y="461" type="curve" smooth="yes"/>
      <point x="826" y="419"/>
      <point x="769" y="368"/>
      <point x="651" y="326" type="curve"/>
      <point x="621" y="428"/>
      <point x="610" y="499"/>
    </contour>
  </outline>
</glyph>
<glyph name="uni121E" format="2">
  <advance width="905"/>
  <unicode hex="121E"/>
  <outline>
    <contour>
      <point x="288" y="290" type="curve"/>
      <point x="239" y="290"/>
      <point x="147" y="334"/>
      <point x="147" y="414" type="curve" smooth="yes"/>
      <point x="147" y="494"/>
      <point x="291" y="560"/>
      <point x="442" y="584" type="curve"/>
      <point x="368" y="383"/>
      <point x="303" y="290"/>
    </contour>
    <contour>
      <point x="547" y="549" type="curve" smooth="yes"/>
      <point x="547" y="570"/>
      <point x="554" y="583"/>
      <point x="575" y="583" type="curve" smooth="yes"/>
      <point x="636" y="583"/>
      <point x="763" y="538"/>
      <point x="763" y="491" type="curve" smooth="yes"/>
      <point x="763" y="449"/>
      <point x="706" y="398"/>
      <point x="588" y="356" type="curve"/>
      <point x="558" y="458"/>
      <point x="547" y="529"/>
    </contour>
    <contour>
      <point x="369" y="275" type="curve" smooth="yes"/>
      <point x="428" y="391"/>
      <point x="462" y="463"/>
      <point x="503" y="534" type="curve"/>
      <point x="460" y="535" type="line"/>
      <point x="502" y="479"/>
      <point x="515" y="419"/>
      <point x="523" y="252" type="curve"/>
      <point x="542" y="243"/>
      <point x="575" y="247"/>
      <point x="591" y="258" type="curve" smooth="yes"/>
      <point x="600" y="264"/>
      <point x="605" y="274"/>
      <point x="599" y="294" type="curve"/>
      <point x="752" y="367"/>
      <point x="842" y="450"/>
      <point x="842" y="523" type="curve" smooth="yes"/>
      <point x="842" y="578"/>
      <point x="637" y="645"/>
      <point x="545" y="645" type="curve" smooth="yes"/>
      <point x="386" y="645"/>
      <point x="162" y="563"/>
      <point x="123" y="517" type="curve" smooth="yes"/>
      <point x="92" y="481"/>
      <point x="74" y="424"/>
      <point x="74" y="391" type="curve" smooth="yes"/>
      <point x="74" y="342"/>
      <point x="91" y="315"/>
      <point x="175" y="263" type="curve" smooth="yes"/>
      <point x="210" y="241"/>
      <point x="276" y="207"/>
      <point x="303" y="207" type="curve"/>
      <point x="281" y="249" type="line"/>
      <point x="231" y="158"/>
      <point x="198" y="85"/>
      <point x="198" y="40" type="curve" smooth="yes"/>
      <point x="198" y="-7"/>
      <point x="245" y="-21"/>
      <point x="301" y="11" type="curve"/>
      <point x="298" y="21"/>
      <point x="296" y="32"/>
      <point x="296" y="55" type="curve" smooth="yes"/>
      <point x="296" y="103"/>
      <point x="314" y="167"/>
    </contour>
  </outline>
</glyph>
<glyph name="uni121F" format="2">
  <advance width="747"/>
  <unicode hex="121F"/>
  <outline>
    <contour>
      <point x="373.2597418165759" y="-4.052735096467395"/>
      <point x="510.791829118642" y="5.0702678085741955"/>
      <point x="611" y="9" type="curve"/>
      <point x="555" y="26" type="line"/>
      <point x="554" y="-44"/>
      <point x="578" y="-71"/>
      <point x="677" y="-54" type="curve"/>
      <point x="672" y="-29"/>
      <point x="669" y="5"/>
      <point x="666" y="23" type="curve" smooth="yes"/>
      <point x="664" y="37"/>
      <point x="659" y="41"/>
      <point x="647" y="44" type="curve" smooth="yes"/>
      <point x="627" y="49"/>
      <point x="607" y="53"/>
      <point x="590" y="56" type="curve" smooth="yes"/>
      <point x="571" y="60"/>
      <point x="562" y="57"/>
      <point x="541" y="54" type="curve" smooth="yes"/>
      <point x="484" y="45"/>
      <point x="319" y="39.0"/>
      <point x="211" y="33" type="curve" smooth="yes"/>
      <point x="182" y="31"/>
      <point x="153" y="-21"/>
      <point x="153" y="-63" type="curve" smooth="yes"/>
      <point x="153.0" y="-87.0"/>
      <point x="187.15978615721002" y="-102.5760320764185"/>
      <point x="251" y="-93" type="curve"/>
      <point x="252" y="-61"/>
      <point x="263" y="-27"/>
      <point x="276" y="-7" type="curve"/>
    </contour>
    <contour>
      <point x="457" y="29" type="curve"/>
      <point x="446" y="40"/>
      <point x="442" y="48"/>
      <point x="442" y="61" type="curve" smooth="yes"/>
      <point x="442" y="211"/>
      <point x="710" y="439"/>
      <point x="710" y="509" type="curve" smooth="yes"/>
      <point x="710" y="575"/>
      <point x="540" y="637"/>
      <point x="463" y="637" type="curve" smooth="yes"/>
      <point x="323" y="637"/>
      <point x="128" y="552"/>
      <point x="91" y="509" type="curve" smooth="yes"/>
      <point x="60" y="473"/>
      <point x="42" y="416"/>
      <point x="42" y="383" type="curve" smooth="yes"/>
      <point x="42" y="349"/>
      <point x="52" y="324"/>
      <point x="103" y="292" type="curve" smooth="yes"/>
      <point x="146" y="265"/>
      <point x="226" y="224"/>
      <point x="260" y="224" type="curve" smooth="yes"/>
      <point x="282" y="224"/>
      <point x="298" y="247"/>
      <point x="299" y="278" type="curve"/>
      <point x="276" y="284" type="line"/>
      <point x="327" y="398"/>
      <point x="369" y="475"/>
      <point x="398" y="519" type="curve"/>
      <point x="424" y="470"/>
      <point x="455.0" y="317"/>
      <point x="455.0" y="271" type="curve" smooth="yes"/>
      <point x="455" y="234"/>
      <point x="360" y="124"/>
      <point x="360" y="48" type="curve" smooth="yes"/>
      <point x="360" y="11"/>
      <point x="377" y="5"/>
      <point x="403" y="5.0" type="curve" smooth="yes"/>
      <point x="430" y="5"/>
      <point x="448" y="15"/>
    </contour>
    <contour>
      <point x="450.0" y="562" type="curve" smooth="yes"/>
      <point x="450" y="575"/>
      <point x="459" y="585.0"/>
      <point x="475" y="585" type="curve" smooth="yes"/>
      <point x="556" y="585.0"/>
      <point x="641.0" y="536"/>
      <point x="641" y="494" type="curve" smooth="yes"/>
      <point x="641" y="464"/>
      <point x="580" y="400"/>
      <point x="513" y="319" type="curve"/>
      <point x="486" y="392"/>
      <point x="450.0" y="514.0"/>
    </contour>
    <contour>
      <point x="104" y="406" type="curve" smooth="yes"/>
      <point x="104" y="486"/>
      <point x="242" y="564"/>
      <point x="369" y="585" type="curve"/>
      <point x="332" y="496"/>
      <point x="224" y="304"/>
      <point x="196" y="304" type="curve" smooth="yes"/>
      <point x="156" y="304"/>
      <point x="104.0" y="350.0"/>
    </contour>
  </outline>
</glyph>
<glyph name="uni1221" format="2">
  <advance width="1136"/>
  <unicode hex="1221"/>
  <outline>
    <contour>
      <point x="415" y="188" type="curve" smooth="yes"/>
      <point x="454" y="188"/>
      <point x="469" y="206"/>
      <point x="475" y="228" type="curve" smooth="yes"/>
      <point x="505" y="347"/>
      <point x="572" y="472"/>
      <point x="572" y="556" type="curve" smooth="yes"/>
      <point x="572" y="584"/>
      <point x="546" y="595"/>
      <point x="523" y="595" type="curve" smooth="yes"/>
      <point x="485" y="595"/>
      <point x="461" y="575"/>
      <point x="456" y="547" type="curve"/>
      <point x="468" y="541"/>
      <point x="474" y="534"/>
      <point x="474" y="518" type="curve" smooth="yes"/>
      <point x="474" y="402"/>
      <point x="394" y="245"/>
      <point x="363" y="205" type="curve"/>
      <point x="367" y="195"/>
      <point x="387" y="188"/>
    </contour>
    <contour>
      <point x="209" y="456" type="line"/>
      <point x="229" y="467"/>
      <point x="246" y="479"/>
      <point x="246" y="495" type="curve" smooth="yes"/>
      <point x="246" y="522"/>
      <point x="182" y="553"/>
      <point x="135" y="553" type="curve" smooth="yes"/>
      <point x="107" y="553"/>
      <point x="95" y="529"/>
      <point x="101" y="511" type="curve"/>
      <point x="125" y="503"/>
      <point x="137" y="494"/>
      <point x="137" y="475" type="curve"/>
      <point x="137" y="426"/>
      <point x="101" y="288"/>
      <point x="101" y="237" type="curve" smooth="yes"/>
      <point x="101" y="182"/>
      <point x="136" y="148"/>
      <point x="197" y="148" type="curve" smooth="yes"/>
      <point x="285" y="148"/>
      <point x="410" y="180"/>
      <point x="479" y="279" type="curve"/>
      <point x="453" y="331" type="line"/>
      <point x="392" y="243"/>
      <point x="332" y="209"/>
      <point x="257" y="209" type="curve" smooth="yes"/>
      <point x="207" y="209"/>
      <point x="186" y="223"/>
      <point x="186" y="267" type="curve" smooth="yes"/>
      <point x="186" y="316"/>
      <point x="193" y="390"/>
      <point x="219" y="482" type="curve"/>
    </contour>
    <contour>
      <point x="720" y="179" type="curve" smooth="yes"/>
      <point x="754" y="179"/>
      <point x="766" y="201"/>
      <point x="779" y="241" type="curve" smooth="yes"/>
      <point x="803" y="314"/>
      <point x="872" y="472"/>
      <point x="872" y="556" type="curve" smooth="yes"/>
      <point x="872" y="582"/>
      <point x="855" y="595"/>
      <point x="828" y="595" type="curve" smooth="yes"/>
      <point x="790" y="595"/>
      <point x="766" y="575"/>
      <point x="761" y="547" type="curve"/>
      <point x="775" y="540"/>
      <point x="782" y="532"/>
      <point x="782" y="514" type="curve" smooth="yes"/>
      <point x="782" y="401"/>
      <point x="721" y="286"/>
      <point x="666" y="210" type="curve"/>
      <point x="673" y="192"/>
      <point x="688" y="179"/>
    </contour>
    <contour>
      <point x="745" y="334" type="line"/>
      <point x="731" y="304"/>
      <point x="705" y="287"/>
      <point x="677" y="287" type="curve" smooth="yes"/>
      <point x="605" y="287"/>
      <point x="566" y="354"/>
      <point x="533" y="481" type="curve"/>
      <point x="483" y="466" type="line"/>
      <point x="520" y="302"/>
      <point x="587" y="221"/>
      <point x="696" y="221" type="curve" smooth="yes"/>
      <point x="732" y="221"/>
      <point x="770" y="252"/>
      <point x="791" y="311" type="curve"/>
    </contour>
    <contour>
      <point x="810" y="421" type="curve"/>
      <point x="804" y="363" type="line"/>
      <point x="865" y="378"/>
      <point x="945" y="399"/>
      <point x="1019" y="405" type="curve"/>
      <point x="948" y="425" type="line"/>
      <point x="947" y="355"/>
      <point x="973" y="327"/>
      <point x="1080" y="345" type="curve"/>
      <point x="1074" y="374"/>
      <point x="1072" y="402"/>
      <point x="1069" y="423" type="curve" smooth="yes"/>
      <point x="1067" y="437"/>
      <point x="1062" y="441"/>
      <point x="1050" y="444" type="curve" smooth="yes"/>
      <point x="1030" y="449"/>
      <point x="1010" y="453"/>
      <point x="993" y="456" type="curve" smooth="yes"/>
      <point x="974" y="460"/>
      <point x="965" y="460"/>
      <point x="944" y="454" type="curve" smooth="yes"/>
      <point x="906" y="443"/>
      <point x="871" y="434"/>
    </contour>
  </outline>
</glyph>
<glyph name="uni1222" format="2">
  <advance width="1049"/>
  <unicode hex="1222"/>
  <outline>
    <contour>
      <point x="721" y="264" type="curve"/>
      <point x="711" y="286" type="line"/>
      <point x="669" y="178"/>
      <point x="633" y="101"/>
      <point x="633" y="51" type="curve" smooth="yes"/>
      <point x="633" y="14"/>
      <point x="658" y="-8"/>
      <point x="700" y="-8" type="curve" smooth="yes"/>
      <point x="730" y="-8"/>
      <point x="807" y="8"/>
      <point x="898" y="28" type="curve"/>
      <point x="892" y="51" type="line"/>
      <point x="891" y="-25"/>
      <point x="911" y="-49"/>
      <point x="966" y="-49" type="curve" smooth="yes"/>
      <point x="979" y="-49"/>
      <point x="997" y="-47"/>
      <point x="1009" y="-43" type="curve"/>
      <point x="1000" y="-19"/>
      <point x="996" y="24"/>
      <point x="999" y="51" type="curve"/>
      <point x="966" y="63"/>
      <point x="921" y="74"/>
      <point x="911" y="74" type="curve" smooth="yes"/>
      <point x="881" y="74"/>
      <point x="790" y="47"/>
      <point x="757" y="47" type="curve" smooth="yes"/>
      <point x="731" y="47"/>
      <point x="718" y="54"/>
      <point x="718" y="78" type="curve" smooth="yes"/>
      <point x="718" y="194"/>
      <point x="890" y="467"/>
      <point x="890" y="576" type="curve" smooth="yes"/>
      <point x="890" y="619"/>
      <point x="868" y="635"/>
      <point x="836" y="635" type="curve" smooth="yes"/>
      <point x="808" y="635"/>
      <point x="784" y="615"/>
      <point x="779" y="587" type="curve"/>
      <point x="793" y="580"/>
      <point x="800" y="560"/>
      <point x="800" y="530" type="curve" smooth="yes"/>
      <point x="800" y="474"/>
      <point x="748" y="339"/>
      <point x="680" y="339" type="curve"/>
      <point x="632" y="339"/>
      <point x="537" y="395"/>
      <point x="513" y="549" type="curve"/>
      <point x="472" y="550" type="line"/>
      <point x="472" y="448"/>
      <point x="393" y="249"/>
      <point x="267" y="249" type="curve" smooth="yes"/>
      <point x="212" y="249"/>
      <point x="181" y="279"/>
      <point x="181" y="336" type="curve" smooth="yes"/>
      <point x="181" y="384"/>
      <point x="190" y="437"/>
      <point x="211" y="518" type="curve"/>
      <point x="225" y="526"/>
      <point x="238" y="537"/>
      <point x="238" y="552" type="curve" smooth="yes"/>
      <point x="238" y="581"/>
      <point x="172" y="610"/>
      <point x="124" y="616" type="curve"/>
      <point x="108" y="606"/>
      <point x="102" y="593"/>
      <point x="102" y="581" type="curve" smooth="yes"/>
      <point x="102" y="561"/>
      <point x="117" y="549"/>
      <point x="135" y="543" type="curve"/>
      <point x="135" y="489"/>
      <point x="102" y="367"/>
      <point x="102" y="309" type="curve" smooth="yes"/>
      <point x="102" y="232"/>
      <point x="144" y="198"/>
      <point x="218" y="198" type="curve" smooth="yes"/>
      <point x="280" y="198"/>
      <point x="350" y="221"/>
      <point x="377" y="238" type="curve"/>
      <point x="387" y="232"/>
      <point x="399" y="228"/>
      <point x="413" y="228" type="curve" smooth="yes"/>
      <point x="444" y="228"/>
      <point x="456" y="242"/>
      <point x="469" y="268" type="curve" smooth="yes"/>
      <point x="486" y="302"/>
      <point x="557" y="532"/>
      <point x="557" y="565" type="curve" smooth="yes"/>
      <point x="557" y="598"/>
      <point x="534" y="615"/>
      <point x="507" y="615" type="curve" smooth="yes"/>
      <point x="480" y="615"/>
      <point x="463" y="603"/>
      <point x="455" y="591" type="curve"/>
      <point x="465" y="431"/>
      <point x="578" y="264"/>
    </contour>
  </outline>
</glyph>
<glyph name="uni1223" format="2">
  <advance width="968"/>
  <unicode hex="1223"/>
  <outline>
    <contour>
      <point x="730" y="23" type="curve"/>
      <point x="668" y="102"/>
      <point x="890" y="467"/>
      <point x="890" y="576" type="curve" smooth="yes"/>
      <point x="890" y="619"/>
      <point x="868" y="635"/>
      <point x="836" y="635" type="curve" smooth="yes"/>
      <point x="808" y="635"/>
      <point x="784" y="615"/>
      <point x="779" y="587" type="curve"/>
      <point x="793" y="580"/>
      <point x="800" y="560"/>
      <point x="800" y="530" type="curve" smooth="yes"/>
      <point x="800" y="474"/>
      <point x="748" y="339"/>
      <point x="680" y="339" type="curve"/>
      <point x="632" y="339"/>
      <point x="537" y="395"/>
      <point x="513" y="549" type="curve"/>
      <point x="472" y="550" type="line"/>
      <point x="472" y="448"/>
      <point x="393" y="249"/>
      <point x="267" y="249" type="curve" smooth="yes"/>
      <point x="212" y="249"/>
      <point x="181" y="279"/>
      <point x="181" y="336" type="curve" smooth="yes"/>
      <point x="181" y="384"/>
      <point x="190" y="437"/>
      <point x="211" y="518" type="curve"/>
      <point x="225" y="526"/>
      <point x="238" y="537"/>
      <point x="238" y="552" type="curve" smooth="yes"/>
      <point x="238" y="581"/>
      <point x="172" y="610"/>
      <point x="124" y="616" type="curve"/>
      <point x="108" y="606"/>
      <point x="102" y="593"/>
      <point x="102" y="581" type="curve" smooth="yes"/>
      <point x="102" y="561"/>
      <point x="117" y="549"/>
      <point x="135" y="543" type="curve"/>
      <point x="135" y="489"/>
      <point x="102" y="367"/>
      <point x="102" y="309" type="curve" smooth="yes"/>
      <point x="102" y="232"/>
      <point x="144" y="198"/>
      <point x="218" y="198" type="curve" smooth="yes"/>
      <point x="280" y="198"/>
      <point x="350" y="221"/>
      <point x="377" y="238" type="curve"/>
      <point x="387" y="232"/>
      <point x="399" y="228"/>
      <point x="413" y="228" type="curve" smooth="yes"/>
      <point x="444" y="228"/>
      <point x="456" y="242"/>
      <point x="469" y="268" type="curve" smooth="yes"/>
      <point x="486" y="302"/>
      <point x="557" y="532"/>
      <point x="557" y="565" type="curve" smooth="yes"/>
      <point x="557" y="598"/>
      <point x="534" y="615"/>
      <point x="507" y="615" type="curve" smooth="yes"/>
      <point x="480" y="615"/>
      <point x="463" y="603"/>
      <point x="455" y="591" type="curve"/>
      <point x="465" y="431"/>
      <point x="578" y="264"/>
      <point x="721" y="264" type="curve"/>
      <point x="711" y="286" type="line"/>
      <point x="669" y="178"/>
      <point x="633" y="81"/>
      <point x="633" y="40" type="curve" smooth="yes"/>
      <point x="633" y="13"/>
      <point x="648" y="-2"/>
      <point x="675" y="-2" type="curve" smooth="yes"/>
      <point x="702" y="-2"/>
      <point x="718" y="8"/>
    </contour>
  </outline>
</glyph>
<glyph name="uni1228" format="2">
  <advance width="444"/>
  <unicode hex="1228"/>
  <outline>
    <contour>
      <point x="370" y="97" type="line"/>
      <point x="317.9219874169821" y="80.66179997395517"/>
      <point x="255.0" y="71.0"/>
      <point x="206" y="71.0" type="curve" smooth="yes"/>
      <point x="148.1123595505618" y="71.0"/>
      <point x="114.0" y="88.0"/>
      <point x="114.0" y="137" type="curve" smooth="yes"/>
      <point x="114.0" y="260"/>
      <point x="296.0" y="491"/>
      <point x="296.0" y="600" type="curve" smooth="yes"/>
      <point x="296" y="627"/>
      <point x="282" y="637"/>
      <point x="261" y="637.0" type="curve" smooth="yes"/>
      <point x="240.7090909090909" y="637.0"/>
      <point x="215.47297133624016" y="630.8837828017441"/>
      <point x="199" y="621" type="curve"/>
      <point x="199.0" y="463.0"/>
      <point x="21.0" y="220.0"/>
      <point x="21" y="115" type="curve" smooth="yes"/>
      <point x="21.0" y="50.0"/>
      <point x="102.30252100840336" y="-2.0"/>
      <point x="150" y="-2" type="curve" smooth="yes"/>
      <point x="191" y="-2"/>
      <point x="318" y="28"/>
      <point x="382" y="47" type="curve"/>
    </contour>
    <contour>
      <point x="358.6666666666667" y="142.0"/>
      <point x="341.0" y="106.0"/>
      <point x="341.0" y="38" type="curve" smooth="yes"/>
      <point x="341.0" y="-3.0"/>
      <point x="355.4130434782609" y="-19.0"/>
      <point x="392" y="-19" type="curve" smooth="yes"/>
      <point x="413.5625" y="-19.0"/>
      <point x="445.28422275646545" y="-13.668058760632265"/>
      <point x="461" y="1" type="curve"/>
      <point x="443" y="30"/>
      <point x="437" y="68"/>
      <point x="444" y="130" type="curve"/>
      <point x="427.58614276048405" y="138.75405719440852"/>
      <point x="412.88888888888886" y="142.0"/>
      <point x="394" y="142.0" type="curve" smooth="yes"/>
    </contour>
  </outline>
</glyph>
<glyph name="uni122B" format="2">
  <advance width="746"/>
  <unicode hex="122B"/>
  <outline>
    <contour>
      <point x="420" y="267" type="curve"/>
      <point x="414" y="209" type="line"/>
      <point x="484" y="226"/>
      <point x="582" y="224"/>
      <point x="669" y="231" type="curve"/>
      <point x="598" y="251" type="line"/>
      <point x="597" y="181"/>
      <point x="623" y="153"/>
      <point x="730" y="171" type="curve"/>
      <point x="724" y="200"/>
      <point x="722" y="228"/>
      <point x="719" y="249" type="curve" smooth="yes"/>
      <point x="717" y="263"/>
      <point x="712" y="267"/>
      <point x="700" y="270" type="curve" smooth="yes"/>
      <point x="680" y="275"/>
      <point x="660" y="282"/>
      <point x="643" y="282" type="curve" smooth="yes"/>
      <point x="589" y="282"/>
      <point x="544" y="267"/>
    </contour>
    <contour>
      <point x="43" y="168" type="curve" smooth="yes"/>
      <point x="43.0" y="87.0"/>
      <point x="167.0" y="1.0"/>
      <point x="258" y="1" type="curve" smooth="yes"/>
      <point x="299" y="1"/>
      <point x="344" y="3"/>
      <point x="385" y="7" type="curve"/>
      <point x="392" y="-2"/>
      <point x="408" y="-9"/>
      <point x="428" y="-9" type="curve" smooth="yes"/>
      <point x="477" y="-9.0"/>
      <point x="500" y="11"/>
      <point x="474" y="81" type="curve"/>
      <point x="467" y="136"/>
      <point x="467" y="182"/>
      <point x="481" y="255" type="curve"/>
      <point x="462.265577596592" y="265.538112601917"/>
      <point x="443.18" y="267.0"/>
      <point x="420" y="267" type="curve" smooth="yes"/>
      <point x="392.41509433962267" y="267.0"/>
      <point x="378.17339455610386" y="227.10184329843693"/>
      <point x="377" y="64" type="curve"/>
      <point x="355" y="61"/>
      <point x="332" y="60"/>
      <point x="309" y="60" type="curve" smooth="yes"/>
      <point x="217.0" y="60.0"/>
      <point x="141.0" y="96.0"/>
      <point x="141" y="197" type="curve" smooth="yes"/>
      <point x="141.0" y="252.18088737201367"/>
      <point x="218.36488867525597" y="471.0249121120442"/>
      <point x="307" y="541" type="curve" smooth="yes"/>
      <point x="334.29459624467586" y="562.9873136415445"/>
      <point x="387" y="575"/>
      <point x="451" y="580" type="curve"/>
      <point x="444" y="513"/>
      <point x="487" y="489"/>
      <point x="577" y="504" type="curve"/>
      <point x="571" y="536"/>
      <point x="570" y="579"/>
      <point x="570" y="603" type="curve" smooth="yes"/>
      <point x="570" y="617"/>
      <point x="563" y="621"/>
      <point x="551" y="624" type="curve" smooth="yes"/>
      <point x="520.4248182446189" y="630.4856446147778"/>
      <point x="495.61538461538464" y="634.0"/>
      <point x="467" y="634" type="curve" smooth="yes"/>
      <point x="422.50248756218906" y="634.0"/>
      <point x="292.7137155419763" y="606.5623213361025"/>
      <point x="259" y="580" type="curve" smooth="yes"/>
      <point x="159.54927920424123" y="501.64488664576584"/>
      <point x="43.0" y="268.43213296398886"/>
    </contour>
  </outline>
</glyph>
<glyph name="uni122C" format="2">
  <advance width="792"/>
  <unicode hex="122C"/>
  <outline>
    <contour>
      <point x="311" y="15" type="curve" smooth="yes"/>
      <point x="408" y="15"/>
      <point x="497" y="78"/>
      <point x="581" y="78" type="curve" smooth="yes"/>
      <point x="622" y="78"/>
      <point x="647" y="42"/>
      <point x="647" y="9" type="curve" smooth="yes"/>
      <point x="647" y="-14"/>
      <point x="627" y="-37"/>
      <point x="591" y="-37" type="curve" smooth="yes"/>
      <point x="554" y="-37"/>
      <point x="514" y="-21"/>
      <point x="425" y="51" type="curve"/>
      <point x="377" y="33" type="line"/>
      <point x="453" y="-43"/>
      <point x="526" y="-101"/>
      <point x="579" y="-101" type="curve" smooth="yes"/>
      <point x="663" y="-101"/>
      <point x="733" y="-43"/>
      <point x="733" y="13" type="curve" smooth="yes"/>
      <point x="733" y="64"/>
      <point x="678" y="140"/>
      <point x="612" y="140" type="curve" smooth="yes"/>
      <point x="532" y="140"/>
      <point x="417" y="87"/>
      <point x="357" y="87" type="curve" smooth="yes"/>
      <point x="285" y="87"/>
      <point x="177" y="129"/>
      <point x="177" y="247" type="curve" smooth="yes"/>
      <point x="177" y="319"/>
      <point x="223" y="416"/>
      <point x="311" y="485" type="curve" smooth="yes"/>
      <point x="374" y="532"/>
      <point x="460" y="584"/>
      <point x="582" y="584" type="curve"/>
      <point x="521" y="605" type="line"/>
      <point x="501" y="519"/>
      <point x="543" y="487"/>
      <point x="643" y="504" type="curve"/>
      <point x="637" y="536"/>
      <point x="636" y="579"/>
      <point x="636" y="603" type="curve" smooth="yes"/>
      <point x="636" y="617"/>
      <point x="629" y="621"/>
      <point x="617" y="624" type="curve" smooth="yes"/>
      <point x="584" y="631"/>
      <point x="557" y="634"/>
      <point x="526" y="634" type="curve" smooth="yes"/>
      <point x="454" y="634"/>
      <point x="338" y="576"/>
      <point x="264" y="519" type="curve" smooth="yes"/>
      <point x="161" y="439"/>
      <point x="84" y="332"/>
      <point x="84" y="218" type="curve" smooth="yes"/>
      <point x="84" y="119"/>
      <point x="225" y="15"/>
    </contour>
  </outline>
</glyph>
<glyph name="uni122D" format="2">
  <advance width="665"/>
  <unicode hex="122D"/>
  <outline>
    <contour>
      <point x="451.6666666666667" y="167.0"/>
      <point x="434.0" y="131.0"/>
      <point x="434" y="63" type="curve" smooth="yes"/>
      <point x="434.0" y="22.0"/>
      <point x="448.4130434782609" y="6.0"/>
      <point x="485" y="6" type="curve" smooth="yes"/>
      <point x="506.9047619047619" y="6.0"/>
      <point x="538.2647295854152" y="11.313747613054286"/>
      <point x="554" y="26" type="curve"/>
      <point x="536" y="55"/>
      <point x="530" y="93"/>
      <point x="537" y="155" type="curve"/>
      <point x="520.560895264263" y="163.7675225257264"/>
      <point x="506.3181818181818" y="167.0"/>
      <point x="487" y="167" type="curve" smooth="yes"/>
    </contour>
    <contour>
      <point x="60" y="218" type="curve" smooth="yes"/>
      <point x="60.0" y="120.4390243902439"/>
      <point x="208.07547169811318" y="18.0"/>
      <point x="278" y="18" type="curve" smooth="yes"/>
      <point x="337" y="18.0"/>
      <point x="441" y="52"/>
      <point x="496" y="75" type="curve"/>
      <point x="485" y="121" type="line"/>
      <point x="451.0109016695393" y="103.49046449642934"/>
      <point x="401.0" y="90.0"/>
      <point x="351" y="90" type="curve" smooth="yes"/>
      <point x="274.0" y="90.0"/>
      <point x="158.0" y="131.26857142857142"/>
      <point x="158" y="247" type="curve" smooth="yes"/>
      <point x="158.0" y="328.5071942446043"/>
      <point x="206.65988140060966" y="444.51702047882816"/>
      <point x="303" y="520" type="curve" smooth="yes"/>
      <point x="353.537683941024" y="558.6464641901947"/>
      <point x="456.0" y="584.0"/>
      <point x="583" y="584" type="curve"/>
      <point x="522" y="605" type="line"/>
      <point x="501.9045155832841" y="518.5894170081216"/>
      <point x="544.017251768964" y="486.6116959598198"/>
      <point x="644" y="504" type="curve"/>
      <point x="638" y="536"/>
      <point x="637" y="579"/>
      <point x="637" y="603" type="curve" smooth="yes"/>
      <point x="637" y="617"/>
      <point x="630" y="621"/>
      <point x="618" y="624" type="curve" smooth="yes"/>
      <point x="585" y="631"/>
      <point x="558" y="634"/>
      <point x="527" y="634" type="curve" smooth="yes"/>
      <point x="452.07169811320756" y="634.0"/>
      <point x="317.0676100046096" y="603.7700793475873"/>
      <point x="255" y="559" type="curve" smooth="yes"/>
      <point x="139.72881819095886" y="475.0744904372771"/>
      <point x="60.0" y="348.0"/>
    </contour>
  </outline>
</glyph>
<glyph name="uni122F" format="2">
  <advance width="874"/>
  <unicode hex="122F"/>
  <outline>
    <contour>
      <point x="507" y="267" type="curve"/>
      <point x="501" y="209" type="line"/>
      <point x="571" y="226"/>
      <point x="669" y="224"/>
      <point x="756" y="231" type="curve"/>
      <point x="685" y="251" type="line"/>
      <point x="684" y="181"/>
      <point x="710" y="153"/>
      <point x="817" y="171" type="curve"/>
      <point x="811" y="200"/>
      <point x="809" y="228"/>
      <point x="806" y="249" type="curve" smooth="yes"/>
      <point x="804" y="263"/>
      <point x="799" y="267"/>
      <point x="787" y="270" type="curve" smooth="yes"/>
      <point x="767" y="275"/>
      <point x="747" y="282"/>
      <point x="730" y="282" type="curve" smooth="yes"/>
      <point x="676" y="282"/>
      <point x="631" y="267"/>
    </contour>
    <contour>
      <point x="352" y="612" type="line"/>
      <point x="279" y="533"/>
      <point x="130" y="291"/>
      <point x="130" y="168" type="curve" smooth="yes"/>
      <point x="130" y="87"/>
      <point x="254" y="1"/>
      <point x="345" y="1" type="curve" smooth="yes"/>
      <point x="386" y="1"/>
      <point x="431" y="3"/>
      <point x="472" y="7" type="curve"/>
      <point x="479" y="-2"/>
      <point x="495" y="-9"/>
      <point x="515" y="-9" type="curve" smooth="yes"/>
      <point x="564" y="-9"/>
      <point x="587" y="11"/>
      <point x="561" y="81" type="curve"/>
      <point x="554" y="136"/>
      <point x="554" y="182"/>
      <point x="568" y="255" type="curve"/>
      <point x="549" y="266"/>
      <point x="530" y="267"/>
      <point x="507" y="267" type="curve" smooth="yes"/>
      <point x="479" y="267"/>
      <point x="465" y="227"/>
      <point x="464" y="64" type="curve"/>
      <point x="442" y="61"/>
      <point x="419" y="60"/>
      <point x="396" y="60" type="curve" smooth="yes"/>
      <point x="304" y="60"/>
      <point x="225" y="96"/>
      <point x="225" y="197" type="curve" smooth="yes"/>
      <point x="225" y="308"/>
      <point x="363" y="533"/>
      <point x="438" y="609" type="curve"/>
    </contour>
    <contour>
      <point x="191" y="584" type="curve"/>
      <point x="249" y="589"/>
      <point x="478" y="601"/>
      <point x="572" y="608" type="curve"/>
      <point x="566" y="631" type="line"/>
      <point x="565" y="555"/>
      <point x="585" y="531"/>
      <point x="640" y="531" type="curve" smooth="yes"/>
      <point x="653" y="531"/>
      <point x="671" y="533"/>
      <point x="683" y="537" type="curve"/>
      <point x="674" y="561"/>
      <point x="670" y="604"/>
      <point x="673" y="631" type="curve"/>
      <point x="640" y="643"/>
      <point x="595" y="654"/>
      <point x="585" y="654" type="curve" smooth="yes"/>
      <point x="550" y="654"/>
      <point x="265" y="638"/>
      <point x="178" y="630" type="curve"/>
      <point x="113" y="638"/>
      <point x="77" y="601"/>
      <point x="77" y="552" type="curve" smooth="yes"/>
      <point x="77" y="522"/>
      <point x="98" y="501"/>
      <point x="136" y="501" type="curve" smooth="yes"/>
      <point x="147" y="501"/>
      <point x="160" y="503"/>
      <point x="174" y="507" type="curve"/>
      <point x="170" y="535"/>
      <point x="177" y="570"/>
    </contour>
  </outline>
</glyph>
<glyph name="uni1230" format="2">
  <advance width="718"/>
  <unicode hex="1230"/>
  <outline>
    <contour>
      <point x="245" y="533"/>
      <point x="223" y="531"/>
      <point x="208" y="518" type="curve"/>
      <point x="208" y="363"/>
      <point x="82" y="82"/>
      <point x="82" y="33" type="curve" smooth="yes"/>
      <point x="82" y="7"/>
      <point x="99" y="-5"/>
      <point x="126" y="-5" type="curve" smooth="yes"/>
      <point x="150" y="-5"/>
      <point x="163" y="-2"/>
      <point x="182" y="2" type="curve"/>
      <point x="180" y="12"/>
      <point x="178" y="21"/>
      <point x="178" y="37" type="curve" smooth="yes"/>
      <point x="178" y="120"/>
      <point x="297" y="428"/>
      <point x="297" y="504" type="curve" smooth="yes"/>
      <point x="297" y="524"/>
      <point x="288" y="533"/>
      <point x="270" y="533" type="curve" smooth="yes"/>
    </contour>
    <contour>
      <point x="578" y="555" type="curve" smooth="yes"/>
      <point x="551" y="555"/>
      <point x="341" y="536"/>
      <point x="194" y="536" type="curve" smooth="yes"/>
      <point x="163" y="536"/>
      <point x="146" y="518"/>
      <point x="146" y="496" type="curve" smooth="yes"/>
      <point x="146" y="476"/>
      <point x="156" y="461"/>
      <point x="169" y="455" type="curve"/>
      <point x="226" y="482"/>
      <point x="366" y="497"/>
      <point x="501" y="497" type="curve" smooth="yes"/>
      <point x="527" y="497"/>
      <point x="536" y="483"/>
      <point x="536" y="463" type="curve" smooth="yes"/>
      <point x="536" y="335"/>
      <point x="442" y="170"/>
      <point x="442" y="71" type="curve" smooth="yes"/>
      <point x="442" y="36"/>
      <point x="460" y="15"/>
      <point x="489" y="15" type="curve" smooth="yes"/>
      <point x="505" y="15"/>
      <point x="527" y="20"/>
      <point x="539" y="35" type="curve"/>
      <point x="511" y="140"/>
      <point x="628" y="441"/>
      <point x="628" y="504" type="curve" smooth="yes"/>
      <point x="628" y="537"/>
      <point x="612" y="555"/>
    </contour>
    <contour>
      <point x="450" y="528" type="line"/>
      <point x="460" y="558"/>
      <point x="472" y="585"/>
      <point x="485" y="606" type="curve"/>
      <point x="505" y="617"/>
      <point x="517" y="623"/>
      <point x="517" y="639" type="curve" smooth="yes"/>
      <point x="517" y="666"/>
      <point x="443" y="697"/>
      <point x="394" y="697" type="curve" smooth="yes"/>
      <point x="366" y="697"/>
      <point x="354" y="673"/>
      <point x="360" y="655" type="curve"/>
      <point x="384" y="647"/>
      <point x="396" y="638"/>
      <point x="396" y="619" type="curve" smooth="yes"/>
      <point x="396" y="603"/>
      <point x="388" y="569"/>
      <point x="376" y="528" type="curve"/>
    </contour>
  </outline>
</glyph>
<glyph name="uni1231" format="2">
  <advance width="899"/>
  <unicode hex="1231"/>
  <outline>
    <contour>
      <point x="245" y="533"/>
      <point x="223" y="531"/>
      <point x="208" y="518" type="curve"/>
      <point x="208" y="363"/>
      <point x="82" y="82"/>
      <point x="82" y="33" type="curve" smooth="yes"/>
      <point x="82" y="7"/>
      <point x="99" y="-5"/>
      <point x="126" y="-5" type="curve" smooth="yes"/>
      <point x="149" y="-5"/>
      <point x="161" y="-2"/>
      <point x="179" y="2" type="curve"/>
      <point x="177" y="12"/>
      <point x="175" y="21"/>
      <point x="175" y="37" type="curve" smooth="yes"/>
      <point x="175" y="120"/>
      <point x="294" y="428"/>
      <point x="294" y="504" type="curve" smooth="yes"/>
      <point x="294" y="524"/>
      <point x="286" y="533"/>
      <point x="270" y="533" type="curve" smooth="yes"/>
    </contour>
    <contour>
      <point x="575" y="555" type="curve" smooth="yes"/>
      <point x="548" y="555"/>
      <point x="340" y="536"/>
      <point x="194" y="536" type="curve" smooth="yes"/>
      <point x="163" y="536"/>
      <point x="146" y="518"/>
      <point x="146" y="496" type="curve" smooth="yes"/>
      <point x="146" y="476"/>
      <point x="156" y="461"/>
      <point x="169" y="455" type="curve"/>
      <point x="226" y="482"/>
      <point x="366" y="497"/>
      <point x="501" y="497" type="curve" smooth="yes"/>
      <point x="527" y="497"/>
      <point x="536" y="483"/>
      <point x="536" y="463" type="curve" smooth="yes"/>
      <point x="536" y="335"/>
      <point x="442" y="170"/>
      <point x="442" y="71" type="curve" smooth="yes"/>
      <point x="442" y="36"/>
      <point x="460" y="15"/>
      <point x="489" y="15" type="curve" smooth="yes"/>
      <point x="504" y="15"/>
      <point x="524" y="20"/>
      <point x="536" y="35" type="curve"/>
      <point x="508" y="140"/>
      <point x="625" y="441"/>
      <point x="625" y="504" type="curve" smooth="yes"/>
      <point x="625" y="537"/>
      <point x="609" y="555"/>
    </contour>
    <contour>
      <point x="450" y="528" type="line"/>
      <point x="460" y="558"/>
      <point x="472" y="585"/>
      <point x="485" y="606" type="curve"/>
      <point x="505" y="617"/>
      <point x="517" y="623"/>
      <point x="517" y="639" type="curve" smooth="yes"/>
      <point x="517" y="666"/>
      <point x="443" y="697"/>
      <point x="394" y="697" type="curve" smooth="yes"/>
      <point x="366" y="697"/>
      <point x="354" y="673"/>
      <point x="360" y="655" type="curve"/>
      <point x="384" y="647"/>
      <point x="396" y="638"/>
      <point x="396" y="619" type="curve" smooth="yes"/>
      <point x="396" y="603"/>
      <point x="388" y="569"/>
      <point x="376" y="528" type="curve"/>
    </contour>
    <contour>
      <point x="573" y="421" type="curve"/>
      <point x="567" y="363" type="line"/>
      <point x="628" y="378"/>
      <point x="708" y="399"/>
      <point x="782" y="405" type="curve"/>
      <point x="711" y="425" type="line"/>
      <point x="710" y="355"/>
      <point x="736" y="327"/>
      <point x="843" y="345" type="curve"/>
      <point x="837" y="374"/>
      <point x="835" y="402"/>
      <point x="832" y="423" type="curve" smooth="yes"/>
      <point x="830" y="437"/>
      <point x="825" y="441"/>
      <point x="813" y="444" type="curve" smooth="yes"/>
      <point x="793" y="449"/>
      <point x="773" y="453"/>
      <point x="756" y="456" type="curve" smooth="yes"/>
      <point x="737" y="460"/>
      <point x="728" y="460"/>
      <point x="707" y="454" type="curve" smooth="yes"/>
      <point x="669" y="443"/>
      <point x="634" y="434"/>
    </contour>
  </outline>
</glyph>
<glyph name="uni1233" format="2">
  <advance width="697"/>
  <unicode hex="1233"/>
  <outline>
    <contour>
      <point x="172" y="523"/>
      <point x="150" y="521"/>
      <point x="135" y="508" type="curve"/>
      <point x="113" y="421"/>
      <point x="89" y="292"/>
      <point x="89" y="243" type="curve" smooth="yes"/>
      <point x="89" y="217"/>
      <point x="106" y="205"/>
      <point x="133" y="205" type="curve" smooth="yes"/>
      <point x="156" y="205"/>
      <point x="168" y="208"/>
      <point x="186" y="212" type="curve"/>
      <point x="184" y="222"/>
      <point x="182" y="231"/>
      <point x="182" y="247" type="curve" smooth="yes"/>
      <point x="182" y="330"/>
      <point x="198" y="429"/>
      <point x="221" y="494" type="curve" smooth="yes"/>
      <point x="228" y="514"/>
      <point x="213" y="523"/>
      <point x="197" y="523" type="curve" smooth="yes"/>
    </contour>
    <contour>
      <point x="542" y="555" type="curve" smooth="yes"/>
      <point x="515" y="555"/>
      <point x="307" y="536"/>
      <point x="161" y="536" type="curve" smooth="yes"/>
      <point x="130" y="536"/>
      <point x="113" y="518"/>
      <point x="113" y="496" type="curve" smooth="yes"/>
      <point x="113" y="476"/>
      <point x="123" y="461"/>
      <point x="136" y="455" type="curve"/>
      <point x="193" y="482"/>
      <point x="333" y="497"/>
      <point x="468" y="497" type="curve" smooth="yes"/>
      <point x="494" y="497"/>
      <point x="503" y="483"/>
      <point x="503" y="463" type="curve" smooth="yes"/>
      <point x="503" y="335"/>
      <point x="438" y="150"/>
      <point x="438" y="51" type="curve" smooth="yes"/>
      <point x="438" y="16"/>
      <point x="456" y="-5"/>
      <point x="485" y="-5" type="curve" smooth="yes"/>
      <point x="500" y="-5"/>
      <point x="520" y="0"/>
      <point x="532" y="15" type="curve"/>
      <point x="504" y="120"/>
      <point x="592" y="441"/>
      <point x="592" y="504" type="curve" smooth="yes"/>
      <point x="592" y="537"/>
      <point x="576" y="555"/>
    </contour>
    <contour>
      <point x="387" y="528" type="line"/>
      <point x="397" y="558"/>
      <point x="409" y="585"/>
      <point x="422" y="606" type="curve"/>
      <point x="442" y="617"/>
      <point x="454" y="623"/>
      <point x="454" y="639" type="curve" smooth="yes"/>
      <point x="454" y="666"/>
      <point x="380" y="697"/>
      <point x="331" y="697" type="curve" smooth="yes"/>
      <point x="303" y="697"/>
      <point x="291" y="673"/>
      <point x="297" y="655" type="curve"/>
      <point x="321" y="647"/>
      <point x="333" y="638"/>
      <point x="333" y="619" type="curve" smooth="yes"/>
      <point x="333" y="603"/>
      <point x="325" y="569"/>
      <point x="313" y="528" type="curve"/>
    </contour>
  </outline>
</glyph>
<glyph name="uni1234" format="2">
  <advance width="816"/>
  <unicode hex="1234"/>
  <outline>
    <contour>
      <point x="245" y="533"/>
      <point x="223" y="531"/>
      <point x="208" y="518" type="curve"/>
      <point x="208" y="363"/>
      <point x="82" y="82"/>
      <point x="82" y="33" type="curve" smooth="yes"/>
      <point x="82" y="7"/>
      <point x="99" y="-5"/>
      <point x="126" y="-5" type="curve" smooth="yes"/>
      <point x="149" y="-5"/>
      <point x="161" y="-2"/>
      <point x="179" y="2" type="curve"/>
      <point x="177" y="12"/>
      <point x="175" y="21"/>
      <point x="175" y="37" type="curve" smooth="yes"/>
      <point x="175" y="120"/>
      <point x="294" y="428"/>
      <point x="294" y="504" type="curve" smooth="yes"/>
      <point x="294" y="524"/>
      <point x="286" y="533"/>
      <point x="270" y="533" type="curve" smooth="yes"/>
    </contour>
    <contour>
      <point x="450" y="528" type="line"/>
      <point x="460" y="558"/>
      <point x="472" y="585"/>
      <point x="485" y="606" type="curve"/>
      <point x="505" y="617"/>
      <point x="517" y="623"/>
      <point x="517" y="639" type="curve" smooth="yes"/>
      <point x="517" y="666"/>
      <point x="443" y="697"/>
      <point x="394" y="697" type="curve" smooth="yes"/>
      <point x="366" y="697"/>
      <point x="354" y="673"/>
      <point x="360" y="655" type="curve"/>
      <point x="384" y="647"/>
      <point x="396" y="638"/>
      <point x="396" y="619" type="curve" smooth="yes"/>
      <point x="396" y="603"/>
      <point x="388" y="569"/>
      <point x="376" y="528" type="curve"/>
    </contour>
    <contour>
      <point x="446" y="105" type="curve" smooth="yes"/>
      <point x="446" y="14"/>
      <point x="524" y="-11"/>
      <point x="589" y="-11" type="curve" smooth="yes"/>
      <point x="689" y="-11"/>
      <point x="753" y="47"/>
      <point x="753" y="113" type="curve" smooth="yes"/>
      <point x="753" y="175"/>
      <point x="650" y="213"/>
      <point x="509" y="214" type="curve"/>
      <point x="499" y="165" type="line"/>
      <point x="616" y="170"/>
      <point x="667" y="144"/>
      <point x="667" y="104" type="curve" smooth="yes"/>
      <point x="667" y="76"/>
      <point x="641" y="43"/>
      <point x="591" y="43" type="curve" smooth="yes"/>
      <point x="549" y="43"/>
      <point x="526" y="63"/>
      <point x="526" y="112" type="curve" smooth="yes"/>
      <point x="526" y="200"/>
      <point x="625" y="451"/>
      <point x="625" y="504" type="curve" smooth="yes"/>
      <point x="625" y="537"/>
      <point x="609" y="555"/>
      <point x="575" y="555" type="curve" smooth="yes"/>
      <point x="548" y="555"/>
      <point x="340" y="536"/>
      <point x="194" y="536" type="curve" smooth="yes"/>
      <point x="163" y="536"/>
      <point x="146" y="518"/>
      <point x="146" y="496" type="curve" smooth="yes"/>
      <point x="146" y="476"/>
      <point x="156" y="461"/>
      <point x="169" y="455" type="curve"/>
      <point x="226" y="482"/>
      <point x="366" y="497"/>
      <point x="501" y="497" type="curve" smooth="yes"/>
      <point x="527" y="497"/>
      <point x="536" y="483"/>
      <point x="536" y="463" type="curve" smooth="yes"/>
      <point x="536" y="345"/>
      <point x="446" y="196"/>
    </contour>
  </outline>
</glyph>
<glyph name="uni1240" format="2">
  <advance width="823"/>
  <unicode hex="1240"/>
  <outline>
    <contour>
      <point x="481" y="586" type="curve"/>
      <point x="500" y="592"/>
      <point x="511" y="602"/>
      <point x="511" y="614" type="curve" smooth="yes"/>
      <point x="511" y="636"/>
      <point x="449" y="657"/>
      <point x="391" y="657" type="curve" smooth="yes"/>
      <point x="363" y="657"/>
      <point x="351" y="633"/>
      <point x="357" y="615" type="curve"/>
      <point x="383" y="606"/>
      <point x="396" y="598"/>
      <point x="396" y="579" type="curve"/>
      <point x="394" y="443"/>
      <point x="286" y="61"/>
      <point x="286" y="7" type="curve" smooth="yes"/>
      <point x="286" y="-12"/>
      <point x="296" y="-25"/>
      <point x="315" y="-25" type="curve" smooth="yes"/>
      <point x="341" y="-25"/>
      <point x="356" y="-23"/>
      <point x="376" y="-18" type="curve"/>
      <point x="374" y="-8"/>
      <point x="372" y="2"/>
      <point x="372" y="17" type="curve" smooth="yes"/>
      <point x="372" y="130"/>
      <point x="468" y="480"/>
    </contour>
    <contour>
      <point x="759" y="418" type="curve" smooth="yes"/>
      <point x="759" y="472"/>
      <point x="718" y="515"/>
      <point x="524" y="515" type="curve" smooth="yes"/>
      <point x="396" y="515"/>
      <point x="223" y="487"/>
      <point x="136" y="446" type="curve" smooth="yes"/>
      <point x="96" y="427"/>
      <point x="70" y="357"/>
      <point x="70" y="294" type="curve" smooth="yes"/>
      <point x="70" y="225"/>
      <point x="182" y="200"/>
      <point x="351" y="200" type="curve"/>
      <point x="350" y="251" type="line"/>
      <point x="228.53758625383205" y="256.87721356836295"/>
      <point x="159.0" y="275.0"/>
      <point x="159" y="326" type="curve" smooth="yes"/>
      <point x="159.0" y="406.0"/>
      <point x="236.04294478527606" y="465.0"/>
      <point x="481" y="465" type="curve" smooth="yes"/>
      <point x="633.7157894736843" y="465.0"/>
      <point x="667.0" y="442.0"/>
      <point x="667" y="404" type="curve" smooth="yes"/>
      <point x="667.0" y="343.0"/>
      <point x="576.3092586743012" y="285.5668562743997"/>
      <point x="374" y="253" type="curve"/>
      <point x="384" y="200" type="line"/>
      <point x="535" y="234"/>
      <point x="620" y="269"/>
      <point x="663" y="297" type="curve" smooth="yes"/>
      <point x="726" y="338"/>
      <point x="759" y="386"/>
    </contour>
  </outline>
</glyph>
<glyph name="uni1241" format="2">
  <advance width="820"/>
  <unicode hex="1241"/>
  <outline>
    <contour>
      <point x="476" y="586" type="curve"/>
      <point x="495" y="592"/>
      <point x="506" y="602"/>
      <point x="506" y="614" type="curve" smooth="yes"/>
      <point x="506" y="636"/>
      <point x="444" y="657"/>
      <point x="386" y="657" type="curve" smooth="yes"/>
      <point x="358" y="657"/>
      <point x="346" y="633"/>
      <point x="352" y="615" type="curve"/>
      <point x="378" y="606"/>
      <point x="391" y="598"/>
      <point x="391" y="579" type="curve"/>
      <point x="389" y="443"/>
      <point x="281" y="61"/>
      <point x="281" y="7" type="curve" smooth="yes"/>
      <point x="281" y="-12"/>
      <point x="291" y="-25"/>
      <point x="310" y="-25" type="curve" smooth="yes"/>
      <point x="336" y="-25"/>
      <point x="351" y="-23"/>
      <point x="371" y="-18" type="curve"/>
      <point x="369" y="-8"/>
      <point x="367" y="2"/>
      <point x="367" y="17" type="curve" smooth="yes"/>
      <point x="367" y="130"/>
      <point x="463" y="480"/>
    </contour>
    <contour>
      <point x="743" y="428" type="curve" smooth="yes"/>
      <point x="743" y="476"/>
      <point x="704" y="515"/>
      <point x="519" y="515" type="curve" smooth="yes"/>
      <point x="391" y="515"/>
      <point x="218" y="487"/>
      <point x="131" y="446" type="curve" smooth="yes"/>
      <point x="92" y="428"/>
      <point x="65" y="375"/>
      <point x="65" y="324" type="curve" smooth="yes"/>
      <point x="65" y="262"/>
      <point x="177" y="240"/>
      <point x="346" y="240" type="curve"/>
      <point x="345" y="291" type="line"/>
      <point x="223" y="297"/>
      <point x="154" y="312"/>
      <point x="154" y="356" type="curve" smooth="yes"/>
      <point x="154" y="419"/>
      <point x="231" y="465"/>
      <point x="476" y="465" type="curve" smooth="yes"/>
      <point x="620" y="465"/>
      <point x="651" y="446"/>
      <point x="651" y="414" type="curve" smooth="yes"/>
      <point x="651" y="365"/>
      <point x="563" y="324"/>
      <point x="369" y="293" type="curve"/>
      <point x="379" y="240" type="line"/>
      <point x="532" y="274"/>
      <point x="613" y="295"/>
      <point x="658" y="324" type="curve" smooth="yes"/>
      <point x="715" y="361"/>
      <point x="743" y="400"/>
    </contour>
    <contour>
      <point x="673" y="141" type="curve"/>
      <point x="594" y="151" type="line"/>
      <point x="592" y="137"/>
      <point x="590" y="117"/>
      <point x="590" y="91" type="curve" smooth="yes"/>
      <point x="590" y="62"/>
      <point x="604" y="46"/>
      <point x="641" y="46" type="curve" smooth="yes"/>
      <point x="663" y="46"/>
      <point x="684" y="50"/>
      <point x="702" y="63" type="curve"/>
      <point x="691" y="79"/>
      <point x="685" y="102"/>
      <point x="684" y="128" type="curve" smooth="yes"/>
      <point x="683" y="152"/>
      <point x="685" y="181"/>
      <point x="693" y="203" type="curve"/>
      <point x="672" y="212"/>
      <point x="656" y="217"/>
      <point x="635" y="217" type="curve" smooth="yes"/>
      <point x="612" y="217"/>
      <point x="603" y="204"/>
      <point x="597" y="183" type="curve"/>
      <point x="532" y="175"/>
      <point x="468" y="169"/>
      <point x="364" y="161" type="curve"/>
      <point x="358" y="106" type="line"/>
      <point x="450" y="118"/>
      <point x="565" y="132"/>
    </contour>
  </outline>
</glyph>
<glyph name="uni1242" format="2">
  <advance width="826"/>
  <unicode hex="1242"/>
  <outline>
    <contour>
      <point x="759" y="418" type="curve" smooth="yes"/>
      <point x="759" y="472"/>
      <point x="718" y="515"/>
      <point x="524" y="515" type="curve" smooth="yes"/>
      <point x="396" y="515"/>
      <point x="223" y="487"/>
      <point x="136" y="446" type="curve" smooth="yes"/>
      <point x="96" y="427"/>
      <point x="70" y="357"/>
      <point x="70" y="294" type="curve" smooth="yes"/>
      <point x="70" y="225"/>
      <point x="193" y="200"/>
      <point x="378" y="200" type="curve"/>
      <point x="377" y="251" type="line"/>
      <point x="239" y="258"/>
      <point x="159" y="275"/>
      <point x="159" y="326" type="curve" smooth="yes"/>
      <point x="159" y="406"/>
      <point x="236" y="465"/>
      <point x="481" y="465" type="curve" smooth="yes"/>
      <point x="634" y="465"/>
      <point x="667" y="442"/>
      <point x="667" y="404" type="curve" smooth="yes"/>
      <point x="667" y="343"/>
      <point x="585" y="283"/>
      <point x="401" y="253" type="curve"/>
      <point x="411" y="200" type="line"/>
      <point x="548" y="231"/>
      <point x="623" y="271"/>
      <point x="663" y="297" type="curve" smooth="yes"/>
      <point x="726" y="338"/>
      <point x="759" y="386"/>
    </contour>
    <contour>
      <point x="396" y="78" type="curve" smooth="yes"/>
      <point x="396" y="179"/>
      <point x="487" y="491"/>
      <point x="499" y="586" type="curve"/>
      <point x="509" y="593"/>
      <point x="516" y="601"/>
      <point x="516" y="615" type="curve" smooth="yes"/>
      <point x="516" y="641"/>
      <point x="467" y="657"/>
      <point x="417" y="657" type="curve" smooth="yes"/>
      <point x="379" y="657"/>
      <point x="369" y="634"/>
      <point x="375" y="611" type="curve"/>
      <point x="399" y="607"/>
      <point x="414" y="598"/>
      <point x="414" y="579" type="curve"/>
      <point x="412" y="455"/>
      <point x="311" y="100"/>
      <point x="311" y="51" type="curve" smooth="yes"/>
      <point x="311" y="14"/>
      <point x="336" y="-8"/>
      <point x="378" y="-8" type="curve" smooth="yes"/>
      <point x="408" y="-8"/>
      <point x="485" y="8"/>
      <point x="576" y="28" type="curve"/>
      <point x="570" y="51" type="line"/>
      <point x="569" y="-25"/>
      <point x="589" y="-49"/>
      <point x="644" y="-49" type="curve" smooth="yes"/>
      <point x="657" y="-49"/>
      <point x="675" y="-47"/>
      <point x="687" y="-43" type="curve"/>
      <point x="678" y="-19"/>
      <point x="674" y="24"/>
      <point x="677" y="51" type="curve"/>
      <point x="644" y="63"/>
      <point x="599" y="74"/>
      <point x="589" y="74" type="curve" smooth="yes"/>
      <point x="559" y="74"/>
      <point x="468" y="47"/>
      <point x="435" y="47" type="curve" smooth="yes"/>
      <point x="409" y="47"/>
      <point x="396" y="54"/>
    </contour>
  </outline>
</glyph>
<glyph name="uni1243" format="2">
  <advance width="845"/>
  <unicode hex="1243"/>
  <outline>
    <contour>
      <point x="337" y="92" type="curve" smooth="yes"/>
      <point x="319" y="54"/>
      <point x="295" y="28"/>
      <point x="110" y="41" type="curve"/>
      <point x="78" y="25"/>
      <point x="52" y="-25"/>
      <point x="52" y="-63" type="curve" smooth="yes"/>
      <point x="52" y="-88"/>
      <point x="82" y="-103"/>
      <point x="137" y="-94" type="curve"/>
      <point x="138" y="-61"/>
      <point x="149" y="-19"/>
      <point x="178" y="19" type="curve"/>
      <point x="147" y="-7" type="line"/>
      <point x="342" y="1"/>
      <point x="397" y="8"/>
      <point x="416" y="86" type="curve" smooth="yes"/>
      <point x="428" y="134"/>
      <point x="509" y="492"/>
      <point x="521" y="586" type="curve"/>
      <point x="531" y="593"/>
      <point x="538" y="601"/>
      <point x="538" y="615" type="curve" smooth="yes"/>
      <point x="538" y="641"/>
      <point x="489" y="657"/>
      <point x="439" y="657" type="curve" smooth="yes"/>
      <point x="401" y="657"/>
      <point x="391" y="634"/>
      <point x="397" y="611" type="curve"/>
      <point x="421" y="607"/>
      <point x="436" y="598"/>
      <point x="436" y="579" type="curve"/>
      <point x="434" y="464"/>
      <point x="356" y="132"/>
    </contour>
    <contour>
      <point x="781" y="418" type="curve" smooth="yes"/>
      <point x="781" y="472"/>
      <point x="740" y="515"/>
      <point x="546" y="515" type="curve" smooth="yes"/>
      <point x="418" y="515"/>
      <point x="245" y="487"/>
      <point x="158" y="446" type="curve" smooth="yes"/>
      <point x="118" y="427"/>
      <point x="92" y="357"/>
      <point x="92" y="294" type="curve" smooth="yes"/>
      <point x="92" y="225"/>
      <point x="215" y="200"/>
      <point x="400" y="200" type="curve"/>
      <point x="399" y="251" type="line"/>
      <point x="261" y="258"/>
      <point x="181" y="275"/>
      <point x="181" y="326" type="curve" smooth="yes"/>
      <point x="181" y="406"/>
      <point x="258" y="465"/>
      <point x="503" y="465" type="curve" smooth="yes"/>
      <point x="656" y="465"/>
      <point x="689" y="442"/>
      <point x="689" y="404" type="curve" smooth="yes"/>
      <point x="689" y="343"/>
      <point x="607" y="283"/>
      <point x="423" y="253" type="curve"/>
      <point x="433" y="200" type="line"/>
      <point x="570" y="231"/>
      <point x="645" y="271"/>
      <point x="685" y="297" type="curve" smooth="yes"/>
      <point x="748" y="338"/>
      <point x="781" y="386"/>
    </contour>
  </outline>
</glyph>
<glyph name="uni1245" format="2">
  <advance width="823"/>
  <unicode hex="1245"/>
  <outline>
    <contour>
      <point x="759" y="368" type="curve" smooth="yes"/>
      <point x="759" y="422"/>
      <point x="718" y="465"/>
      <point x="524" y="465" type="curve" smooth="yes"/>
      <point x="396" y="465"/>
      <point x="223" y="437"/>
      <point x="136" y="396" type="curve" smooth="yes"/>
      <point x="96" y="377"/>
      <point x="70" y="307"/>
      <point x="70" y="244" type="curve" smooth="yes"/>
      <point x="70" y="175"/>
      <point x="182" y="150"/>
      <point x="351" y="150" type="curve"/>
      <point x="350" y="201" type="line"/>
      <point x="229" y="207"/>
      <point x="159" y="225"/>
      <point x="159" y="276" type="curve" smooth="yes"/>
      <point x="159" y="356"/>
      <point x="236" y="415"/>
      <point x="481" y="415" type="curve" smooth="yes"/>
      <point x="634" y="415"/>
      <point x="667" y="392"/>
      <point x="667" y="354" type="curve" smooth="yes"/>
      <point x="667" y="293"/>
      <point x="576" y="236"/>
      <point x="374" y="203" type="curve"/>
      <point x="384" y="150" type="line"/>
      <point x="535" y="184"/>
      <point x="620" y="219"/>
      <point x="663" y="247" type="curve" smooth="yes"/>
      <point x="726" y="288"/>
      <point x="759" y="336"/>
    </contour>
    <contour>
      <point x="374" y="597" type="curve" smooth="yes"/>
      <point x="402" y="597"/>
      <point x="406" y="588"/>
      <point x="406" y="571" type="curve" smooth="yes"/>
      <point x="406" y="443"/>
      <point x="296" y="61"/>
      <point x="296" y="7" type="curve" smooth="yes"/>
      <point x="296" y="-12"/>
      <point x="306" y="-25"/>
      <point x="325" y="-25" type="curve" smooth="yes"/>
      <point x="351" y="-25"/>
      <point x="366" y="-23"/>
      <point x="386" y="-18" type="curve"/>
      <point x="384" y="-8"/>
      <point x="382" y="2"/>
      <point x="382" y="17" type="curve" smooth="yes"/>
      <point x="382" y="130"/>
      <point x="491" y="532"/>
      <point x="491" y="586" type="curve" smooth="yes"/>
      <point x="491" y="618"/>
      <point x="470" y="637"/>
      <point x="418" y="637" type="curve" smooth="yes"/>
      <point x="371" y="637"/>
      <point x="310" y="629"/>
      <point x="275" y="619" type="curve"/>
      <point x="210" y="633"/>
      <point x="189" y="595"/>
      <point x="189" y="550" type="curve" smooth="yes"/>
      <point x="189" y="525"/>
      <point x="214" y="509"/>
      <point x="278" y="519" type="curve"/>
      <point x="279" y="544"/>
      <point x="284" y="571"/>
      <point x="293" y="585" type="curve"/>
      <point x="304" y="591"/>
      <point x="330" y="597"/>
    </contour>
  </outline>
</glyph>
<glyph name="uni1246" format="2">
  <advance width="789"/>
  <unicode hex="1246"/>
  <outline>
    <contour>
      <point x="725" y="336" type="curve" smooth="yes"/>
      <point x="725" y="390"/>
      <point x="690" y="433"/>
      <point x="524" y="433" type="curve" smooth="yes"/>
      <point x="396" y="433"/>
      <point x="223" y="405"/>
      <point x="136" y="364" type="curve" smooth="yes"/>
      <point x="96" y="345"/>
      <point x="70" y="275"/>
      <point x="70" y="212" type="curve" smooth="yes"/>
      <point x="70" y="148"/>
      <point x="182" y="125"/>
      <point x="351" y="125" type="curve"/>
      <point x="350" y="176" type="line"/>
      <point x="228.53758625383205" y="181.87721356836298"/>
      <point x="159.0" y="198.0"/>
      <point x="159" y="244" type="curve" smooth="yes"/>
      <point x="159.0" y="324.0"/>
      <point x="236.04294478527606" y="383.0"/>
      <point x="481" y="383" type="curve" smooth="yes"/>
      <point x="606.5384615384615" y="383.0"/>
      <point x="634.0" y="360.0"/>
      <point x="634" y="322" type="curve" smooth="yes"/>
      <point x="634.0" y="266.0"/>
      <point x="549.985644430932" y="213.6785602815317"/>
      <point x="364" y="184" type="curve"/>
      <point x="374" y="131" type="line"/>
      <point x="514.3922932869139" y="158.68298740868724"/>
      <point x="587.3170674152489" y="189.2113782768326"/>
      <point x="626" y="215" type="curve" smooth="yes"/>
      <point x="690.3892941871943" y="256.90414383611056"/>
      <point x="725.0" y="304.0"/>
    </contour>
    <contour>
      <point x="447" y="469" type="curve"/>
      <point x="417" y="514"/>
      <point x="410" y="544"/>
      <point x="410" y="573" type="curve" smooth="yes"/>
      <point x="410" y="601"/>
      <point x="429" y="620"/>
      <point x="465" y="620" type="curve" smooth="yes"/>
      <point x="494" y="620"/>
      <point x="522" y="603"/>
      <point x="522" y="574" type="curve" smooth="yes"/>
      <point x="522" y="544"/>
      <point x="495" y="514"/>
      <point x="414" y="487" type="curve"/>
      <point x="436" y="445" type="line"/>
      <point x="536" y="482"/>
      <point x="596" y="532"/>
      <point x="596" y="584" type="curve" smooth="yes"/>
      <point x="596" y="635"/>
      <point x="527" y="678"/>
      <point x="461" y="678" type="curve" smooth="yes"/>
      <point x="395" y="678"/>
      <point x="338" y="636"/>
      <point x="338" y="573" type="curve" smooth="yes"/>
      <point x="338.0" y="534.0"/>
      <point x="351" y="495"/>
      <point x="369" y="454" type="curve"/>
      <point x="363.0009618340868" y="332.0195572930975"/>
      <point x="286.0" y="49.0"/>
      <point x="286" y="7" type="curve" smooth="yes"/>
      <point x="286" y="-12"/>
      <point x="296" y="-25"/>
      <point x="315" y="-25" type="curve" smooth="yes"/>
      <point x="341" y="-25"/>
      <point x="356" y="-23"/>
      <point x="376" y="-18" type="curve"/>
      <point x="374" y="-8"/>
      <point x="372" y="2"/>
      <point x="372" y="17" type="curve" smooth="yes"/>
      <point x="372" y="106"/>
      <point x="437" y="386"/>
    </contour>
  </outline>
</glyph>
<glyph name="uni124B" format="2">
  <advance width="808"/>
  <unicode hex="124B"/>
  <outline>
    <contour>
      <point x="266" y="144" type="curve"/>
      <point x="311" y="148"/>
      <point x="502" y="166"/>
      <point x="576" y="171" type="curve"/>
      <point x="560" y="187" type="line"/>
      <point x="553" y="115"/>
      <point x="541" y="63"/>
      <point x="541" y="32" type="curve" smooth="yes"/>
      <point x="541" y="6"/>
      <point x="561" y="-9"/>
      <point x="590" y="-9" type="curve" smooth="yes"/>
      <point x="607" y="-9"/>
      <point x="626" y="-4"/>
      <point x="636" y="7" type="curve"/>
      <point x="632" y="15"/>
      <point x="626" y="22"/>
      <point x="626" y="47" type="curve" smooth="yes"/>
      <point x="626" y="84"/>
      <point x="643" y="158"/>
      <point x="643" y="176" type="curve" smooth="yes"/>
      <point x="643" y="197"/>
      <point x="619" y="215"/>
      <point x="558" y="215" type="curve" smooth="yes"/>
      <point x="530" y="215"/>
      <point x="323" y="196"/>
      <point x="253" y="190" type="curve"/>
      <point x="188" y="198"/>
      <point x="152" y="161"/>
      <point x="152" y="112" type="curve" smooth="yes"/>
      <point x="152" y="82"/>
      <point x="173" y="61"/>
      <point x="211" y="61" type="curve" smooth="yes"/>
      <point x="222" y="61"/>
      <point x="235" y="63"/>
      <point x="249" y="67" type="curve"/>
      <point x="245" y="95"/>
      <point x="252" y="130"/>
    </contour>
    <contour>
      <point x="743" y="438" type="curve" smooth="yes"/>
      <point x="743" y="492"/>
      <point x="705" y="535"/>
      <point x="525" y="535" type="curve" smooth="yes"/>
      <point x="397" y="535"/>
      <point x="224" y="507"/>
      <point x="137" y="466" type="curve" smooth="yes"/>
      <point x="98" y="447"/>
      <point x="71" y="386"/>
      <point x="71" y="329" type="curve" smooth="yes"/>
      <point x="71" y="271"/>
      <point x="194" y="250"/>
      <point x="379" y="250" type="curve"/>
      <point x="378" y="301" type="line"/>
      <point x="240" y="308"/>
      <point x="160" y="320"/>
      <point x="160" y="361" type="curve" smooth="yes"/>
      <point x="160" y="432"/>
      <point x="237" y="485"/>
      <point x="482" y="485" type="curve" smooth="yes"/>
      <point x="621" y="485"/>
      <point x="651" y="462"/>
      <point x="651" y="424" type="curve" smooth="yes"/>
      <point x="651" y="375"/>
      <point x="570" y="313"/>
      <point x="402" y="303" type="curve"/>
      <point x="412" y="250" type="line"/>
      <point x="549" y="273"/>
      <point x="625" y="306"/>
      <point x="664" y="332" type="curve" smooth="yes"/>
      <point x="717" y="367"/>
      <point x="743" y="410"/>
    </contour>
    <contour>
      <point x="508" y="586" type="curve"/>
      <point x="518" y="593"/>
      <point x="525" y="601"/>
      <point x="525" y="615" type="curve" smooth="yes"/>
      <point x="525" y="641"/>
      <point x="476" y="657"/>
      <point x="426" y="657" type="curve" smooth="yes"/>
      <point x="388" y="657"/>
      <point x="378" y="634"/>
      <point x="384" y="611" type="curve"/>
      <point x="408" y="607"/>
      <point x="423" y="598"/>
      <point x="423" y="579" type="curve"/>
      <point x="422" y="495"/>
      <point x="380" y="316"/>
      <point x="348" y="179" type="curve"/>
      <point x="422" y="179" type="line"/>
      <point x="451" y="326"/>
      <point x="499" y="513"/>
    </contour>
  </outline>
</glyph>
<glyph name="uni1260" format="2">
  <advance width="594"/>
  <unicode hex="1260"/>
  <outline>
    <contour>
      <point x="247" y="573.0"/>
      <point x="225" y="571"/>
      <point x="210" y="558" type="curve"/>
      <point x="122.57822544421771" y="402.6977887303161"/>
      <point x="14.0" y="198"/>
      <point x="14.0" y="33" type="curve" smooth="yes"/>
      <point x="14" y="7"/>
      <point x="30.923076923076916" y="-5.0"/>
      <point x="58" y="-5" type="curve" smooth="yes"/>
      <point x="78.70588235294116" y="-5.0"/>
      <point x="89.48914056520843" y="-1.4759704073245397"/>
      <point x="106" y="2" type="curve"/>
      <point x="104" y="12"/>
      <point x="102" y="21"/>
      <point x="102" y="37" type="curve" smooth="yes"/>
      <point x="102" y="193"/>
      <point x="207" y="427"/>
      <point x="291" y="544" type="curve" smooth="yes"/>
      <point x="302.11594569124594" y="559.5623239677443"/>
      <point x="284.66666666666663" y="573.0"/>
      <point x="272" y="573" type="curve" smooth="yes"/>
    </contour>
    <contour>
      <point x="545.0" y="580"/>
      <point x="427.0" y="596.0"/>
      <point x="166" y="596" type="curve" smooth="yes"/>
      <point x="135" y="596"/>
      <point x="118.0" y="578.0"/>
      <point x="118.0" y="556" type="curve" smooth="yes"/>
      <point x="118.0" y="536"/>
      <point x="128" y="521"/>
      <point x="141" y="515" type="curve"/>
      <point x="378" y="548"/>
      <point x="458.0" y="526.0"/>
      <point x="458.0" y="502" type="curve" smooth="yes"/>
      <point x="458" y="344"/>
      <point x="374.0" y="174.8519314962658"/>
      <point x="374.0" y="49" type="curve" smooth="yes"/>
      <point x="374.0" y="14"/>
      <point x="392.0" y="-7"/>
      <point x="421" y="-7.0" type="curve" smooth="yes"/>
      <point x="437" y="-7.0"/>
      <point x="459" y="-2"/>
      <point x="471" y="13" type="curve"/>
      <point x="437.88296458952647" y="137.74083337945018"/>
      <point x="545" y="434"/>
      <point x="545.0" y="537" type="curve" smooth="yes"/>
    </contour>
  </outline>
</glyph>
<glyph name="uni1261" format="2">
  <advance width="898"/>
  <unicode hex="1261"/>
  <outline>
    <contour>
      <point x="248" y="573"/>
      <point x="226" y="571"/>
      <point x="211" y="558" type="curve"/>
      <point x="211" y="390"/>
      <point x="85" y="86"/>
      <point x="85" y="33" type="curve" smooth="yes"/>
      <point x="85" y="7"/>
      <point x="102" y="-5"/>
      <point x="129" y="-5" type="curve" smooth="yes"/>
      <point x="153" y="-5"/>
      <point x="166" y="-2"/>
      <point x="185" y="2" type="curve"/>
      <point x="183" y="12"/>
      <point x="181" y="21"/>
      <point x="181" y="37" type="curve" smooth="yes"/>
      <point x="181" y="127"/>
      <point x="300" y="461"/>
      <point x="300" y="544" type="curve" smooth="yes"/>
      <point x="300" y="564"/>
      <point x="291" y="573"/>
      <point x="273" y="573" type="curve" smooth="yes"/>
    </contour>
    <contour>
      <point x="581" y="595" type="curve" smooth="yes"/>
      <point x="554" y="595"/>
      <point x="344" y="576"/>
      <point x="197" y="576" type="curve" smooth="yes"/>
      <point x="166" y="576"/>
      <point x="149" y="558"/>
      <point x="149" y="536" type="curve" smooth="yes"/>
      <point x="149" y="516"/>
      <point x="159" y="501"/>
      <point x="172" y="495" type="curve"/>
      <point x="229" y="522"/>
      <point x="369" y="537"/>
      <point x="504" y="537" type="curve" smooth="yes"/>
      <point x="530" y="537"/>
      <point x="539" y="523"/>
      <point x="539" y="503" type="curve" smooth="yes"/>
      <point x="539" y="362"/>
      <point x="445" y="180"/>
      <point x="445" y="71" type="curve" smooth="yes"/>
      <point x="445" y="36"/>
      <point x="463" y="15"/>
      <point x="492" y="15" type="curve" smooth="yes"/>
      <point x="508" y="15"/>
      <point x="530" y="20"/>
      <point x="542" y="35" type="curve"/>
      <point x="512" y="148"/>
      <point x="631" y="476"/>
      <point x="631" y="544" type="curve" smooth="yes"/>
      <point x="631" y="577"/>
      <point x="615" y="595"/>
    </contour>
    <contour>
      <point x="572" y="421" type="curve"/>
      <point x="566" y="363" type="line"/>
      <point x="627" y="378"/>
      <point x="707" y="399"/>
      <point x="781" y="405" type="curve"/>
      <point x="710" y="425" type="line"/>
      <point x="709" y="355"/>
      <point x="735" y="327"/>
      <point x="842" y="345" type="curve"/>
      <point x="836" y="374"/>
      <point x="834" y="402"/>
      <point x="831" y="423" type="curve" smooth="yes"/>
      <point x="829" y="437"/>
      <point x="824" y="441"/>
      <point x="812" y="444" type="curve" smooth="yes"/>
      <point x="792" y="449"/>
      <point x="772" y="453"/>
      <point x="755" y="456" type="curve" smooth="yes"/>
      <point x="736" y="460"/>
      <point x="727" y="460"/>
      <point x="706" y="454" type="curve" smooth="yes"/>
      <point x="668" y="443"/>
      <point x="633" y="434"/>
    </contour>
  </outline>
</glyph>
<glyph name="uni1262" format="2">
  <advance width="855"/>
  <unicode hex="1262"/>
  <outline>
    <contour>
      <point x="318" y="573"/>
      <point x="296" y="571"/>
      <point x="281" y="558" type="curve"/>
      <point x="194" y="403"/>
      <point x="85" y="198"/>
      <point x="85" y="33" type="curve" smooth="yes"/>
      <point x="85" y="7"/>
      <point x="102" y="-5"/>
      <point x="129" y="-5" type="curve" smooth="yes"/>
      <point x="150" y="-5"/>
      <point x="160" y="-1"/>
      <point x="177" y="2" type="curve"/>
      <point x="175" y="12"/>
      <point x="173" y="21"/>
      <point x="173" y="37" type="curve" smooth="yes"/>
      <point x="173" y="193"/>
      <point x="278" y="427"/>
      <point x="362" y="544" type="curve" smooth="yes"/>
      <point x="373" y="560"/>
      <point x="356" y="573"/>
      <point x="343" y="573" type="curve" smooth="yes"/>
    </contour>
    <contour>
      <point x="527" y="88" type="curve" smooth="yes"/>
      <point x="527" y="229"/>
      <point x="616" y="449"/>
      <point x="616" y="537" type="curve" smooth="yes"/>
      <point x="616" y="580"/>
      <point x="498" y="596"/>
      <point x="237" y="596" type="curve" smooth="yes"/>
      <point x="206" y="596"/>
      <point x="189" y="578"/>
      <point x="189" y="556" type="curve" smooth="yes"/>
      <point x="189" y="536"/>
      <point x="199" y="521"/>
      <point x="212" y="515" type="curve"/>
      <point x="449" y="548"/>
      <point x="529" y="526"/>
      <point x="529" y="502" type="curve" smooth="yes"/>
      <point x="529" y="344"/>
      <point x="434" y="175"/>
      <point x="434" y="49" type="curve" smooth="yes"/>
      <point x="434" y="15"/>
      <point x="458" y="-7"/>
      <point x="498" y="-7" type="curve" smooth="yes"/>
      <point x="531" y="-7"/>
      <point x="608" y="12"/>
      <point x="669" y="22" type="curve"/>
      <point x="671" y="-37"/>
      <point x="703" y="-63"/>
      <point x="811" y="-44" type="curve"/>
      <point x="805" y="-16"/>
      <point x="803" y="23"/>
      <point x="800" y="43" type="curve" smooth="yes"/>
      <point x="798" y="57"/>
      <point x="793" y="61"/>
      <point x="781" y="64" type="curve" smooth="yes"/>
      <point x="761" y="69"/>
      <point x="741" y="73"/>
      <point x="724" y="76" type="curve" smooth="yes"/>
      <point x="705" y="80"/>
      <point x="696" y="78"/>
      <point x="675" y="74" type="curve" smooth="yes"/>
      <point x="647" y="68"/>
      <point x="578" y="54"/>
      <point x="558" y="54" type="curve" smooth="yes"/>
      <point x="536" y="54"/>
      <point x="527" y="62"/>
    </contour>
  </outline>
</glyph>
<glyph name="uni1263" format="2">
  <advance width="663"/>
  <unicode hex="1263"/>
  <outline>
    <contour>
      <point x="485" y="595" type="curve" smooth="yes"/>
      <point x="428" y="595"/>
      <point x="294" y="576"/>
      <point x="156" y="576" type="curve" smooth="yes"/>
      <point x="125" y="576"/>
      <point x="108" y="558"/>
      <point x="108" y="536" type="curve" smooth="yes"/>
      <point x="108" y="516"/>
      <point x="118" y="501"/>
      <point x="131" y="495" type="curve"/>
      <point x="136" y="497"/>
      <point x="142" y="500"/>
      <point x="148" y="502" type="curve"/>
      <point x="129" y="441"/>
      <point x="89" y="311"/>
      <point x="89" y="263" type="curve" smooth="yes"/>
      <point x="89" y="237"/>
      <point x="106" y="225"/>
      <point x="133" y="225" type="curve" smooth="yes"/>
      <point x="155" y="225"/>
      <point x="167" y="228"/>
      <point x="185" y="232" type="curve"/>
      <point x="183" y="242"/>
      <point x="181" y="251"/>
      <point x="181" y="275" type="curve" smooth="yes"/>
      <point x="181" y="320"/>
      <point x="204" y="419"/>
      <point x="222" y="474" type="curve" smooth="yes"/>
      <point x="236" y="515"/>
      <point x="246" y="523"/>
      <point x="282" y="527" type="curve" smooth="yes"/>
      <point x="329" y="533"/>
      <point x="388" y="537"/>
      <point x="445" y="537" type="curve" smooth="yes"/>
      <point x="471" y="537"/>
      <point x="480" y="523"/>
      <point x="480" y="503" type="curve" smooth="yes"/>
      <point x="480" y="385"/>
      <point x="386" y="170"/>
      <point x="386" y="58" type="curve" smooth="yes"/>
      <point x="386" y="23"/>
      <point x="404" y="2"/>
      <point x="433" y="2" type="curve" smooth="yes"/>
      <point x="448" y="2"/>
      <point x="467" y="7"/>
      <point x="479" y="22" type="curve"/>
      <point x="448" y="138"/>
      <point x="568" y="464"/>
      <point x="568" y="524" type="curve" smooth="yes"/>
      <point x="568" y="569"/>
      <point x="548" y="595"/>
    </contour>
  </outline>
</glyph>
<glyph name="uni1265" format="2">
  <advance width="756"/>
  <unicode hex="1265"/>
  <outline>
    <contour>
      <point x="321" y="326" type="line"/>
      <point x="239" y="311"/>
      <point x="146" y="293"/>
      <point x="103" y="289" type="curve"/>
      <point x="33.979497365512756" y="293.001188558521"/>
      <point x="12.0" y="232.5744680851064"/>
      <point x="12" y="187" type="curve" smooth="yes"/>
      <point x="12" y="161"/>
      <point x="29" y="146"/>
      <point x="62" y="146" type="curve" smooth="yes"/>
      <point x="85.38983050847457" y="146.0"/>
      <point x="102.30993477363907" y="150.52397390945563"/>
      <point x="131" y="162" type="curve"/>
      <point x="117" y="194"/>
      <point x="121" y="232"/>
      <point x="148" y="274" type="curve"/>
      <point x="105" y="238" type="line"/>
      <point x="146" y="249"/>
      <point x="226" y="264"/>
      <point x="307" y="278" type="curve"/>
    </contour>
    <contour>
      <point x="367" y="573.0"/>
      <point x="345" y="571"/>
      <point x="330" y="558" type="curve"/>
      <point x="330.0" y="390.0"/>
      <point x="204.0" y="86.0"/>
      <point x="204.0" y="33" type="curve" smooth="yes"/>
      <point x="204.0" y="7.0"/>
      <point x="221" y="-5.0"/>
      <point x="248" y="-5" type="curve" smooth="yes"/>
      <point x="272" y="-5.0"/>
      <point x="285" y="-2"/>
      <point x="304" y="2" type="curve"/>
      <point x="302" y="12"/>
      <point x="300" y="21"/>
      <point x="300" y="37" type="curve" smooth="yes"/>
      <point x="300" y="127"/>
      <point x="419" y="461"/>
      <point x="419" y="544" type="curve" smooth="yes"/>
      <point x="419" y="564"/>
      <point x="410" y="573"/>
      <point x="392" y="573" type="curve" smooth="yes"/>
    </contour>
    <contour>
      <point x="700" y="595.0" type="curve" smooth="yes"/>
      <point x="673" y="595.0"/>
      <point x="463" y="576.0"/>
      <point x="316" y="576" type="curve" smooth="yes"/>
      <point x="285" y="576.0"/>
      <point x="268.0" y="558.0"/>
      <point x="268.0" y="536" type="curve" smooth="yes"/>
      <point x="268.0" y="516"/>
      <point x="278" y="501"/>
      <point x="291" y="495" type="curve"/>
      <point x="348" y="522"/>
      <point x="488" y="537.0"/>
      <point x="623" y="537.0" type="curve" smooth="yes"/>
      <point x="649.0" y="537.0"/>
      <point x="658.0" y="523.0"/>
      <point x="658.0" y="503" type="curve" smooth="yes"/>
      <point x="658.0" y="362"/>
      <point x="564.0" y="180"/>
      <point x="564.0" y="71" type="curve" smooth="yes"/>
      <point x="564.0" y="36"/>
      <point x="582.0" y="15"/>
      <point x="611" y="15.0" type="curve" smooth="yes"/>
      <point x="627" y="15.0"/>
      <point x="649" y="20"/>
      <point x="661" y="35" type="curve"/>
      <point x="631.0" y="148.0"/>
      <point x="750.0" y="476.0"/>
      <point x="750.0" y="544" type="curve" smooth="yes"/>
      <point x="750.0" y="577.0"/>
      <point x="734.0" y="595.0"/>
    </contour>
  </outline>
</glyph>
<glyph name="uni1270" format="2">
  <advance width="586"/>
  <unicode hex="1270"/>
  <outline>
    <contour>
      <point x="176" y="359"/>
      <point x="391" y="396"/>
      <point x="493" y="406" type="curve"/>
      <point x="435" y="416" type="line"/>
      <point x="433.0" y="402.0"/>
      <point x="431.0" y="382.0"/>
      <point x="431" y="356" type="curve" smooth="yes"/>
      <point x="431.0" y="327.0"/>
      <point x="445.433962264151" y="311.0"/>
      <point x="482" y="311" type="curve" smooth="yes"/>
      <point x="504.0862068965517" y="311.0"/>
      <point x="525.1337225076924" y="315.38851000542996"/>
      <point x="543" y="328" type="curve"/>
      <point x="532" y="344"/>
      <point x="526" y="367"/>
      <point x="525" y="393" type="curve" smooth="yes"/>
      <point x="523.8808361916322" y="416.50243997572375"/>
      <point x="526.2459555983887" y="445.8455874239677"/>
      <point x="534" y="468" type="curve"/>
      <point x="513.3967987252588" y="476.6750321156805"/>
      <point x="496.79245283018867" y="482.0"/>
      <point x="476" y="482" type="curve" smooth="yes"/>
      <point x="454.03125" y="482.0"/>
      <point x="444.054257757006" y="471.20617947662276"/>
      <point x="439" y="452" type="curve"/>
      <point x="376.774232539656" y="442.27722383432126"/>
      <point x="167.94530539480914" y="396.8029744899132"/>
      <point x="97" y="390" type="curve"/>
      <point x="27.97851463446196" y="394.001245528437"/>
      <point x="6.0" y="333.5744680851064"/>
      <point x="6" y="288" type="curve" smooth="yes"/>
      <point x="6" y="262"/>
      <point x="23" y="247"/>
      <point x="56" y="247" type="curve" smooth="yes"/>
      <point x="78.99999999999999" y="247.0"/>
      <point x="96.8157923994757" y="251.07591216900894"/>
      <point x="125" y="263" type="curve"/>
      <point x="111" y="295"/>
      <point x="115" y="333"/>
      <point x="142" y="375" type="curve"/>
      <point x="99" y="339" type="line"/>
    </contour>
    <contour>
      <point x="364" y="556" type="curve"/>
      <point x="383" y="562"/>
      <point x="394" y="572"/>
      <point x="394" y="584" type="curve" smooth="yes"/>
      <point x="394.0" y="606.0"/>
      <point x="331.8181818181818" y="627.0"/>
      <point x="274" y="627" type="curve" smooth="yes"/>
      <point x="246" y="627"/>
      <point x="234" y="603"/>
      <point x="240" y="585" type="curve"/>
      <point x="266" y="576"/>
      <point x="279" y="568"/>
      <point x="279" y="549" type="curve"/>
      <point x="279" y="407"/>
      <point x="164" y="76"/>
      <point x="164" y="27" type="curve" smooth="yes"/>
      <point x="164" y="8"/>
      <point x="174" y="-5"/>
      <point x="193" y="-5" type="curve" smooth="yes"/>
      <point x="219.31372549019608" y="-5.0"/>
      <point x="233.827835731056" y="-2.7463915926927047"/>
      <point x="254" y="2" type="curve"/>
      <point x="252" y="12"/>
      <point x="250" y="22"/>
      <point x="250" y="37" type="curve" smooth="yes"/>
      <point x="250" y="140"/>
      <point x="364.0" y="456.0"/>
    </contour>
  </outline>
</glyph>
<glyph name="uni1272" format="2">
  <advance width="672"/>
  <unicode hex="1272"/>
  <outline>
    <contour>
      <point x="230" y="359"/>
      <point x="445" y="396"/>
      <point x="547" y="406" type="curve"/>
      <point x="489" y="416" type="line"/>
      <point x="487" y="402"/>
      <point x="485" y="382"/>
      <point x="485" y="356" type="curve" smooth="yes"/>
      <point x="485" y="327"/>
      <point x="499" y="311"/>
      <point x="536" y="311" type="curve" smooth="yes"/>
      <point x="558" y="311"/>
      <point x="579" y="315"/>
      <point x="597" y="328" type="curve"/>
      <point x="586" y="344"/>
      <point x="580" y="367"/>
      <point x="579" y="393" type="curve" smooth="yes"/>
      <point x="578" y="417"/>
      <point x="580" y="446"/>
      <point x="588" y="468" type="curve"/>
      <point x="567" y="477"/>
      <point x="551" y="482"/>
      <point x="530" y="482" type="curve" smooth="yes"/>
      <point x="508" y="482"/>
      <point x="498" y="471"/>
      <point x="493" y="452" type="curve"/>
      <point x="431" y="442"/>
      <point x="222" y="397"/>
      <point x="151" y="390" type="curve"/>
      <point x="82" y="394"/>
      <point x="60" y="334"/>
      <point x="60" y="288" type="curve" smooth="yes"/>
      <point x="60" y="262"/>
      <point x="77" y="247"/>
      <point x="110" y="247" type="curve" smooth="yes"/>
      <point x="133" y="247"/>
      <point x="151" y="251"/>
      <point x="179" y="263" type="curve"/>
      <point x="165" y="295"/>
      <point x="169" y="333"/>
      <point x="196" y="375" type="curve"/>
      <point x="153" y="339" type="line"/>
    </contour>
    <contour>
      <point x="204" y="48" type="curve" smooth="yes"/>
      <point x="204" y="14"/>
      <point x="228" y="-8"/>
      <point x="268" y="-8" type="curve" smooth="yes"/>
      <point x="301" y="-8"/>
      <point x="378" y="11"/>
      <point x="439" y="21" type="curve"/>
      <point x="441" y="-38"/>
      <point x="473" y="-64"/>
      <point x="581" y="-45" type="curve"/>
      <point x="575" y="-17"/>
      <point x="573" y="22"/>
      <point x="570" y="42" type="curve" smooth="yes"/>
      <point x="568" y="56"/>
      <point x="563" y="60"/>
      <point x="551" y="63" type="curve" smooth="yes"/>
      <point x="531" y="68"/>
      <point x="511" y="72"/>
      <point x="494" y="75" type="curve" smooth="yes"/>
      <point x="475" y="79"/>
      <point x="466" y="77"/>
      <point x="445" y="73" type="curve" smooth="yes"/>
      <point x="417" y="67"/>
      <point x="348" y="53"/>
      <point x="328" y="53" type="curve" smooth="yes"/>
      <point x="306" y="53"/>
      <point x="297" y="61"/>
      <point x="297" y="87" type="curve" smooth="yes"/>
      <point x="297" y="156"/>
      <point x="418" y="466"/>
      <point x="418" y="556" type="curve"/>
      <point x="437" y="562"/>
      <point x="448" y="572"/>
      <point x="448" y="584" type="curve" smooth="yes"/>
      <point x="448" y="606"/>
      <point x="386" y="627"/>
      <point x="328" y="627" type="curve" smooth="yes"/>
      <point x="300" y="627"/>
      <point x="288" y="603"/>
      <point x="294" y="585" type="curve"/>
      <point x="320" y="576"/>
      <point x="333" y="568"/>
      <point x="333" y="549" type="curve"/>
      <point x="333" y="413"/>
      <point x="204" y="95"/>
    </contour>
  </outline>
</glyph>
<glyph name="uni1273" format="2">
  <advance width="658"/>
  <unicode hex="1273"/>
  <outline>
    <contour>
      <point x="248.0" y="359"/>
      <point x="463.0" y="396"/>
      <point x="565.0" y="406" type="curve"/>
      <point x="507.0" y="416" type="line"/>
      <point x="505.0" y="402.0"/>
      <point x="503.0" y="382.0"/>
      <point x="503.0" y="356" type="curve" smooth="yes"/>
      <point x="503.0" y="327.0"/>
      <point x="517.433962264151" y="311.0"/>
      <point x="554.0" y="311" type="curve" smooth="yes"/>
      <point x="576.0862068965516" y="311.0"/>
      <point x="597.1337225076924" y="315.38851000542996"/>
      <point x="615.0" y="328" type="curve"/>
      <point x="604.0" y="344"/>
      <point x="598.0" y="367"/>
      <point x="597.0" y="393" type="curve" smooth="yes"/>
      <point x="595.8808361916322" y="416.50243997572375"/>
      <point x="598.2459555983887" y="445.8455874239677"/>
      <point x="606.0" y="468" type="curve"/>
      <point x="585.3967987252588" y="476.6750321156805"/>
      <point x="568.7924528301887" y="482.0"/>
      <point x="548.0" y="482" type="curve" smooth="yes"/>
      <point x="526.03125" y="482.0"/>
      <point x="516.054257757006" y="471.20617947662276"/>
      <point x="511.0" y="452" type="curve"/>
      <point x="448.774232539656" y="442.27722383432126"/>
      <point x="239.94530539480914" y="396.8029744899132"/>
      <point x="169.0" y="390" type="curve"/>
      <point x="99.97851463446196" y="394.001245528437"/>
      <point x="78.0" y="333.5744680851064"/>
      <point x="78.0" y="288" type="curve" smooth="yes"/>
      <point x="78.0" y="262"/>
      <point x="95.0" y="247"/>
      <point x="128.0" y="247" type="curve" smooth="yes"/>
      <point x="151.0" y="247.0"/>
      <point x="168.8157923994757" y="251.07591216900894"/>
      <point x="197.0" y="263" type="curve"/>
      <point x="183.0" y="295"/>
      <point x="187.0" y="333"/>
      <point x="214.0" y="375" type="curve"/>
      <point x="171.0" y="339" type="line"/>
    </contour>
    <contour>
      <point x="436.0" y="556" type="curve"/>
      <point x="455.0" y="562"/>
      <point x="466.0" y="572"/>
      <point x="466.0" y="584" type="curve" smooth="yes"/>
      <point x="466.0" y="606.0"/>
      <point x="403.8181818181818" y="627.0"/>
      <point x="346.0" y="627" type="curve" smooth="yes"/>
      <point x="318.0" y="627"/>
      <point x="306.0" y="603"/>
      <point x="312.0" y="585" type="curve"/>
      <point x="338.0" y="576"/>
      <point x="351.0" y="568"/>
      <point x="351.0" y="549" type="curve"/>
      <point x="351.0" y="407"/>
      <point x="236.0" y="76"/>
      <point x="236.0" y="27" type="curve" smooth="yes"/>
      <point x="236.0" y="9.78125"/>
      <point x="244.6206896551724" y="-2.0"/>
      <point x="261.0" y="-2" type="curve" smooth="yes"/>
      <point x="289.0392156862745" y="-2.0"/>
      <point x="303.3242555007855" y="0.6645307060671835"/>
      <point x="326.0" y="6" type="curve"/>
      <point x="324.2192376352567" y="14.903811823716328"/>
      <point x="322.0" y="23.714285714285715"/>
      <point x="322.0" y="37" type="curve" smooth="yes"/>
      <point x="322.0" y="140"/>
      <point x="436.0" y="456.0"/>
    </contour>
    <contour>
      <point x="293.0" y="55" type="line"/>
      <point x="245.0" y="48.0"/>
      <point x="169.0" y="41.0"/>
      <point x="73.0" y="41" type="curve" smooth="yes"/>
      <point x="44.0" y="41.0"/>
      <point x="14.0" y="-12"/>
      <point x="14.0" y="-53" type="curve" smooth="yes"/>
      <point x="14.0" y="-85.0"/>
      <point x="51.0" y="-104"/>
      <point x="123.0" y="-93" type="curve"/>
      <point x="124.0" y="-61"/>
      <point x="135.0" y="-27"/>
      <point x="148.0" y="-7" type="curve"/>
      <point x="177.0" y="-4"/>
      <point x="218.0" y="-2.0"/>
      <point x="261.0" y="-2" type="curve"/>
    </contour>
  </outline>
</glyph>
<glyph name="uni1274" format="2">
  <advance width="586"/>
  <unicode hex="1274"/>
  <outline>
    <contour>
      <point x="176" y="359"/>
      <point x="391" y="396"/>
      <point x="493" y="406" type="curve"/>
      <point x="435" y="416" type="line"/>
      <point x="433.0" y="402.0"/>
      <point x="431.0" y="382.0"/>
      <point x="431" y="356" type="curve" smooth="yes"/>
      <point x="431.0" y="327.0"/>
      <point x="445.433962264151" y="311.0"/>
      <point x="482" y="311" type="curve" smooth="yes"/>
      <point x="504.0862068965517" y="311.0"/>
      <point x="525.1337225076924" y="315.38851000542996"/>
      <point x="543" y="328" type="curve"/>
      <point x="532" y="344"/>
      <point x="526" y="367"/>
      <point x="525" y="393" type="curve" smooth="yes"/>
      <point x="523.8808361916322" y="416.50243997572375"/>
      <point x="526.2459555983887" y="445.8455874239677"/>
      <point x="534" y="468" type="curve"/>
      <point x="513.3967987252588" y="476.6750321156805"/>
      <point x="496.79245283018867" y="482.0"/>
      <point x="476" y="482" type="curve" smooth="yes"/>
      <point x="454.03125" y="482.0"/>
      <point x="444.054257757006" y="471.20617947662276"/>
      <point x="439" y="452" type="curve"/>
      <point x="376.774232539656" y="442.27722383432126"/>
      <point x="167.94530539480914" y="396.8029744899132"/>
      <point x="97" y="390" type="curve"/>
      <point x="27.97851463446196" y="394.001245528437"/>
      <point x="6.0" y="333.5744680851064"/>
      <point x="6" y="288" type="curve" smooth="yes"/>
      <point x="6" y="262"/>
      <point x="23" y="247"/>
      <point x="56" y="247" type="curve" smooth="yes"/>
      <point x="78.99999999999999" y="247.0"/>
      <point x="96.8157923994757" y="251.07591216900894"/>
      <point x="125" y="263" type="curve"/>
      <point x="111" y="295"/>
      <point x="115" y="333"/>
      <point x="142" y="375" type="curve"/>
      <point x="99" y="339" type="line"/>
    </contour>
    <contour>
      <point x="176.0" y="100" type="curve" smooth="yes"/>
      <point x="176" y="14"/>
      <point x="259" y="-11.0"/>
      <point x="328" y="-11" type="curve" smooth="yes"/>
      <point x="428" y="-11.0"/>
      <point x="492.0" y="47.0"/>
      <point x="492" y="113" type="curve" smooth="yes"/>
      <point x="492.0" y="175"/>
      <point x="389" y="213"/>
      <point x="248" y="214" type="curve"/>
      <point x="238" y="165" type="line"/>
      <point x="355" y="170"/>
      <point x="406.0" y="144"/>
      <point x="406" y="104" type="curve" smooth="yes"/>
      <point x="406.0" y="76"/>
      <point x="380" y="43.0"/>
      <point x="330" y="43" type="curve" smooth="yes"/>
      <point x="288" y="43.0"/>
      <point x="265.0" y="63"/>
      <point x="265" y="112" type="curve" smooth="yes"/>
      <point x="265.0" y="178.0"/>
      <point x="364.0" y="470.6151981627782"/>
      <point x="364" y="556" type="curve"/>
      <point x="383" y="562"/>
      <point x="394" y="572"/>
      <point x="394" y="584" type="curve" smooth="yes"/>
      <point x="394.0" y="606.0"/>
      <point x="331.8181818181818" y="627.0"/>
      <point x="274" y="627" type="curve" smooth="yes"/>
      <point x="246" y="627"/>
      <point x="234" y="603"/>
      <point x="240" y="585" type="curve"/>
      <point x="266" y="576"/>
      <point x="279" y="568"/>
      <point x="279" y="549" type="curve"/>
      <point x="279.0" y="429.273934888843"/>
      <point x="176.0" y="170.0"/>
    </contour>
  </outline>
</glyph>
<glyph name="uni1275" format="2">
  <advance width="586"/>
  <unicode hex="1275"/>
  <outline>
    <contour>
      <point x="176" y="319"/>
      <point x="391" y="356"/>
      <point x="493" y="366" type="curve"/>
      <point x="435" y="376" type="line"/>
      <point x="433.0" y="362.0"/>
      <point x="431.0" y="342.0"/>
      <point x="431" y="316" type="curve" smooth="yes"/>
      <point x="431.0" y="287.0"/>
      <point x="445" y="271.0"/>
      <point x="482" y="271" type="curve" smooth="yes"/>
      <point x="504" y="271.0"/>
      <point x="525" y="275"/>
      <point x="543" y="288" type="curve"/>
      <point x="532" y="304"/>
      <point x="526" y="327"/>
      <point x="525" y="353" type="curve" smooth="yes"/>
      <point x="524" y="377"/>
      <point x="526" y="406"/>
      <point x="534" y="428" type="curve"/>
      <point x="513" y="437"/>
      <point x="497" y="442.0"/>
      <point x="476" y="442" type="curve" smooth="yes"/>
      <point x="454" y="442.0"/>
      <point x="444" y="431"/>
      <point x="439" y="412" type="curve"/>
      <point x="377" y="402"/>
      <point x="168" y="357"/>
      <point x="97" y="350" type="curve"/>
      <point x="28" y="354"/>
      <point x="6.0" y="294"/>
      <point x="6" y="248" type="curve" smooth="yes"/>
      <point x="6" y="222"/>
      <point x="23" y="207"/>
      <point x="56" y="207" type="curve" smooth="yes"/>
      <point x="79" y="207.0"/>
      <point x="97" y="211"/>
      <point x="125" y="223" type="curve"/>
      <point x="111" y="255"/>
      <point x="115" y="293"/>
      <point x="142" y="335" type="curve"/>
      <point x="99" y="299" type="line"/>
    </contour>
    <contour>
      <point x="257" y="411" type="curve" smooth="yes"/>
      <point x="257.0" y="328.8918918918919"/>
      <point x="164.0" y="17.742857142857147"/>
      <point x="164" y="-23" type="curve" smooth="yes"/>
      <point x="164" y="-42"/>
      <point x="174" y="-55"/>
      <point x="193" y="-55" type="curve" smooth="yes"/>
      <point x="219" y="-55"/>
      <point x="234" y="-53"/>
      <point x="254" y="-48" type="curve"/>
      <point x="252" y="-38"/>
      <point x="250" y="-28"/>
      <point x="250" y="-13" type="curve" smooth="yes"/>
      <point x="250.0" y="78.02889661103214"/>
      <point x="342.0" y="356.9230769230769"/>
      <point x="342" y="445" type="curve" smooth="yes"/>
      <point x="342.0" y="465.0"/>
      <point x="331" y="476"/>
      <point x="298" y="476" type="curve" smooth="yes"/>
      <point x="252.45333333333332" y="476.0"/>
      <point x="237.0" y="481.0"/>
      <point x="237" y="508" type="curve" smooth="yes"/>
      <point x="237.0" y="525.0"/>
      <point x="242.0" y="547.0"/>
      <point x="248" y="563" type="curve"/>
      <point x="268" y="574"/>
      <point x="285" y="586"/>
      <point x="285" y="602" type="curve" smooth="yes"/>
      <point x="285" y="629"/>
      <point x="221" y="660"/>
      <point x="174" y="660" type="curve" smooth="yes"/>
      <point x="146" y="660"/>
      <point x="134" y="636"/>
      <point x="140" y="618" type="curve"/>
      <point x="164" y="610"/>
      <point x="176" y="601"/>
      <point x="176" y="582" type="curve" smooth="yes"/>
      <point x="176.0" y="549.0"/>
      <point x="153.0" y="509.0"/>
      <point x="153" y="472" type="curve" smooth="yes"/>
      <point x="153" y="452"/>
      <point x="167" y="435"/>
      <point x="198" y="435" type="curve" smooth="yes"/>
      <point x="249.72602739726025" y="435.0"/>
      <point x="257.0" y="430.0"/>
    </contour>
  </outline>
</glyph>
<glyph name="uni1276" format="2">
  <advance width="663"/>
  <unicode hex="1276"/>
  <outline>
    <contour>
      <point x="230" y="319"/>
      <point x="445" y="356"/>
      <point x="547" y="366" type="curve"/>
      <point x="489" y="376" type="line"/>
      <point x="487" y="362"/>
      <point x="485" y="342"/>
      <point x="485" y="316" type="curve" smooth="yes"/>
      <point x="485" y="287"/>
      <point x="499" y="271"/>
      <point x="536" y="271" type="curve" smooth="yes"/>
      <point x="558" y="271"/>
      <point x="579" y="275"/>
      <point x="597" y="288" type="curve"/>
      <point x="586" y="304"/>
      <point x="580" y="327"/>
      <point x="579" y="353" type="curve" smooth="yes"/>
      <point x="578" y="377"/>
      <point x="580" y="406"/>
      <point x="588" y="428" type="curve"/>
      <point x="567" y="437"/>
      <point x="551" y="442"/>
      <point x="530" y="442" type="curve" smooth="yes"/>
      <point x="508" y="442"/>
      <point x="498" y="431"/>
      <point x="493" y="412" type="curve"/>
      <point x="431" y="402"/>
      <point x="222" y="357"/>
      <point x="151" y="350" type="curve"/>
      <point x="82" y="354"/>
      <point x="60" y="294"/>
      <point x="60" y="248" type="curve" smooth="yes"/>
      <point x="60" y="222"/>
      <point x="77" y="207"/>
      <point x="110" y="207" type="curve" smooth="yes"/>
      <point x="133" y="207"/>
      <point x="151" y="211"/>
      <point x="179" y="223" type="curve"/>
      <point x="165" y="255"/>
      <point x="169" y="293"/>
      <point x="196" y="335" type="curve"/>
      <point x="153" y="299" type="line"/>
    </contour>
    <contour>
      <point x="308" y="467" type="line"/>
      <point x="308" y="334"/>
      <point x="218" y="23"/>
      <point x="218" y="-23" type="curve" smooth="yes"/>
      <point x="218" y="-42"/>
      <point x="228" y="-55"/>
      <point x="247" y="-55" type="curve" smooth="yes"/>
      <point x="273" y="-55"/>
      <point x="288" y="-53"/>
      <point x="308" y="-48" type="curve"/>
      <point x="306" y="-38"/>
      <point x="304" y="-28"/>
      <point x="304" y="-13" type="curve" smooth="yes"/>
      <point x="304" y="84"/>
      <point x="393" y="380"/>
      <point x="393" y="474" type="curve"/>
      <point x="356" y="444" type="line"/>
    </contour>
    <contour>
      <point x="363" y="408" type="line"/>
      <point x="441" y="478"/>
      <point x="496" y="538"/>
      <point x="496" y="584" type="curve" smooth="yes"/>
      <point x="496" y="635"/>
      <point x="428" y="678"/>
      <point x="362" y="678" type="curve" smooth="yes"/>
      <point x="292" y="678"/>
      <point x="231" y="632"/>
      <point x="231" y="563" type="curve" smooth="yes"/>
      <point x="231" y="514"/>
      <point x="279" y="464"/>
      <point x="312" y="413" type="curve"/>
      <point x="364" y="458" type="line"/>
      <point x="322" y="496"/>
      <point x="299" y="534"/>
      <point x="299" y="563" type="curve" smooth="yes"/>
      <point x="299" y="597"/>
      <point x="322" y="620"/>
      <point x="366" y="620" type="curve" smooth="yes"/>
      <point x="394" y="620"/>
      <point x="422" y="603"/>
      <point x="422" y="574" type="curve" smooth="yes"/>
      <point x="422" y="546"/>
      <point x="398" y="501"/>
      <point x="341" y="450" type="curve"/>
    </contour>
  </outline>
</glyph>
<glyph name="uni1277" format="2">
  <advance width="586"/>
  <unicode hex="1277"/>
  <outline>
    <contour>
      <point x="176" y="359"/>
      <point x="391" y="396"/>
      <point x="493" y="406" type="curve"/>
      <point x="435" y="416" type="line"/>
      <point x="433.0" y="402.0"/>
      <point x="431.0" y="382.0"/>
      <point x="431" y="356" type="curve" smooth="yes"/>
      <point x="431.0" y="327.0"/>
      <point x="445.433962264151" y="311.0"/>
      <point x="482" y="311" type="curve" smooth="yes"/>
      <point x="504.0862068965517" y="311.0"/>
      <point x="525.1337225076924" y="315.38851000542996"/>
      <point x="543" y="328" type="curve"/>
      <point x="532" y="344"/>
      <point x="526" y="367"/>
      <point x="525" y="393" type="curve" smooth="yes"/>
      <point x="523.8808361916322" y="416.50243997572375"/>
      <point x="526.2459555983887" y="445.8455874239677"/>
      <point x="534" y="468" type="curve"/>
      <point x="513.3967987252588" y="476.6750321156805"/>
      <point x="496.79245283018867" y="482.0"/>
      <point x="476" y="482" type="curve" smooth="yes"/>
      <point x="454.03125" y="482.0"/>
      <point x="444.054257757006" y="471.20617947662276"/>
      <point x="439" y="452" type="curve"/>
      <point x="376.774232539656" y="442.27722383432126"/>
      <point x="167.94530539480914" y="396.8029744899132"/>
      <point x="97" y="390" type="curve"/>
      <point x="27.97851463446196" y="394.001245528437"/>
      <point x="6.0" y="333.5744680851064"/>
      <point x="6" y="288" type="curve" smooth="yes"/>
      <point x="6" y="262"/>
      <point x="23" y="247"/>
      <point x="56" y="247" type="curve" smooth="yes"/>
      <point x="78.99999999999999" y="247.0"/>
      <point x="96.8157923994757" y="251.07591216900894"/>
      <point x="125" y="263" type="curve"/>
      <point x="111" y="295"/>
      <point x="115" y="333"/>
      <point x="142" y="375" type="curve"/>
      <point x="99" y="339" type="line"/>
    </contour>
    <contour>
      <point x="364" y="556" type="curve"/>
      <point x="383" y="562"/>
      <point x="394" y="572"/>
      <point x="394" y="584" type="curve" smooth="yes"/>
      <point x="394.0" y="606.0"/>
      <point x="331.8181818181818" y="627.0"/>
      <point x="274" y="627" type="curve" smooth="yes"/>
      <point x="246" y="627"/>
      <point x="234" y="603"/>
      <point x="240" y="585" type="curve"/>
      <point x="266" y="576"/>
      <point x="279" y="568"/>
      <point x="279" y="549" type="curve"/>
      <point x="279" y="407"/>
      <point x="164" y="76"/>
      <point x="164" y="27" type="curve" smooth="yes"/>
      <point x="164.0" y="11.5625"/>
      <point x="173.6551724137931" y="1.0"/>
      <point x="192" y="1" type="curve" smooth="yes"/>
      <point x="218" y="1.0"/>
      <point x="233" y="3"/>
      <point x="253" y="8" type="curve"/>
      <point x="251.34249337219143" y="16.28753313904282"/>
      <point x="250.0" y="24.571428571428573"/>
      <point x="250" y="37" type="curve" smooth="yes"/>
      <point x="250" y="140"/>
      <point x="364.0" y="456.0"/>
    </contour>
    <contour>
      <point x="190" y="-4"/>
      <point x="324" y="5"/>
      <point x="421" y="9" type="curve"/>
      <point x="355" y="26" type="line"/>
      <point x="354" y="-44"/>
      <point x="380" y="-72"/>
      <point x="487" y="-54" type="curve"/>
      <point x="481" y="-26"/>
      <point x="479" y="11"/>
      <point x="476" y="31" type="curve" smooth="yes"/>
      <point x="474" y="45"/>
      <point x="469" y="49"/>
      <point x="457" y="52" type="curve" smooth="yes"/>
      <point x="437.0" y="57.0"/>
      <point x="417.0" y="61.0"/>
      <point x="400" y="64" type="curve" smooth="yes"/>
      <point x="381.0" y="68.0"/>
      <point x="372.0" y="65.0"/>
      <point x="351" y="62" type="curve" smooth="yes"/>
      <point x="294" y="53"/>
      <point x="129" y="47.0"/>
      <point x="21" y="41" type="curve" smooth="yes"/>
      <point x="-8" y="39"/>
      <point x="-37.0" y="-17"/>
      <point x="-37" y="-63" type="curve" smooth="yes"/>
      <point x="-37.0" y="-87.0"/>
      <point x="1" y="-104"/>
      <point x="71" y="-93" type="curve"/>
      <point x="72" y="-61"/>
      <point x="83" y="-27"/>
      <point x="96" y="-7" type="curve"/>
    </contour>
  </outline>
</glyph>
<glyph name="uni1285" format="2">
  <advance width="659"/>
  <unicode hex="1285"/>
  <outline>
    <contour>
      <point x="446" y="639" type="curve" smooth="yes"/>
      <point x="427" y="639"/>
      <point x="411" y="634"/>
      <point x="400" y="626" type="curve"/>
      <point x="400" y="553"/>
      <point x="309" y="364"/>
      <point x="309" y="312" type="curve" smooth="yes"/>
      <point x="309" y="292"/>
      <point x="323" y="275"/>
      <point x="354" y="275" type="curve" smooth="yes"/>
      <point x="484" y="275"/>
      <point x="503" y="270"/>
      <point x="503" y="251" type="curve" smooth="yes"/>
      <point x="503" y="180"/>
      <point x="427" y="65"/>
      <point x="393" y="25" type="curve"/>
      <point x="407" y="1"/>
      <point x="437" y="-5"/>
      <point x="455" y="-5" type="curve" smooth="yes"/>
      <point x="468" y="-5"/>
      <point x="478" y="3"/>
      <point x="485" y="19" type="curve" smooth="yes"/>
      <point x="523" y="99"/>
      <point x="588" y="236"/>
      <point x="588" y="270" type="curve" smooth="yes"/>
      <point x="588" y="346"/>
      <point x="397" y="298"/>
      <point x="397" y="344" type="curve" smooth="yes"/>
      <point x="397" y="398"/>
      <point x="477" y="570"/>
      <point x="477" y="613" type="curve" smooth="yes"/>
      <point x="477" y="631"/>
      <point x="468" y="639"/>
    </contour>
    <contour>
      <point x="387" y="510" type="line"/>
      <point x="299" y="504"/>
      <point x="189" y="448"/>
      <point x="153" y="412" type="curve" smooth="yes"/>
      <point x="107" y="366"/>
      <point x="75" y="265"/>
      <point x="75" y="193" type="curve" smooth="yes"/>
      <point x="75" y="167"/>
      <point x="92" y="155"/>
      <point x="119" y="155" type="curve" smooth="yes"/>
      <point x="140" y="155"/>
      <point x="150" y="158"/>
      <point x="160" y="162" type="curve"/>
      <point x="158" y="172"/>
      <point x="156" y="181"/>
      <point x="156" y="197" type="curve" smooth="yes"/>
      <point x="156" y="340"/>
      <point x="247" y="458"/>
      <point x="383" y="464" type="curve"/>
    </contour>
  </outline>
</glyph>
<glyph name="uni1290" format="2">
  <advance width="395"/>
  <unicode hex="1290"/>
  <outline>
    <contour>
      <point x="198" y="639" type="curve" smooth="yes"/>
      <point x="178.83333333333334" y="639.0"/>
      <point x="163" y="634"/>
      <point x="152" y="626" type="curve"/>
      <point x="152" y="562"/>
      <point x="61" y="397"/>
      <point x="61" y="352" type="curve" smooth="yes"/>
      <point x="61" y="332"/>
      <point x="75" y="315"/>
      <point x="106" y="315" type="curve" smooth="yes"/>
      <point x="236" y="315"/>
      <point x="255" y="310"/>
      <point x="255" y="291" type="curve" smooth="yes"/>
      <point x="255" y="266"/>
      <point x="148" y="88"/>
      <point x="148" y="31" type="curve" smooth="yes"/>
      <point x="148.0" y="4.0"/>
      <point x="162.14705882352942" y="-5.0"/>
      <point x="185" y="-5" type="curve" smooth="yes"/>
      <point x="206.15" y="-5.0"/>
      <point x="222.58425433362825" y="1.2147026301867"/>
      <point x="232" y="19" type="curve"/>
      <point x="232.0" y="124.0"/>
      <point x="335.0" y="250.0"/>
      <point x="335" y="303" type="curve" smooth="yes"/>
      <point x="335.0" y="386.0"/>
      <point x="149.0" y="334.0"/>
      <point x="149" y="384" type="curve" smooth="yes"/>
      <point x="149.0" y="430.0"/>
      <point x="229.0" y="576.0"/>
      <point x="229" y="613" type="curve" smooth="yes"/>
      <point x="229" y="631"/>
      <point x="220" y="639"/>
    </contour>
  </outline>
</glyph>
<glyph name="uni1291" format="2">
  <advance width="553"/>
  <unicode hex="1291"/>
  <outline>
    <contour>
      <point x="182.0" y="639.0" type="curve" smooth="yes"/>
      <point x="166.57142857142858" y="639.0"/>
      <point x="153.45161088179364" y="632.5201595215694"/>
      <point x="146.0" y="626" type="curve"/>
      <point x="146.0" y="569.007299270073"/>
      <point x="55.0" y="422.0729927007299"/>
      <point x="55.0" y="382" type="curve" smooth="yes"/>
      <point x="55.0" y="362"/>
      <point x="69.0" y="345.0"/>
      <point x="100.0" y="345.0" type="curve" smooth="yes"/>
      <point x="230.0" y="345.0"/>
      <point x="249.0" y="340.0"/>
      <point x="249.0" y="321" type="curve" smooth="yes"/>
      <point x="249.0" y="293.11538461538464"/>
      <point x="142.0" y="94.57692307692307"/>
      <point x="142.0" y="31" type="curve" smooth="yes"/>
      <point x="142.0" y="4.0"/>
      <point x="154.75" y="-5.0"/>
      <point x="176.0" y="-5" type="curve" smooth="yes"/>
      <point x="194.0" y="-5"/>
      <point x="207.0" y="2"/>
      <point x="216.0" y="19" type="curve"/>
      <point x="216.0" y="134.85517241379313"/>
      <point x="319.0" y="274.5310344827586"/>
      <point x="319.0" y="333" type="curve" smooth="yes"/>
      <point x="319.0" y="416.0"/>
      <point x="133.0" y="364.0"/>
      <point x="133.0" y="414" type="curve" smooth="yes"/>
      <point x="133.0" y="454.15695067264573"/>
      <point x="213.0" y="580.8744394618834"/>
      <point x="213.0" y="613" type="curve" smooth="yes"/>
      <point x="213.0" y="631"/>
      <point x="204.0" y="639"/>
    </contour>
    <contour>
      <point x="264.0" y="251" type="curve"/>
      <point x="258.0" y="203" type="line"/>
      <point x="319.0" y="218"/>
      <point x="399.0" y="239"/>
      <point x="473.0" y="245" type="curve"/>
      <point x="412.0" y="265" type="line"/>
      <point x="411.0" y="195"/>
      <point x="435.0" y="168"/>
      <point x="534.0" y="185" type="curve"/>
      <point x="529.0" y="210"/>
      <point x="526.0" y="235"/>
      <point x="523.0" y="253" type="curve" smooth="yes"/>
      <point x="521.0" y="267"/>
      <point x="516.0" y="271"/>
      <point x="504.0" y="274" type="curve" smooth="yes"/>
      <point x="484.0" y="279"/>
      <point x="464.0" y="283"/>
      <point x="447.0" y="286" type="curve" smooth="yes"/>
      <point x="428.0" y="290"/>
      <point x="419.0" y="290"/>
      <point x="398.0" y="284" type="curve" smooth="yes"/>
      <point x="360.0" y="273"/>
      <point x="325.0" y="264"/>
    </contour>
  </outline>
</glyph>
<glyph name="uni1292" format="2">
  <advance width="426"/>
  <unicode hex="1292"/>
  <outline>
    <contour>
      <point x="90" y="44" type="curve" smooth="yes"/>
      <point x="90" y="7"/>
      <point x="114" y="-8"/>
      <point x="154" y="-8" type="curve" smooth="yes"/>
      <point x="194" y="-8"/>
      <point x="304" y="21"/>
      <point x="361" y="25" type="curve"/>
      <point x="305" y="29" type="line"/>
      <point x="303.99998259012807" y="-41.00121869103572"/>
      <point x="330.10910042483556" y="-69.35500295735147"/>
      <point x="437" y="-51" type="curve"/>
      <point x="431.5622344348049" y="-23.811172174024485"/>
      <point x="429.2656557507933" y="13.406065495240245"/>
      <point x="426" y="33" type="curve" smooth="yes"/>
      <point x="424" y="47"/>
      <point x="419" y="51"/>
      <point x="407" y="54" type="curve" smooth="yes"/>
      <point x="387.0" y="59.0"/>
      <point x="367.0" y="63.0"/>
      <point x="350" y="66" type="curve" smooth="yes"/>
      <point x="331" y="70"/>
      <point x="322" y="68"/>
      <point x="301" y="64" type="curve" smooth="yes"/>
      <point x="280.0" y="60.0"/>
      <point x="229.0" y="50.0"/>
      <point x="214" y="50" type="curve" smooth="yes"/>
      <point x="192.0" y="50.0"/>
      <point x="183.0" y="55.925925925925924"/>
      <point x="183" y="70" type="curve" smooth="yes"/>
      <point x="183.0" y="103.0"/>
      <point x="326.0" y="250.0"/>
      <point x="326" y="303" type="curve" smooth="yes"/>
      <point x="326.0" y="386.0"/>
      <point x="140.0" y="334.0"/>
      <point x="140" y="384" type="curve" smooth="yes"/>
      <point x="140.0" y="430.0"/>
      <point x="220.0" y="576.0"/>
      <point x="220" y="613" type="curve" smooth="yes"/>
      <point x="220.0" y="631.0"/>
      <point x="208.09677419354838" y="639.0"/>
      <point x="179" y="639" type="curve" smooth="yes"/>
      <point x="164" y="639"/>
      <point x="150" y="633"/>
      <point x="143" y="626" type="curve"/>
      <point x="143" y="562"/>
      <point x="52" y="397"/>
      <point x="52" y="352" type="curve" smooth="yes"/>
      <point x="52" y="332"/>
      <point x="66" y="315"/>
      <point x="97" y="315" type="curve" smooth="yes"/>
      <point x="227" y="315"/>
      <point x="246" y="310"/>
      <point x="246" y="291" type="curve" smooth="yes"/>
      <point x="246" y="264"/>
      <point x="90" y="97"/>
    </contour>
  </outline>
</glyph>
